<?xml version="1.0" encoding="utf-8"?>
<!-- Generated by IcoMoon.io -->
<!DOCTYPE svg PUBLIC "-//W3C//DTD SVG 1.1//EN" "http://www.w3.org/Graphics/SVG/1.1/DTD/svg11.dtd">
<svg version="1.1" xmlns="http://www.w3.org/2000/svg" xmlns:xlink="http://www.w3.org/1999/xlink" width="752" height="32" viewBox="0 0 752 32">
<svg id="ic__checkbox-check" width="32" height="32" viewBox="0 0 32 32" x="0" y="0">
<path fill="#56bacc" d="M8.421 3.368h15.158c2.791 0 5.053 2.262 5.053 5.053v15.158c0 2.791-2.262 5.053-5.053 5.053h-15.158c-2.79 0-5.053-2.262-5.053-5.053v-15.158c0-2.79 2.262-5.053 5.053-5.053z"></path>
<path fill="#56bacc" d="M23.579 29.053h-15.158c-3.021-0.004-5.47-2.452-5.474-5.473v-15.158c0.004-3.021 2.452-5.47 5.473-5.474h15.158c3.021 0.004 5.47 2.452 5.474 5.473v15.158c-0.004 3.021-2.452 5.47-5.473 5.474zM8.421 3.789c-2.557 0.002-4.63 2.074-4.632 4.631v15.158c0.002 2.557 2.074 4.63 4.631 4.632h15.158c2.557-0.002 4.63-2.074 4.632-4.631v-15.158c-0.002-2.557-2.074-4.63-4.631-4.632h-15.158z"></path>
<path fill="#fff" d="M14.434 23.158c-0.382-0.001-0.724-0.171-0.955-0.44l-4.33-5.054c-0.19-0.22-0.305-0.508-0.305-0.824 0-0.698 0.566-1.264 1.264-1.264 0.382 0 0.725 0.17 0.957 0.438l3.275 3.825 7.367-10.462c0.232-0.326 0.608-0.537 1.033-0.537 0.698 0 1.263 0.566 1.263 1.263 0 0.272-0.086 0.524-0.233 0.731l-8.301 11.786c-0.219 0.312-0.569 0.518-0.969 0.539l-0.067 0z"></path>
</svg>
<svg id="ic__checkbox-unchecked" width="32" height="32" viewBox="0 0 32 32" x="48" y="0">
<path fill="#fff" d="M8.421 3.368h15.158c2.791 0 5.053 2.262 5.053 5.053v15.158c0 2.791-2.262 5.053-5.053 5.053h-15.158c-2.79 0-5.053-2.262-5.053-5.053v-15.158c0-2.79 2.262-5.053 5.053-5.053z"></path>
<path fill="#989797" d="M23.579 29.053h-15.158c-3.021-0.004-5.47-2.452-5.474-5.473v-15.158c0.004-3.021 2.452-5.47 5.473-5.474h15.158c3.021 0.004 5.47 2.452 5.474 5.473v15.158c-0.004 3.021-2.452 5.47-5.473 5.474zM8.421 3.789c-2.557 0.002-4.63 2.074-4.632 4.631v15.158c0.002 2.557 2.074 4.63 4.631 4.632h15.158c2.557-0.002 4.63-2.074 4.632-4.631v-15.158c-0.002-2.557-2.074-4.63-4.631-4.632h-15.158z"></path>
</svg>
<svg id="ic__prism-logo" width="171" height="32" viewBox="0 0 171 32" x="96" y="0">
<path fill="#d3385d" d="M102.882 2.058c0-0.928 0.752-1.723 1.68-1.723 0.971 0 1.722 0.752 1.722 1.723v19.837c0 0.973-0.706 1.723-1.678 1.723-0.971 0-1.723-0.752-1.723-1.723v-19.837z"></path>
<path fill="#adb1b4" d="M112.955 20.966c-0.378-0.283-0.619-0.73-0.619-1.232 0-0.002 0-0.003 0-0.005 0-0.795 0.662-1.457 1.502-1.457 0.309 0 0.619 0.088 0.838 0.266 2.342 1.59 4.773 2.429 7.248 2.429 2.738 0 4.726-1.413 4.726-3.622v-0.088c0-2.298-2.696-3.181-5.701-4.021-3.578-1.016-7.554-2.253-7.554-6.451v-0.088c0-3.931 3.269-6.539 7.776-6.539 2.429 0 5.080 0.752 7.29 1.944 0.442 0.266 0.838 0.752 0.838 1.414-0.013 0.808-0.67 1.458-1.48 1.458-0.007 0-0.015-0-0.022-0-0.273-0.001-0.531-0.066-0.761-0.18-1.934-1.1-4.011-1.764-5.955-1.764-2.694 0-4.418 1.414-4.418 3.314v0.090c0 2.165 2.827 3.003 5.877 3.931 3.534 1.061 7.333 2.43 7.333 6.539v0.088c0 4.33-3.578 6.848-8.128 6.848-3.005 0-6.32-1.104-8.792-2.872z"></path>
<path fill="#d3385d" d="M102.573 28.899c0-1.104 0.883-1.811 1.989-1.811 1.147 0 2.032 0.707 2.032 1.811v0.574c0 1.061-0.885 1.811-2.032 1.811-1.104 0-1.989-0.752-1.989-1.811v-0.574z"></path>
<path fill="#adb1b4" d="M161.349 0c-0.001 0-0.002 0-0.003 0-3.25 0-6.121 1.626-7.842 4.109-1.745-2.473-4.597-4.093-7.826-4.093-0.001 0-0.002 0-0.002 0-5.273 0-9.548 4.274-9.549 9.547v12.328c0 0.976 0.752 1.728 1.728 1.728 0.974 0 1.683-0.752 1.683-1.728l-0.003-12.654c0-3.388 2.746-6.134 6.134-6.134s6.134 2.746 6.134 6.134l-0.002 11.242v0.006c0 0.942 0.764 1.706 1.706 1.706s1.706-0.764 1.706-1.706l-0.005-11.264c0-3.388 2.746-6.134 6.134-6.134s6.134 2.746 6.134 6.134v12.656c0 0.974 0.752 1.725 1.683 1.725 0.974 0 1.728-0.752 1.728-1.726l0.010-12.312c0-5.437-4.494-9.563-9.549-9.563zM97.584 1.882c0-0.902-0.733-1.635-1.637-1.635h-1.117c-5.584 0-10.111 4.526-10.112 10.11v11.654c0 1.032 0.798 1.827 1.829 1.827 1.032 0 1.782-0.795 1.782-1.827l-0.002-5.371v-6.629c0-3.588 2.908-6.496 6.496-6.496h0.008v0.005h1.115c0.904 0 1.637-0.733 1.637-1.637z"></path>
<path fill="#d3385d" d="M2.565 23.84c-1.417 0-2.565-1.148-2.565-2.565 0-0.001 0-0.002 0-0.003v-18.597c0-1.417 1.149-2.566 2.566-2.566s2.566 1.149 2.566 2.566v18.598c0 1.416-1.149 2.565-2.566 2.565zM33.349 23.618c-1.416 0-2.565-1.148-2.565-2.565v-18.362c0-1.417 1.148-2.565 2.565-2.565s2.565 1.148 2.565 2.565v18.362c0 1.416-1.149 2.565-2.565 2.565zM17.957 31.968c-1.416 0-2.564-1.147-2.565-2.563v-18.365c0-1.416 1.148-2.565 2.565-2.565s2.565 1.148 2.565 2.565v18.363c0 1.416-1.149 2.565-2.565 2.565z"></path>
<path fill="#adb1b4" d="M76.608 12.042c0 5.523-3.757 8.792-8.336 8.792-4.323 0-8.416-3.419-8.554-8.57-0.002-0.093-0.013-0.184-0.013-0.277 0-4.893 3.845-8.859 8.59-8.869 4.477 0.013 8.31 3.456 8.31 8.835v0.088zM68.291 0.090v-0.002c-6.453 0-11.691 5.296-11.842 11.886h-0.016v16.989c0 0.973 0.752 1.723 1.725 1.723 0.971 0 1.678-0.752 1.678-1.723v-9.939c1.766 2.563 4.507 4.861 8.747 4.861 5.523 0 10.912-4.419 10.912-11.885v-0.088c0-7.512-5.488-11.822-11.205-11.821z"></path>
</svg>
<svg id="ic__radio-checked" width="32" height="32" viewBox="0 0 32 32" x="288" y="0">
<path fill="#fff" d="M4.081 4.081h23.84v23.84h-23.84z"></path>
<path fill="#26a5bc" d="M32 16c0 8.837-7.163 16-16 16s-16-7.163-16-16c0-8.837 7.163-16 16-16s16 7.163 16 16z"></path>
<path fill="#fff" d="M24.964 9.509c-0.347-0.347-0.827-0.562-1.357-0.562s-1.010 0.215-1.357 0.562l-8.908 8.908-3.59-3.592c-0.344-0.327-0.81-0.527-1.322-0.527-1.061 0-1.921 0.86-1.921 1.921 0 0.513 0.201 0.979 0.528 1.323l4.946 4.946c0.375 0.376 0.867 0.562 1.358 0.562s0.983-0.187 1.358-0.562l10.267-10.267c0.347-0.347 0.561-0.826 0.561-1.356s-0.215-1.010-0.563-1.357z"></path>
</svg>
<svg id="ic__radio-unchecked" width="32" height="32" viewBox="0 0 32 32" x="336" y="0">
<path fill="#fff" d="M4.079 4.081h23.84v23.84h-23.84z"></path>
<path fill="#bdbec0" d="M31.999 16c0 8.837-7.163 16-16 16s-16-7.163-16-16c0-8.837 7.163-16 16-16s16 7.163 16 16z"></path>
<path fill="#fff" d="M28.878 16c0 7.113-5.766 12.879-12.879 12.879s-12.879-5.766-12.879-12.879c0-7.113 5.766-12.879 12.879-12.879s12.879 5.766 12.879 12.879z"></path>
</svg>
</svg>
