<?xml version="1.0" encoding="UTF-8"?>
<svg width="32px" height="32px" viewBox="0 0 32 32" version="1.1" xmlns="http://www.w3.org/2000/svg" xmlns:xlink="http://www.w3.org/1999/xlink">
    <!-- Generator: Sketch 40.3 (33839) - http://www.bohemiancoding.com/sketch -->
    <title>default_avatar</title>
    <desc>Created with Sketch.</desc>
    <defs></defs>
    <g id="Page-1" stroke="none" stroke-width="1" fill="none" fill-rule="evenodd">
        <g id="chat-list" transform="translate(-90.000000, -160.000000)">
            <g transform="translate(80.000000, 61.000000)" id="Group-13">
                <g transform="translate(0.000000, 87.000000)">
                    <g id="Group-16" transform="translate(10.000000, 12.000000)">
                        <g id="Group-22">
                            <g id="default_avatar2">
                                <g id="unisex">
                                    <path d="M16,30.5671642 C7.96752239,30.5671642 1.43283582,24.0324776 1.43283582,16 C1.43283582,7.96752239 7.96752239,1.43283582 16,1.43283582 C24.0324776,1.43283582 30.5671642,7.96752239 30.5671642,16 C30.5671642,24.0324776 24.0324776,30.5671642 16,30.5671642" id="Fill-1" fill="#FFFFFF"></path>
                                    <path d="M16,30.5671642 C7.96752239,30.5671642 1.43283582,24.0324776 1.43283582,16 C1.43283582,7.96752239 7.96752239,1.43283582 16,1.43283582 C24.0324776,1.43283582 30.5671642,7.96752239 30.5671642,16 C30.5671642,24.0324776 24.0324776,30.5671642 16,30.5671642 M16,0 C7.17755224,0 0,7.17755224 0,16 C0,24.8224478 7.17755224,32 16,32 C24.8224478,32 32,24.8224478 32,16 C32,7.17755224 24.8224478,0 16,0 Z" id="Combined-Shape" fill="#A0A0A0"></path>
                                    <g id="Group-2" transform="translate(7.000000, 5.000000)" fill="#A0A0A0">
                                        <path d="M9,15 C5.46363557,15 2.14431404,16.8249412 0.120075004,19.8828235 C-0.0915866762,20.2028235 -0.0162494679,20.6432941 0.289583723,20.8654118 C0.593623171,21.0865882 1.01246217,21.0084706 1.2259176,20.6884706 C2.99813574,18.0108235 5.90399949,16.4117647 9,16.4117647 C12.0960005,16.4117647 15.0018643,18.0108235 16.7740824,20.6884706 C16.9050256,20.8861176 17.1148936,20.9915294 17.3274521,20.9915294 C17.4601891,20.9915294 17.593823,20.9510588 17.7104163,20.8654118 C18.0162495,20.6432941 18.0915867,20.2028235 17.879925,19.8828235 C15.855686,16.8249412 12.5363644,15 9,15" id="Fill-3"></path>
                                        <path d="M9.5,1.40833049 C11.7561454,1.40833049 13.5916695,3.24385456 13.5916695,5.5 C13.5916695,7.69042335 12.2246501,11.6018266 9.5,11.6018266 C6.77534995,11.6018266 5.40833049,7.69042335 5.40833049,5.5 C5.40833049,3.24385456 7.24385456,1.40833049 9.5,1.40833049 M9.5,13.0101571 C13.089365,13.0101571 15,8.64902697 15,5.5 C15,2.46739502 12.532605,8.8817842e-16 9.5,8.8817842e-16 C6.46739502,8.8817842e-16 4,2.46739502 4,5.5 C4,8.64902697 5.91063503,13.0101571 9.5,13.0101571" id="Fill-5"></path>
                                    </g>
                                </g>
                            </g>
                        </g>
                    </g>
                </g>
            </g>
        </g>
    </g>
</svg>