<svg xmlns="http://www.w3.org/2000/svg" width="19" height="19" viewBox="0 0 19 19"><title>asset_check</title><g fill="#56BACC"><path d="M5 2h9a3 3 0 0 1 3 3v9a3 3 0 0 1-3 3H5a3 3 0 0 1-3-3V5a3 3 0 0 1 3-3z"/><path d="M14 17.25H5A3.254 3.254 0 0 1 1.75 14V5A3.254 3.254 0 0 1 5 1.75h9A3.254 3.254 0 0 1 17.25 5v9A3.254 3.254 0 0 1 14 17.25zm-9-15A2.752 2.752 0 0 0 2.25 5v9A2.752 2.752 0 0 0 5 16.75h9A2.752 2.752 0 0 0 16.75 14V5A2.752 2.752 0 0 0 14 2.25H5z"/></g><path fill="#FFF" d="M8.57 13.75a.75.75 0 0 1-.568-.262l-2.57-3A.75.75 0 0 1 6.57 9.51l1.944 2.27 4.374-6.212a.75.75 0 1 1 1.227.863l-4.93 7a.748.748 0 0 1-.577.32H8.57z"/></svg>