<?xml version="1.0" encoding="UTF-8"?>
<svg width="107px" height="20px" viewBox="0 0 107 20" version="1.1" xmlns="http://www.w3.org/2000/svg" xmlns:xlink="http://www.w3.org/1999/xlink">
    <!-- Generator: sketchtool 40.3 (33839) - http://www.bohemiancoding.com/sketch -->
    <title>5676CCA8-67BC-4BBC-BC13-AF0EBC4AA384</title>
    <desc>Created with sketchtool.</desc>
    <defs></defs>
    <g id="Page-1" stroke="none" stroke-width="1" fill="none" fill-rule="evenodd">
        <g id="chat-list-expand" transform="translate(-19.000000, -25.000000)">
            <g id="Navbar">
                <g id="prism" transform="translate(19.000000, 25.000000)">
                    <path d="M64.3012069,1.28586207 C64.3012069,0.706034483 64.7705172,0.208965517 65.3505172,0.208965517 C65.957931,0.208965517 66.4274138,0.678448276 66.4274138,1.28586207 L66.4274138,13.6842586 C66.4274138,14.2916724 65.9855172,14.7611552 65.3781034,14.7611552 C64.7705172,14.7611552 64.3012069,14.2916724 64.3012069,13.6842586 L64.3012069,1.28586207 Z" id="Fill-1" fill="#D3385D"></path>
                    <path d="M70.5965517,13.1043621 C70.4032759,12.9662586 70.21,12.6900517 70.21,12.3310862 C70.21,11.8340172 70.6243103,11.4198793 71.1487931,11.4198793 C71.3422414,11.4198793 71.5355172,11.4750517 71.6734483,11.585569 C73.137069,12.5797069 74.6556897,13.1043621 76.202069,13.1043621 C77.9141379,13.1043621 79.1567241,12.2207414 79.1567241,10.8400517 L79.1567241,10.7848793 C79.1567241,9.34901724 77.4722414,8.79660345 75.5944828,8.27194828 C73.357931,7.63694828 70.8727586,6.86367241 70.8727586,4.24039655 L70.8727586,4.18522414 C70.8727586,1.72758621 72.9160345,0.0984482759 75.7325862,0.0984482759 C77.2513793,0.0984482759 78.9082759,0.567931034 80.2887931,1.31344828 C80.565,1.47913793 80.8134483,1.78275862 80.8134483,2.19706897 C80.8134483,2.69396552 80.3993103,3.10832759 79.8746552,3.10832759 C79.6813793,3.10832759 79.5156897,3.05298276 79.4051724,2.99781034 C78.1901724,2.30741379 76.8924138,1.89327586 75.6774138,1.89327586 C73.9931034,1.89327586 72.9160345,2.77694828 72.9160345,3.96436207 L72.9160345,4.01953448 C72.9160345,5.37263793 74.6832759,5.8972931 76.5886207,6.47712069 C78.7977586,7.13987931 81.1724138,7.99591379 81.1724138,10.5638448 L81.1724138,10.6191897 C81.1724138,13.3252241 78.9358621,14.8991897 76.0915517,14.8991897 C74.2139655,14.8991897 72.142931,14.2088448 70.5965517,13.1043621" id="Fill-2" fill="#ADB1B4"></path>
                    <path d="M64.107931,18.062069 C64.107931,17.3717241 64.6601724,16.9298276 65.3505172,16.9298276 C66.0684483,16.9298276 66.6208621,17.3717241 66.6208621,18.062069 L66.6208621,18.4210345 C66.6208621,19.0837931 66.0684483,19.5531034 65.3505172,19.5531034 C64.6601724,19.5531034 64.107931,19.0837931 64.107931,18.4210345 L64.107931,18.062069 Z" id="Fill-3" fill="#D3385D"></path>
                    <path d="M100.843448,0 C98.802931,0 97.0034483,1.02568966 95.9272414,2.58810345 C94.8582759,1.03327586 93.08,0.00982758621 91.047069,0.00982758621 C87.7515517,0.00982758621 85.0794828,2.68189655 85.0794828,5.97737931 L85.0794828,13.6822069 C85.0794828,14.2913448 85.5493103,14.7611724 86.1584483,14.7611724 C86.7675862,14.7611724 87.2106897,14.2913448 87.2106897,13.6822069 L87.2094828,5.77341379 C87.2094828,3.65582759 88.9256897,1.93965517 91.0432759,1.93965517 C93.1601724,1.93965517 94.877069,3.65582759 94.877069,5.77341379 L94.8758621,12.7992759 L94.8762069,12.7994483 C94.8762069,12.8006552 94.8758621,12.8016897 94.8758621,12.8027241 C94.8758621,13.3915172 95.3531034,13.8687586 95.9417241,13.8687586 C96.5305172,13.8687586 97.0077586,13.3915172 97.0077586,12.8027241 L97.0051724,5.76375862 C97.0051724,3.64617241 98.7218966,1.93 100.839483,1.93 C102.956552,1.93 104.673276,3.64617241 104.673276,5.76375862 L104.673276,13.6723793 C104.673276,14.2815172 105.143793,14.7513448 105.725,14.7513448 C106.333621,14.7513448 106.804655,14.2815172 106.804655,13.6723793 L106.811207,5.97737931 C106.811207,2.57896552 104.002241,0 100.843448,0" id="Fill-4" fill="#ADB1B4"></path>
                    <path d="M60.9898276,1.1762069 C60.9898276,0.611551724 60.532069,0.153793103 59.9674138,0.153793103 L59.2698276,0.153793103 L59.2687931,0.153793103 C55.7791379,0.153793103 52.9498276,2.98305172 52.9498276,6.4727069 L52.9498276,13.7570172 C52.9498276,14.4020172 53.4477586,14.8992586 54.092069,14.8992586 C54.7372414,14.8992586 55.2060345,14.4020172 55.2060345,13.7570172 L55.2046552,10.4001207 L55.2046552,6.25667241 C55.2046552,4.01512069 57.0224138,2.19741379 59.2641379,2.19741379 C59.2660345,2.19741379 59.267931,2.19758621 59.2698276,2.19758621 L59.2698276,2.19862069 L59.9674138,2.19862069 C60.532069,2.19862069 60.9898276,1.74086207 60.9898276,1.1762069" id="Fill-5" fill="#ADB1B4"></path>
                    <path d="M1.60327586,14.8992241 C0.717931034,14.8992241 0,14.1812931 0,13.2959483 L0,1.67206897 C0,0.786551724 0.717931034,0.0686206897 1.60327586,0.0686206897 C2.48862069,0.0686206897 3.20655172,0.786551724 3.20655172,1.67206897 L3.20655172,13.2959483 C3.20655172,14.1812931 2.48862069,14.8992241 1.60327586,14.8992241" id="Fill-6" fill="#D3385D"></path>
                    <path d="M20.842931,14.7611034 C19.9575862,14.7611034 19.2396552,14.0431724 19.2396552,13.1578276 L19.2396552,1.68155172 C19.2396552,0.796206897 19.9575862,0.0782758621 20.842931,0.0782758621 C21.7282759,0.0782758621 22.4462069,0.796206897 22.4462069,1.68155172 L22.4462069,13.1578276 C22.4462069,14.0431724 21.7282759,14.7611034 20.842931,14.7611034" id="Fill-7" fill="#D3385D"></path>
                    <path d="M11.2231034,19.9808621 C10.3377586,19.9808621 9.61982759,19.262931 9.61982759,18.3775862 L9.61982759,6.90137931 C9.61982759,6.01603448 10.3377586,5.29810345 11.2231034,5.29810345 C12.1084483,5.29810345 12.8263793,6.01603448 12.8263793,6.90137931 L12.8263793,18.3775862 C12.8263793,19.262931 12.1084483,19.9808621 11.2231034,19.9808621" id="Fill-8" fill="#D3385D"></path>
                    <path d="M47.8793103,7.52643103 C47.8793103,10.9779828 45.5318966,13.021431 42.6693103,13.021431 C39.967931,13.021431 37.4106897,10.8843621 37.3243103,7.66453448 L37.3246552,7.66453448 C37.3227586,7.60677586 37.3162069,7.55039655 37.3162069,7.49212069 C37.3162069,4.43401724 39.7189655,1.95482759 42.6846552,1.94913793 C45.4834483,1.95724138 47.8793103,4.10867241 47.8793103,7.47108621 L47.8793103,7.52643103 Z M42.6825862,0.0560344828 L42.6825862,0.055 C38.6496552,0.055 35.3760345,3.36556897 35.2815517,7.48384483 L35.2727586,7.48384483 L35.2727586,18.1022931 C35.2727586,18.7098793 35.7422414,19.1791897 36.3496552,19.1791897 C36.9572414,19.1791897 37.3989655,18.7098793 37.3989655,18.1022931 L37.3989655,11.8893621 C38.5034483,13.4909138 40.2155172,14.9267759 42.8663793,14.9267759 C46.3181034,14.9267759 49.6868966,12.1653966 49.6868966,7.49884483 L49.6868966,7.4435 C49.6868966,2.74936207 46.2558621,0.055 42.6825862,0.0560344828 L42.6825862,0.0560344828 Z" id="Fill-9" fill="#ADB1B4"></path>
                </g>
            </g>
        </g>
    </g>
</svg>