<?xml version="1.0" standalone="no"?>
<!DOCTYPE svg PUBLIC "-//W3C//DTD SVG 1.1//EN" "http://www.w3.org/Graphics/SVG/1.1/DTD/svg11.dtd" >
<svg xmlns="http://www.w3.org/2000/svg">
<metadata>
Created by FontPrep 20130207 at Thu Mar 24 13:36:29 2016
 By Ryan Riatno
Copyright A^(c) 2004 - 2007 Linotype GmbH, www.linotype.com. All rights reserved.
</metadata>
<defs>
<font id="fa20c367c6a148cda65f50238befb5f2" horiz-adv-x='1024' >
  <font-face 
    font-family="AvenirNextLTPro-Regular"
    font-weight="400"
    font-stretch="normal"
    units-per-em="2048"
    panose-1="0 0 0 0 0 0 0 0 0 0"
    ascent="1638"
    descent="-410"
    x-height="958"
    cap-height="1450"
    bbox="-807 -842 2681 2441"
    underline-thickness="102"
    underline-position="-102"
    unicode-range="U+000D-FE48"
  />
<missing-glyph horiz-adv-x="1048" 
d="M569 240h-114v137h114v-137zM555 479h-94l-4 35q1 114 31 174t90 113q61 59 81 95q21 36 21 92t-46 107q-46 50 -110 50q-145 0 -168 -195l-102 17q12 141 86 211t188 70t186 -74q71 -74 70 -195q0 -70 -26 -123t-103 -122q-76 -69 -88 -109t-12 -146zM102 102h844v1264
h-844v-1264zM0 1470h1049v-1470h-1049v1470z" />
    <glyph glyph-name=".notdef" horiz-adv-x="1048" 
d="M569 240h-114v137h114v-137zM555 479h-94l-4 35q1 114 31 174t90 113q61 59 81 95q21 36 21 92t-46 107q-46 50 -110 50q-145 0 -168 -195l-102 17q12 141 86 211t188 70t186 -74q71 -74 70 -195q0 -70 -26 -123t-103 -122q-76 -69 -88 -109t-12 -146zM102 102h844v1264
h-844v-1264zM0 1470h1049v-1470h-1049v1470z" />
    <glyph glyph-name=".null" horiz-adv-x="1024" 
 />
    <glyph glyph-name=".null" horiz-adv-x="1024" 
 />
    <glyph glyph-name="nonmarkingreturn" horiz-adv-x="681" 
 />
    <glyph glyph-name="CR" unicode="&#xd;" horiz-adv-x="0" 
 />
    <glyph glyph-name="space" unicode=" " horiz-adv-x="512" 
 />
    <glyph glyph-name="exclam" unicode="!" horiz-adv-x="671" 
d="M410 1450v-1057h-148v1057h148zM446 98q0 -45 -32 -78q-32 -32 -78 -32q-47 0 -79 32t-32 78q0 45 32 78t79 33q46 0 78 -33t32 -78z" />
    <glyph glyph-name="quotedbl" unicode="&#x22;" horiz-adv-x="829" 
d="M205 969v481h123v-481h-123zM502 969v481h123v-481h-123z" />
    <glyph glyph-name="numbersign" unicode="#" horiz-adv-x="1138" 
d="M72 438v123h225l45 332h-221v123h239l60 434h125l-60 -434h273l59 434h125l-59 -434h184v-123h-203l-45 -332h195v-123h-211l-62 -438h-125l62 438h-272l-62 -438h-125l62 438h-209zM467 893l-45 -332h272l45 332h-272z" />
    <glyph glyph-name="dollar" unicode="$" horiz-adv-x="1187" 
d="M539 831v529q-109 -4 -182 -76t-72 -186q0 -199 254 -267zM905 373q0 100 -72 173q-73 72 -196 111v-563q109 6 189 73t79 206zM539 94v588q-163 51 -267 128q-129 97 -129 272q0 176 114 280t282 113v147h98v-147q248 -12 379 -166l-113 -86q-94 133 -266 137v-563
q93 -33 155 -63q173 -83 227 -203q34 -73 34 -169q0 -170 -118 -276t-298 -111v-147h-98v147q-268 8 -433 218l117 81q47 -84 145 -132t171 -48z" />
    <glyph glyph-name="percent" unicode="%" horiz-adv-x="1705" 
d="M799 1116q-1 -152 -105 -255t-256 -103t-256 103t-104 255t104 255t256 103t256 -102q104 -104 105 -256zM676 1116q0 100 -70 168t-168 68t-168 -68t-70 -168t70 -168t168 -68t168 68t70 168zM1628 334q0 -152 -104 -255t-256 -103t-256 102q-104 104 -105 256
q1 152 105 255t256 103t256 -103t104 -255zM1505 334q0 100 -69 168q-70 68 -168 68t-168 -68t-70 -168t70 -168t168 -68t168 68q69 68 69 168zM1366 1458l-922 -1521l-106 55l924 1521z" />
    <glyph glyph-name="ampersand" unicode="&#x26;" horiz-adv-x="1441" 
d="M100 377q0 285 336 430q-176 176 -176 337t104 252t255 91t251 -88q100 -89 100 -229t-87 -227q-88 -87 -238 -163l338 -348l201 352h166l-267 -448l326 -336h-205l-205 215q-92 -125 -196 -182t-250 -58q-195 1 -324 107t-129 295zM827 1156q0 94 -58 152t-151 58
q-94 0 -154 -60t-60 -148t52 -168q52 -81 105 -122q121 55 194 124q72 69 72 164zM549 98q121 0 201 51t151 162l-383 402q-133 -61 -200 -143q-66 -82 -66 -198q0 -118 88 -196t209 -78z" />
    <glyph glyph-name="quotesingle" unicode="'" horiz-adv-x="532" 
d="M205 969v481h123v-481h-123z" />
    <glyph glyph-name="parenleft" unicode="(" horiz-adv-x="614" 
d="M201 590q-1 -228 73 -454t197 -394l-106 -68q-135 178 -218 420q-82 242 -81 496q0 254 82 496t217 419l106 -67q-123 -168 -197 -394t-73 -454z" />
    <glyph glyph-name="parenright" unicode=")" horiz-adv-x="614" 
d="M414 590q0 227 -75 449t-196 399l107 67q135 -182 217 -422q82 -239 82 -493t-82 -494t-217 -422l-107 68q121 176 196 398t75 450z" />
    <glyph glyph-name="asterisk" unicode="*" horiz-adv-x="909" 
d="M516 1450v-293l287 92l43 -114l-289 -93l184 -247l-98 -74l-188 254l-189 -254l-98 74l184 247l-289 93l43 114l287 -92v293h123z" />
    <glyph glyph-name="plus" unicode="+" horiz-adv-x="1363" 
d="M743 1143v-461h461v-123h-461v-461h-122v461h-461v123h461v461h122z" />
    <glyph glyph-name="comma" unicode="," horiz-adv-x="532" 
d="M375 195l-166 -482h-117l137 482h146z" />
    <glyph glyph-name="hyphen" unicode="-" horiz-adv-x="655" 
d="M557 555v-117h-459v117h459z" />
    <glyph glyph-name="period" unicode="." horiz-adv-x="532" 
d="M377 98q0 -45 -32 -78q-32 -32 -79 -32t-79 32t-31 78q0 45 31 78q32 33 79 33t79 -33t32 -78z" />
    <glyph glyph-name="slash" unicode="/" horiz-adv-x="757" 
d="M748 1446l-619 -1483l-119 39l621 1485z" />
    <glyph glyph-name="zero" unicode="0" horiz-adv-x="1187" 
d="M593 1487q130 0 226 -65q169 -114 225 -420q25 -130 25 -280q0 -299 -101 -518q-52 -112 -148 -176t-227 -65q-130 0 -226 65q-168 114 -225 415q-24 128 -23 280q0 152 23 281q90 483 451 483zM593 1362q-250 0 -309 -416q-52 -360 50 -646q35 -97 101 -154
q67 -56 158 -56q248 0 310 411q16 105 17 222q0 237 -68 427q-35 97 -101 155q-67 57 -158 57z" />
    <glyph glyph-name="one" unicode="1" horiz-adv-x="1187" 
d="M733 1450v-1450h-147v1268l-262 -224l-91 103l369 303h131z" />
    <glyph glyph-name="two" unicode="2" horiz-adv-x="1187" 
d="M1032 131v-131h-928v154l594 600q174 174 174 331q0 125 -82 201q-83 76 -201 76t-198 -72t-104 -186l-146 29q29 156 153 255t300 99q176 1 302 -105t126 -295q0 -127 -60 -225t-176 -213l-522 -518h768z" />
    <glyph glyph-name="three" unicode="3" horiz-adv-x="1187" 
d="M438 696v127h64q152 0 244 65t94 194q0 128 -84 204t-203 76q-190 0 -277 -170l-124 65q133 229 409 230q180 1 302 -103t122 -286q0 -125 -70 -213t-182 -119v-4q129 -27 211 -122t82 -239q0 -201 -135 -319t-313 -119q-349 0 -478 297l140 51q37 -104 122 -163
q86 -58 207 -58t215 85t94 233t-108 218q-109 71 -268 70h-64z" />
    <glyph glyph-name="four" unicode="4" horiz-adv-x="1187" 
d="M893 1450v-971h213v-129h-213v-350h-143v350h-664v144l614 956h193zM750 479v805h-5l-505 -805h510z" />
    <glyph glyph-name="five" unicode="5" horiz-adv-x="1187" 
d="M973 1450v-131h-604l-11 -449q92 33 201 33q205 0 338 -127q133 -126 133 -332t-134 -344t-347 -137q-303 0 -434 264l133 60q39 -89 118 -143t175 -54q147 0 243 97t96 251t-102 249t-256 95t-303 -80l14 748h740z" />
    <glyph glyph-name="six" unicode="6" horiz-adv-x="1187" 
d="M623 866q190 0 316 -125t126 -323t-133 -327q-133 -128 -338 -128t-338 128q-133 129 -133 319t131 403l395 637h170l-407 -633l4 -4q70 53 207 53zM270 420q0 -144 91 -238t233 -94t232 94q92 94 92 238t-88 235q-88 93 -236 93t-236 -92t-88 -236z" />
    <glyph glyph-name="seven" unicode="7" horiz-adv-x="1187" 
d="M1020 1450v-135l-584 -1315h-166l600 1319h-710v131h860z" />
    <glyph glyph-name="eight" unicode="8" horiz-adv-x="1187" 
d="M1059 381q0 -184 -136 -301t-329 -117t-329 117t-136 301q0 143 76 245t198 142v4q-96 33 -157 124t-62 204q0 172 120 280t290 107q170 0 290 -108t120 -279q0 -113 -62 -204t-158 -124v-4q121 -37 198 -140t77 -247zM594 831q114 0 190 74t76 189q0 116 -76 192
t-190 76t-190 -76t-76 -192q0 -115 76 -189t190 -74zM594 700q-142 0 -230 -86t-88 -218t88 -220t230 -88q141 0 229 88t88 220t-88 218t-229 86z" />
    <glyph glyph-name="nine" unicode="9" horiz-adv-x="1187" 
d="M569 584q-190 0 -316 125t-126 323t133 327q133 128 338 128t338 -128q133 -129 133 -319t-131 -403l-395 -637h-170l407 633l-4 4q-70 -53 -207 -53zM922 1030q0 144 -92 238t-232 94q-141 0 -232 -94q-92 -94 -92 -238t88 -235q88 -93 236 -93t236 92t88 236z" />
    <glyph glyph-name="colon" unicode=":" horiz-adv-x="614" 
d="M418 860q0 -45 -32 -78q-32 -32 -79 -32t-79 32t-31 78q0 45 31 78q32 33 79 33t79 -33t32 -78zM418 98q0 -45 -32 -78q-32 -32 -79 -32t-79 32t-31 78q0 45 31 78q32 33 79 33t79 -33t32 -78z" />
    <glyph glyph-name="semicolon" unicode=";" horiz-adv-x="614" 
d="M418 860q0 -45 -32 -78q-32 -32 -79 -32t-79 32t-31 78q0 45 31 78q32 33 79 33t79 -33t32 -78zM408 195l-166 -482h-123l137 482h152z" />
    <glyph glyph-name="less" unicode="&#x3c;" horiz-adv-x="1363" 
d="M1204 1155v-123l-878 -411l878 -412v-123l-1044 487v95z" />
    <glyph glyph-name="equal" unicode="=" horiz-adv-x="1363" 
d="M160 836h1044v-123h-1044v123zM160 528h1044v-122h-1044v122z" />
    <glyph glyph-name="greater" unicode="&#x3e;" horiz-adv-x="1363" 
d="M160 1032v123l1044 -487v-95l-1044 -487v123l878 412z" />
    <glyph glyph-name="question" unicode="?" horiz-adv-x="987" 
d="M561 487v-94h-143v123q0 74 26 135q27 61 56 95t82 81l57 52q119 104 119 221q0 116 -74 182t-182 66t-178 -66q-68 -66 -86 -174l-140 25q31 161 141 251q111 90 275 90t278 -96t113 -264q1 -84 -27 -150t-62 -100t-112 -100t-111 -120q-32 -54 -32 -157zM614 98
q0 -45 -32 -78q-32 -32 -78 -32q-47 0 -79 32t-32 78q0 45 32 78t79 33q46 0 78 -33t32 -78z" />
    <glyph glyph-name="at" unicode="@" horiz-adv-x="1638" 
d="M844 1001q-115 1 -184 -107t-68 -237q0 -79 38 -145t126 -66q126 0 192 111t66 217q0 226 -170 227zM854 -37q-350 0 -566 212t-216 542t228 550t554 220q289 0 502 -163q102 -79 162 -207t61 -288q0 -237 -115 -369t-282 -132q-88 0 -133 43t-45 106h-9
q-25 -53 -95 -101t-161 -48q-137 0 -217 94t-80 260t114 304t294 138q76 0 132 -34t81 -89h8l21 93h127l-82 -381q-23 -102 -23 -164q0 -102 100 -103q100 0 164 106t64 263q0 257 -163 401t-435 144t-445 -182q-174 -182 -174 -466t177 -455t466 -171q334 0 553 215l76 -94
q-242 -244 -643 -244z" />
    <glyph glyph-name="A" unicode="A" horiz-adv-x="1433" 
d="M340 381l-158 -381h-162l627 1450h144l622 -1450h-164l-159 381h-750zM715 1286l-320 -770h639z" />
    <glyph glyph-name="B" unicode="B" horiz-adv-x="1302" 
d="M193 0v1450h432q185 0 315 -77q152 -87 152 -299q0 -110 -70 -194t-186 -112v-4q145 -18 236 -112t91 -264q0 -168 -145 -278t-395 -110h-430zM340 1323v-508h297q125 -1 216 61t91 193t-96 193t-252 61h-256zM340 694v-567h274q174 0 287 70t113 212t-96 214t-277 71
h-301z" />
    <glyph glyph-name="C" unicode="C" horiz-adv-x="1474" 
d="M870 -37q-328 0 -542 216t-213 546q0 330 215 546t540 216q162 -1 304 -63t212 -167l-122 -90q-50 79 -156 135t-236 56q-272 0 -437 -184t-165 -448t166 -448q166 -186 442 -186t420 215l115 -74q-80 -121 -218 -195t-325 -75z" />
    <glyph glyph-name="D" unicode="D" horiz-adv-x="1550" 
d="M193 0v1450h481q288 0 516 -179q110 -87 178 -229t68 -317q0 -174 -68 -316q-125 -260 -422 -363q-133 -46 -272 -46h-481zM340 1319v-1188h293q157 0 283 50q232 92 323 325q41 104 41 219q0 233 -160 409q-78 85 -204 135t-283 50h-293z" />
    <glyph glyph-name="E" unicode="E" horiz-adv-x="1212" 
d="M340 690v-559h776v-131h-923v1450h899v-131h-752v-500h702v-129h-702z" />
    <glyph glyph-name="F" unicode="F" horiz-adv-x="1150" 
d="M340 686v-686h-147v1450h874v-131h-727v-504h676v-129h-676z" />
    <glyph glyph-name="G" unicode="G" horiz-adv-x="1595" 
d="M868 1358q-266 0 -432 -186t-166 -447q0 -262 166 -446q166 -185 425 -185t403 94v441h-338v129h485v-654q-231 -141 -550 -141t-533 216t-213 546q0 330 215 546q214 216 542 216t523 -195l-103 -102q-158 168 -424 168z" />
    <glyph glyph-name="H" unicode="H" horiz-adv-x="1470" 
d="M193 0v1450h147v-629h790v629h148v-1450h-148v686h-790v-686h-147z" />
    <glyph glyph-name="I" unicode="I" horiz-adv-x="532" 
d="M340 1450v-1450h-147v1450h147z" />
    <glyph glyph-name="J" unicode="J" horiz-adv-x="1007" 
d="M424 92q256 0 256 336v1022h147v-1032q0 -169 -72 -297q-89 -158 -337 -158q-134 0 -237 81t-130 214l137 37q18 -91 80 -147t156 -56z" />
    <glyph glyph-name="K" unicode="K" horiz-adv-x="1286" 
d="M340 1450v-651h2l690 651h211l-731 -657l772 -793h-217l-725 772h-2v-772h-147v1450h147z" />
    <glyph glyph-name="L" unicode="L" horiz-adv-x="1044" 
d="M340 1450v-1319h676v-131h-823v1450h147z" />
    <glyph glyph-name="M" unicode="M" horiz-adv-x="1814" 
d="M1622 1450v-1450h-147v1260h-5l-524 -1260h-78l-524 1260h-4v-1260h-147v1450h225l491 -1200h2l486 1200h225z" />
    <glyph glyph-name="N" unicode="N" horiz-adv-x="1564" 
d="M1225 215v1235h147v-1450h-184l-844 1247h-4v-1247h-147v1450h184l844 -1235h4z" />
    <glyph glyph-name="O" unicode="O" horiz-adv-x="1740" 
d="M1626 725q0 -330 -215 -546t-541 -216t-540 216t-215 546q0 330 215 546q214 216 540 216t541 -216t215 -546zM1470 725q0 264 -164 449q-166 184 -436 184t-435 -184t-165 -448t165 -448t435 -184t435 184t165 447z" />
    <glyph glyph-name="P" unicode="P" horiz-adv-x="1187" 
d="M193 0v1450h409q226 0 358 -98t132 -288t-134 -290t-360 -100h-258v-674h-147zM340 1323v-524h250q174 -1 264 67t90 197q0 260 -354 260h-250z" />
    <glyph glyph-name="Q" unicode="Q" horiz-adv-x="1726" 
d="M270 743q0 -254 159 -434t418 -180t420 180t160 434q0 254 -160 435q-161 180 -420 180t-418 -180t-159 -435zM1677 131v-131h-829q-315 0 -524 210t-209 534t209 533q209 210 524 210t523 -210t208 -534q0 -197 -86 -355t-254 -253v-4h438z" />
    <glyph glyph-name="R" unicode="R" horiz-adv-x="1226" 
d="M340 678v-678h-147v1450h425q496 0 496 -387q0 -158 -103 -256t-268 -117l424 -690h-180l-401 678h-246zM340 1323v-518h256q371 0 371 259t-365 259h-262z" />
    <glyph glyph-name="S" unicode="S" horiz-adv-x="1155" 
d="M596 1362q-121 0 -215 -72t-94 -186t61 -178q23 -25 75 -52q52 -26 82 -36q283 -90 366 -146t107 -103q54 -100 54 -208q0 -203 -141 -311t-332 -107q-137 0 -259 55t-198 160l127 94q111 -182 332 -182q123 0 222 75t99 204t-82 191q-34 26 -69 47t-162 62
q-127 39 -184 65q-162 72 -214 189q-32 71 -32 184t73 207q135 174 390 173q139 0 246 -49t164 -127l-117 -94q-104 145 -299 145z" />
    <glyph glyph-name="T" unicode="T" horiz-adv-x="1167" 
d="M657 1319v-1319h-147v1319h-485v131h1118v-131h-486z" />
    <glyph glyph-name="U" unicode="U" horiz-adv-x="1454" 
d="M727 -37q-155 0 -267 55q-112 56 -168 146q-108 175 -108 377v909h148v-893q0 -197 95 -330t300 -133t300 133t95 330v893h148v-909q0 -203 -108 -377q-56 -90 -168 -146t-267 -55z" />
    <glyph glyph-name="V" unicode="V" horiz-adv-x="1275" 
d="M166 1450l471 -1260h4l471 1260h158l-555 -1450h-156l-553 1450h160z" />
    <glyph glyph-name="W" unicode="W" horiz-adv-x="1990" 
d="M184 1450l359 -1247h4l362 1247h176l363 -1247h4l354 1247h156l-428 -1450h-172l-365 1245h-4l-364 -1245h-172l-428 1450h155z" />
    <glyph glyph-name="X" unicode="X" horiz-adv-x="1329" 
d="M270 1450l398 -586l395 586h176l-481 -690l532 -760h-184l-442 653l-441 -653h-184l532 762l-485 688h184z" />
    <glyph glyph-name="Y" unicode="Y" horiz-adv-x="1232" 
d="M690 0h-147v625l-543 825h184l437 -702l440 702h172l-543 -825v-625z" />
    <glyph glyph-name="Z" unicode="Z" 
d="M1096 1450v-123l-846 -1196h858v-131h-1045v123l848 1196h-825v131h1010z" />
    <glyph glyph-name="bracketleft" unicode="[" horiz-adv-x="614" 
d="M451 1499v-110h-197v-1598h197v-110h-332v1818h332z" />
    <glyph glyph-name="backslash" unicode="\" horiz-adv-x="757" 
d="M629 -37l-619 1483l117 41l621 -1485z" />
    <glyph glyph-name="bracketright" unicode="]" horiz-adv-x="614" 
d="M164 -319v110h196v1598h-196v110h332v-1818h-332z" />
    <glyph glyph-name="asciicircum" unicode="^" horiz-adv-x="1363" 
d="M164 563l469 887h98l469 -887h-127l-391 740l-391 -740h-127z" />
    <glyph glyph-name="underscore" unicode="_" horiz-adv-x="1024" 
d="M0 -256v102h1024v-102h-1024z" />
    <glyph glyph-name="grave" unicode="`" horiz-adv-x="491" 
d="M250 1155l-270 295h186l205 -295h-121z" />
    <glyph glyph-name="a" unicode="a" horiz-adv-x="1093" 
d="M788 588v30q0 248 -256 248q-172 0 -284 -112l-78 92q137 137 377 137q164 0 268 -89t105 -259v-420q0 -127 16 -215h-125q-14 82 -14 156h-4q-66 -96 -148 -138t-206 -43q-124 0 -225 73t-101 218t99 216t242 88q142 18 334 18zM788 479h-40q-492 0 -492 -207
q0 -94 66 -138t159 -44q141 0 225 92q83 92 82 226v71z" />
    <glyph glyph-name="b" unicode="b" horiz-adv-x="1304" 
d="M328 162v-162h-140v1548h140v-755h4q59 92 156 141t206 49q220 0 358 -143q138 -142 138 -360t-137 -361t-359 -144q-109 1 -206 49t-156 138h-4zM1042 479q0 166 -98 277q-98 110 -261 110t-267 -110t-104 -277q0 -165 104 -275t268 -110t261 110t97 275z" />
    <glyph glyph-name="c" unicode="c" horiz-adv-x="1024" 
d="M629 866q-164 0 -265 -110q-102 -110 -102 -276t100 -276t266 -110t259 125l104 -78q-135 -166 -364 -166q-229 1 -371 143t-141 361q0 219 141 361t371 143q101 0 199 -44t157 -122l-109 -78q-38 57 -104 92t-141 35z" />
    <glyph glyph-name="d" unicode="d" horiz-adv-x="1304" 
d="M977 162h-4q-59 -90 -157 -138t-206 -49q-221 -1 -358 143t-137 361t137 361t358 143q109 0 206 -49t157 -141h4v755h139v-1548h-139v162zM262 479q0 -165 97 -275t261 -110t269 110q104 110 104 276t-104 276t-267 110t-262 -110q-98 -111 -98 -277z" />
    <glyph glyph-name="e" unicode="e" 
d="M602 866q-140 0 -236 -93t-104 -220h653q-6 139 -89 226t-224 87zM1057 508q0 -41 -2 -66h-795q4 -145 104 -246t246 -102q102 0 182 47t126 119l104 -82q-160 -203 -412 -203q-213 -1 -354 143t-141 360t139 360t350 145q211 0 332 -135t121 -340z" />
    <glyph glyph-name="f" unicode="f" horiz-adv-x="604" 
d="M590 958v-116h-225v-842h-140v842h-200v116h200v263q0 168 82 260t244 92q66 0 115 -14l-25 -123q-53 14 -96 14q-105 0 -143 -64t-37 -182v-246h225z" />
    <glyph glyph-name="g" unicode="g" horiz-adv-x="1294" 
d="M977 8v180h-4q-53 -88 -153 -138t-210 -50q-221 0 -358 137t-137 348t138 355t357 143q109 0 208 -50t155 -140h4v165h139v-950q0 -148 -62 -265q-36 -69 -91 -119t-151 -83t-216 -33q-279 0 -461 193l101 106q59 -75 159 -125t207 -51q193 1 284 105t91 272zM262 492
q0 -158 98 -266t262 -108t268 104q103 104 103 264t-105 270t-267 110q-163 0 -261 -108t-98 -266z" />
    <glyph glyph-name="h" unicode="h" horiz-adv-x="1193" 
d="M328 801h4q37 84 127 133t194 49q177 0 271 -106t94 -289v-588h-139v530q-1 164 -59 250t-190 86t-218 -97q-84 -97 -84 -277v-492h-140v1548h140v-747z" />
    <glyph glyph-name="i" unicode="i" horiz-adv-x="512" 
d="M326 958v-958h-140v958h140zM354 1327q0 -41 -30 -70t-68 -29q-39 0 -69 30q-30 28 -29 69q0 41 29 70q30 29 69 29t69 -29q29 -29 29 -70z" />
    <glyph glyph-name="j" unicode="j" horiz-adv-x="514" 
d="M188 958h140v-1148q0 -301 -273 -302q-61 1 -110 15l20 117q41 -12 105 -12t91 50q28 51 27 154v1126zM356 1327q0 -41 -30 -70t-68 -29q-39 0 -69 30q-30 28 -29 69q0 41 29 70q30 29 69 29t69 -29q29 -29 29 -70z" />
    <glyph glyph-name="k" unicode="k" horiz-adv-x="1044" 
d="M328 1548v-1022h6l442 432h201l-483 -438l532 -520h-205l-487 504h-6v-504h-140v1548h140z" />
    <glyph glyph-name="l" unicode="l" horiz-adv-x="516" 
d="M328 1548v-1548h-140v1548h140z" />
    <glyph glyph-name="m" unicode="m" horiz-adv-x="1808" 
d="M317 795h5q41 86 127 137t188 51q213 0 295 -203q100 203 336 203q178 0 271 -106t93 -289v-588h-139v530q0 336 -248 336q-141 0 -207 -102t-65 -254v-510h-139v559q0 154 -50 231q-50 76 -172 76q-120 0 -204 -97t-84 -277v-492h-140v748q0 123 -8 210h133
q8 -67 8 -163z" />
    <glyph glyph-name="n" unicode="n" horiz-adv-x="1189" 
d="M317 795h5q41 84 132 136t195 52q177 0 271 -106t94 -289v-588h-140v530q0 164 -58 250t-190 86t-218 -97q-84 -97 -84 -277v-492h-140v748q0 122 -8 210h133q8 -68 8 -163z" />
    <glyph glyph-name="o" unicode="o" horiz-adv-x="1251" 
d="M1137 479q1 -217 -143 -360t-367 -143t-367 142q-144 144 -145 361q0 217 144 361q143 144 367 143q224 1 368 -143t143 -361zM262 479q0 -165 100 -275t264 -110t263 110q100 110 100 274q0 165 -100 277q-100 111 -263 111t-264 -111q-100 -112 -100 -276z" />
    <glyph glyph-name="p" unicode="p" horiz-adv-x="1300" 
d="M324 162v-654h-140v1450h140v-165h6q57 90 155 140t205 50q220 0 358 -143q138 -142 138 -360t-137 -361t-359 -144q-106 -1 -204 49t-156 138h-6zM1038 479q0 166 -98 277q-98 110 -261 110t-267 -110t-104 -277q0 -165 104 -275t268 -110t261 110t97 275z" />
    <glyph glyph-name="q" unicode="q" horiz-adv-x="1300" 
d="M977 162h-6q-59 -88 -157 -137t-204 -50q-221 -1 -358 143t-137 361t137 361t358 143q106 0 204 -50t157 -140h6v165h139v-1450h-139v654zM262 479q0 -165 97 -275t261 -110t269 110q104 110 104 276t-104 276t-267 110t-262 -110q-98 -111 -98 -277z" />
    <glyph glyph-name="r" unicode="r" horiz-adv-x="737" 
d="M184 0v748q0 123 -8 210h133q8 -68 8 -163h5q43 86 124 137q82 51 183 51q53 0 92 -10l-19 -131q-33 12 -98 12q-121 0 -201 -91t-79 -271v-492h-140z" />
    <glyph glyph-name="s" unicode="s" horiz-adv-x="909" 
d="M456 866q-80 0 -140 -38t-60 -108t53 -106t201 -66q308 -62 307 -276q0 -152 -105 -224t-255 -73q-252 0 -379 187l110 82q39 -66 111 -108t164 -42t154 40q63 40 63 120t-67 119t-168 62t-140 37t-86 44q-98 60 -97 193t100 203t222 71q122 0 216 -46t141 -126l-107 -80
q-31 61 -94 98t-144 37z" />
    <glyph glyph-name="t" unicode="t" horiz-adv-x="649" 
d="M616 958v-116h-270v-559q0 -101 37 -139t99 -38t128 31l6 -121q-76 -28 -168 -28t-167 57q-74 57 -74 199v598h-199v116h199v271h139v-271h270z" />
    <glyph glyph-name="u" unicode="u" horiz-adv-x="1189" 
d="M176 371v587h139v-530q1 -164 59 -250t190 -86t217 97t85 278v491h140v-747q0 -123 8 -211h-133q-8 68 -9 164h-4q-41 -84 -132 -136t-195 -53q-177 1 -271 107t-94 289z" />
    <glyph glyph-name="v" unicode="v" horiz-adv-x="999" 
d="M967 958l-389 -958h-154l-391 958h155l312 -811h4l313 811h150z" />
    <glyph glyph-name="w" unicode="w" horiz-adv-x="1527" 
d="M53 958h150l231 -778h4l258 778h135l263 -778h4l229 778h148l-304 -958h-151l-256 776h-4l-252 -776h-152z" />
    <glyph glyph-name="x" unicode="x" horiz-adv-x="991" 
d="M33 0l377 496l-355 462h178l263 -364l262 364h168l-348 -456l380 -502h-180l-284 399l-293 -399h-168z" />
    <glyph glyph-name="y" unicode="y" horiz-adv-x="999" 
d="M188 958l326 -808h4l297 808h152l-478 -1206q-47 -121 -115 -182t-186 -62q-63 0 -125 13l15 127q145 -44 213 24q41 41 74 129l77 201l-409 956h155z" />
    <glyph glyph-name="z" unicode="z" horiz-adv-x="905" 
d="M821 958v-98l-573 -739h594v-121h-779v98l572 744h-543v116h729z" />
    <glyph glyph-name="braceleft" unicode="{" horiz-adv-x="614" 
d="M0 528v123q162 0 162 228v364q0 133 62 195t159 61h129v-110h-98q-117 0 -117 -170v-365q0 -129 -61 -191t-121 -71v-4q59 -8 121 -70t61 -192v-365q0 -170 117 -170h98v-110h-129q-96 0 -159 61q-62 61 -62 195v364q0 227 -162 227z" />
    <glyph glyph-name="bar" unicode="|" horiz-adv-x="454" 
d="M166 1536h123v-2048h-123v2048z" />
    <glyph glyph-name="braceright" unicode="}" horiz-adv-x="614" 
d="M614 651v-123q-162 0 -161 -227v-364q-1 -133 -63 -195t-159 -61h-129v110h99q117 0 116 170v365q-1 129 61 191t122 71v4q-58 8 -120 70t-63 192v365q0 170 -116 170h-99v110h129q97 0 159 -61t63 -195v-364q-1 -228 161 -228z" />
    <glyph glyph-name="asciitilde" unicode="~" horiz-adv-x="1363" 
d="M465 637q-109 0 -197 -150l-86 82q129 190 279 191q117 0 237 -78t199 -78q105 0 199 150l86 -82q-119 -190 -279 -191q-113 0 -237 78t-201 78z" />
    <glyph glyph-name="uni00A0" unicode="&#xa0;" horiz-adv-x="512" 
 />
    <glyph glyph-name="exclamdown" unicode="&#xa1;" horiz-adv-x="671" 
d="M410 588v-1057h-148v1057h148zM446 883q0 -45 -32 -78t-78 -33q-47 0 -79 33t-32 78t32 78t79 33t79 -33q31 -33 31 -78z" />
    <glyph glyph-name="cent" unicode="&#xa2;" horiz-adv-x="1187" 
d="M610 104v750q-129 -25 -206 -127q-76 -101 -76 -247t76 -249q77 -102 206 -127zM709 -147h-99v129q-198 20 -314 158t-116 339t117 339t313 159v129h99v-125q201 -10 329 -164l-110 -84q-33 51 -90 86t-129 39v-758q72 4 129 39t90 86l110 -84q-129 -154 -329 -164v-124z
" />
    <glyph glyph-name="sterling" unicode="&#xa3;" horiz-adv-x="1187" 
d="M854 809v-123h-344v-563h537v-123h-893v123h208v563h-196v123h196v190q0 190 94 331q48 73 135 115t206 42q203 0 317 -123l-96 -104q-90 102 -227 102q-70 0 -123 -27t-82 -65q-76 -98 -76 -283v-178h344z" />
    <glyph glyph-name="currency" unicode="&#xa4;" horiz-adv-x="1187" 
d="M1079 581q0 -181 -102 -307l176 -176l-80 -82l-180 179q-129 -97 -297 -97t-295 101l-182 -183l-82 82l180 183q-98 117 -98 295t92 303l-174 174l82 80l174 -172q133 102 307 102t299 -102l172 172l82 -80l-170 -170q96 -121 96 -302zM940 582q0 150 -95 252t-248 102
t-247 -102t-94 -252t94 -252t247 -102t248 102t95 252z" />
    <glyph glyph-name="yen" unicode="&#xa5;" horiz-adv-x="1187" 
d="M186 457h338v215h-338v110h297l-463 668h183l395 -614l393 614h176l-458 -668h292v-110h-337v-215h337v-111h-337v-346h-140v346h-338v111z" />
    <glyph glyph-name="brokenbar" unicode="&#xa6;" horiz-adv-x="454" 
d="M166 1382h123v-716h-123v716zM166 358h123v-716h-123v716z" />
    <glyph glyph-name="section" unicode="&#xa7;" horiz-adv-x="1187" 
d="M629 1364q-101 0 -161 -49t-60 -137t55 -131q55 -44 145 -86l178 -84q211 -102 211 -291q0 -98 -51 -168t-131 -101q145 -86 145 -252q0 -165 -111 -251q-113 -86 -265 -86t-260 59t-154 176l135 66q66 -178 270 -179q90 0 164 48t74 160q0 114 -154 190l-260 125
q-92 45 -143 107t-51 164t58 173q58 70 155 101q-43 28 -71 50q-27 22 -57 76t-30 119q0 156 108 240t251 84q143 -1 231 -55t121 -138l-121 -61q-59 131 -221 131zM348 661q0 -79 49 -119t172 -98l136 -61q57 14 103 61t46 126t-51 127q-52 48 -148 89l-125 54
q-72 -10 -127 -54t-55 -125z" />
    <glyph glyph-name="dieresis" unicode="&#xa8;" horiz-adv-x="491" 
d="M-55 1325q0 43 28 74q29 31 76 31t76 -31t29 -74t-29 -74t-76 -31t-76 31q-28 31 -28 74zM338 1325q0 43 29 74t75 31t76 -31q29 -31 29 -74t-29 -74t-76 -31q-48 0 -76 32q-28 30 -28 73z" />
    <glyph glyph-name="copyright" unicode="&#xa9;" horiz-adv-x="1638" 
d="M377 735q0 201 131 331t332 130q100 0 191 -44t140 -118l-106 -82q-33 49 -93 85t-128 36q-146 0 -236 -99q-90 -100 -90 -240t87 -239t237 -99t239 132l107 -69q-54 -82 -144 -134t-204 -53q-201 0 -332 131t-131 332zM41 723q0 322 228 547t551 225t550 -225
q227 -226 227 -546t-227 -544t-550 -225q-323 0 -551 223t-228 545zM164 723q0 -270 193 -462q194 -191 464 -191t462 191q191 191 191 461t-190 465q-192 193 -462 193t-465 -193q-193 -194 -193 -464z" />
    <glyph glyph-name="ordfeminine" unicode="&#xaa;" horiz-adv-x="737" 
d="M500 1241v16q0 61 -41 93t-109 32q-104 0 -170 -65l-65 72q92 86 231 86q138 1 202 -61t64 -165v-252q0 -74 9 -114h-107q-10 51 -10 84h-4q-68 -98 -201 -99q-86 0 -152 43t-65 136q0 126 135 163q114 31 283 31zM500 1159h-31q-266 0 -266 -110q0 -90 121 -91
q82 0 129 48t47 122v31z" />
    <glyph glyph-name="guillemotleft" unicode="&#xab;" horiz-adv-x="987" 
d="M489 852l-235 -360l235 -361l-96 -68l-287 429l287 428zM862 852l-235 -360l235 -361l-96 -68l-287 429l287 428z" />
    <glyph glyph-name="logicalnot" unicode="&#xac;" horiz-adv-x="1363" 
d="M1204 836v-570h-123v447h-921v123h1044z" />
    <glyph glyph-name="uni00AD" unicode="&#xad;" horiz-adv-x="655" 
d="M557 555v-117h-459v117h459z" />
    <glyph glyph-name="registered" unicode="&#xae;" horiz-adv-x="1228" 
d="M614 549q-193 -1 -330 135t-137 328q-1 192 137 326q138 136 330 136t330 -136q137 -136 137 -327t-137 -327t-330 -135zM614 1403q-164 -1 -278 -115t-115 -277q0 -163 115 -279q114 -116 278 -116t279 116t115 279t-115 277t-279 115zM432 750v524h184q82 0 138 -38
t57 -116q0 -115 -121 -141l141 -229h-114l-123 219h-68v-219h-94zM526 1044h76q115 0 115 78q0 72 -105 72h-86v-150z" />
    <glyph glyph-name="macron" unicode="&#xaf;" horiz-adv-x="491" 
d="M522 1339v-110h-553v110h553z" />
    <glyph glyph-name="degree" unicode="&#xb0;" horiz-adv-x="819" 
d="M715 1169q0 -133 -87 -219t-218 -86t-219 86q-87 86 -87 219t87 219t219 87q132 -1 218 -87q87 -86 87 -219zM616 1169q0 87 -60 147t-146 60t-146 -60t-61 -146q0 -86 60 -147q61 -60 147 -60t146 60t60 146z" />
    <glyph glyph-name="plusminus" unicode="&#xb1;" horiz-adv-x="1363" 
d="M160 711v123h461v319h122v-319h461v-123h-461v-310h-122v310h-461zM160 98v123h1044v-123h-1044z" />
    <glyph glyph-name="twosuperior" unicode="&#xb2;" horiz-adv-x="757" 
d="M653 705v-111h-565v117l342 346q88 88 88 176q0 59 -38 93t-97 34t-100 -39t-56 -104l-123 18q20 104 96 171t186 67q110 1 186 -63t77 -177q-1 -55 -25 -109t-49 -82q-25 -29 -71 -75l-262 -262h411z" />
    <glyph glyph-name="threesuperior" unicode="&#xb3;" horiz-adv-x="757" 
d="M197 817q42 -125 175 -125q64 0 112 39t48 113t-57 110t-139 37h-55v105h55q172 0 172 143q0 55 -40 91t-101 36q-98 0 -154 -102l-102 53q92 158 260 158q113 -1 187 -61t73 -180q0 -120 -117 -183q141 -53 141 -209q0 -123 -82 -192t-204 -68q-209 0 -289 196z" />
    <glyph glyph-name="acute" unicode="&#xb4;" horiz-adv-x="491" 
d="M512 1450l-270 -295h-121l205 295h186z" />
    <glyph glyph-name="mu" unicode="&#xb5;" horiz-adv-x="1138" 
d="M147 -467v1425h136v-530q0 -180 57 -255q58 -75 194 -75t218 98t82 271v491h135v-747q0 -92 10 -211h-145v156h-5q-45 -76 -136 -128t-185 -53q-141 0 -225 60v-502h-136z" />
    <glyph glyph-name="paragraph" unicode="&#xb6;" horiz-adv-x="1228" 
d="M1051 1450v-1708h-136v1597h-253v-1597h-136v905q-186 0 -307 110t-121 271q0 202 125 312t342 110h486z" />
    <glyph glyph-name="periodcentered" unicode="&#xb7;" horiz-adv-x="532" 
d="M377 643q0 -45 -32 -78t-79 -33t-79 33t-31 78q0 45 31 78q32 33 79 33t79 -33t32 -78z" />
    <glyph glyph-name="cedilla" unicode="&#xb8;" horiz-adv-x="491" 
d="M463 -305q0 -82 -72 -124t-173 -42t-189 41l32 74q59 -29 125 -29t110 23t44 67q0 80 -111 80q-43 0 -88 -16l-37 30l127 201h88l-96 -154q25 8 83 8t107 -38q50 -39 50 -121z" />
    <glyph glyph-name="onesuperior" unicode="&#xb9;" horiz-adv-x="757" 
d="M475 1450v-864h-125v708l-131 -116l-78 84l230 188h104z" />
    <glyph glyph-name="ordmasculine" unicode="&#xba;" horiz-adv-x="737" 
d="M57 1172q0 132 88 218q87 86 223 85q136 1 224 -85t88 -218t-88 -218t-223 -86t-224 86q-88 86 -88 218zM561 1171q0 85 -51 147t-141 62q-89 0 -141 -61t-52 -147t51 -148q51 -61 141 -61t142 61q51 61 51 147z" />
    <glyph glyph-name="guillemotright" unicode="&#xbb;" horiz-adv-x="987" 
d="M498 131l235 361l-235 360l96 68l287 -428l-287 -429zM125 131l235 361l-235 360l96 68l287 -428l-287 -429z" />
    <glyph glyph-name="onequarter" unicode="&#xbc;" horiz-adv-x="1720" 
d="M1481 864v-553h123v-110h-123v-201h-113v201h-385v106l358 557h140zM1368 696h-6l-250 -385h256v385zM475 1450v-864h-125v708l-131 -116l-78 84l230 188h104zM1366 1458l-922 -1521l-106 55l924 1521z" />
    <glyph glyph-name="onehalf" unicode="&#xbd;" horiz-adv-x="1720" 
d="M1610 111v-111h-566v117l342 346q88 88 89 176q0 59 -38 93q-37 34 -97 34t-101 -39t-55 -104l-123 18q20 104 96 171q75 67 185 67q110 1 187 -63t77 -177q0 -55 -25 -109t-49 -82t-72 -75l-262 -262h412zM1366 1458l-922 -1521l-106 55l924 1521zM475 1450v-864h-125
v708l-131 -116l-78 84l230 188h104z" />
    <glyph glyph-name="threequarters" unicode="&#xbe;" horiz-adv-x="1720" 
d="M1481 864v-553h123v-110h-123v-201h-113v201h-385v106l358 557h140zM1368 696h-6l-250 -385h256v385zM197 817q42 -125 175 -125q64 0 112 39t48 113t-57 110t-139 37h-55v105h55q172 0 172 143q0 55 -40 91t-101 36q-98 0 -154 -102l-102 53q92 158 260 158
q113 -1 187 -61t73 -180q0 -120 -117 -183q141 -53 141 -209q0 -123 -82 -192t-204 -68q-209 0 -289 196zM1366 1458l-922 -1521l-106 55l924 1521z" />
    <glyph glyph-name="questiondown" unicode="&#xbf;" horiz-adv-x="987" 
d="M438 494v94h144v-123q0 -74 -27 -135q-27 -62 -57 -96t-80 -80l-58 -52q-118 -104 -118 -221t74 -183t182 -65q110 0 178 66t86 174l139 -25q-31 -160 -141 -250t-274 -92q-164 0 -278 96t-114 265q0 83 28 149t61 101q34 35 113 101q78 66 110 118q32 54 32 158z
M385 883q0 45 32 78t79 33q46 0 78 -34q32 -32 32 -77t-32 -78t-78 -33t-79 33q-32 33 -32 78z" />
    <glyph glyph-name="Agrave" unicode="&#xc0;" horiz-adv-x="1433" 
d="M340 381l-158 -381h-162l627 1450h144l622 -1450h-164l-159 381h-750zM715 1286l-320 -770h639zM664 1565l-271 295h187l204 -295h-120z" />
    <glyph glyph-name="Aacute" unicode="&#xc1;" horiz-adv-x="1433" 
d="M340 381l-158 -381h-162l627 1450h144l622 -1450h-164l-159 381h-750zM715 1286l-320 -770h639zM1047 1860l-271 -295h-121l205 295h187z" />
    <glyph glyph-name="Acircumflex" unicode="&#xc2;" horiz-adv-x="1433" 
d="M340 381l-158 -381h-162l627 1450h144l622 -1450h-164l-159 381h-750zM715 1286l-320 -770h639zM797 1860l223 -295h-135l-170 221l-170 -221h-135l223 295h164z" />
    <glyph glyph-name="Atilde" unicode="&#xc3;" horiz-adv-x="1433" 
d="M340 381l-158 -381h-162l627 1450h144l622 -1450h-164l-159 381h-750zM715 1286l-320 -770h639zM573 1802q55 0 153 -47t134 -47q72 0 101 102h88q-33 -213 -189 -213q-59 -1 -149 47t-138 48q-71 -1 -100 -103h-88q33 213 188 213z" />
    <glyph glyph-name="Adieresis" unicode="&#xc4;" horiz-adv-x="1433" 
d="M340 381l-158 -381h-162l627 1450h144l622 -1450h-164l-159 381h-750zM715 1286l-320 -770h639zM418 1735q0 43 28 73t76 31q47 0 76 -31q29 -32 29 -74t-29 -73t-76 -31t-76 31q-28 31 -28 74zM811 1735q0 43 29 73q30 30 76 31q46 0 75 -31q29 -32 29 -74t-29 -73
t-76 -31t-75 31t-29 74z" />
    <glyph glyph-name="Aring" unicode="&#xc5;" horiz-adv-x="1433" 
d="M340 381l-158 -381h-162l627 1450h144l622 -1450h-164l-159 381h-750zM715 1286l-320 -770h639zM913 1740q0 -81 -58 -137q-58 -57 -138 -57t-138 56q-59 56 -59 138q0 81 58 138t139 57q80 0 138 -57t58 -138zM840 1741q0 51 -36 86t-87 35t-87 -35t-36 -86t36 -86
t87 -35t87 35t36 86z" />
    <glyph glyph-name="AE" unicode="&#xc6;" horiz-adv-x="2027" 
d="M1210 690v-559h707v-131h-854v406h-610l-263 -406h-167l944 1450h925v-131h-682v-500h633v-129h-633zM1063 535v784h-29l-506 -784h535z" />
    <glyph glyph-name="Ccedilla" unicode="&#xc7;" horiz-adv-x="1474" 
d="M1038 -305q0 -82 -72 -124t-172 -42q-101 0 -190 41l33 74q59 -29 125 -29t109 23q44 23 44 67q0 80 -110 80q-43 0 -88 -16l-37 30l106 168q-297 29 -484 240t-187 529t215 535q215 216 540 216q162 -1 304 -63t212 -167l-122 -90q-50 79 -156 135t-236 56
q-272 0 -437 -184t-165 -448t166 -448q166 -186 442 -186t420 215l115 -74q-80 -121 -218 -195t-325 -75l-71 -117q25 8 82 8t107 -38q50 -39 50 -121z" />
    <glyph glyph-name="Egrave" unicode="&#xc8;" horiz-adv-x="1212" 
d="M340 690v-559h776v-131h-923v1450h899v-131h-752v-500h702v-129h-702zM647 1565l-270 295h186l205 -295h-121z" />
    <glyph glyph-name="Eacute" unicode="&#xc9;" horiz-adv-x="1212" 
d="M340 690v-559h776v-131h-923v1450h899v-131h-752v-500h702v-129h-702zM934 1860l-270 -295h-121l205 295h186z" />
    <glyph glyph-name="Ecircumflex" unicode="&#xca;" horiz-adv-x="1212" 
d="M340 690v-559h776v-131h-923v1450h899v-131h-752v-500h702v-129h-702zM729 1860l223 -295h-135l-170 221l-170 -221h-135l223 295h164z" />
    <glyph glyph-name="Edieresis" unicode="&#xcb;" horiz-adv-x="1212" 
d="M340 690v-559h776v-131h-923v1450h899v-131h-752v-500h702v-129h-702zM346 1735q0 43 29 73t76 31q47 0 75 -31q28 -32 29 -74q0 -42 -29 -73q-30 -31 -76 -31t-75 31t-29 74zM739 1735q0 43 29 73t76 31q47 0 76 -31q28 -32 28 -74t-28 -73t-76 -31q-47 0 -76 31t-29 74
z" />
    <glyph glyph-name="Igrave" unicode="&#xcc;" horiz-adv-x="532" 
d="M340 1450v-1450h-147v1450h147zM217 1565l-270 295h186l205 -295h-121z" />
    <glyph glyph-name="Iacute" unicode="&#xcd;" horiz-adv-x="532" 
d="M340 1450v-1450h-147v1450h147zM584 1860l-271 -295h-120l204 295h187z" />
    <glyph glyph-name="Icircumflex" unicode="&#xce;" horiz-adv-x="532" 
d="M340 1450v-1450h-147v1450h147zM348 1860l223 -295h-135l-170 221l-170 -221h-135l223 295h164z" />
    <glyph glyph-name="Idieresis" unicode="&#xcf;" horiz-adv-x="532" 
d="M340 1450v-1450h-147v1450h147zM-35 1735q0 43 29 73t76 31q48 0 76 -31q28 -32 28 -74t-29 -73t-75 -31t-76 31q-29 31 -29 74zM358 1735q0 43 29 73t76 31q47 0 76 -31q29 -32 29 -74t-30 -73q-28 -31 -75 -31t-76 31t-29 74z" />
    <glyph glyph-name="Eth" unicode="&#xd0;" horiz-adv-x="1550" 
d="M176 0v711h-149v110h149v629h481q289 0 517 -179q110 -87 178 -229t68 -317q0 -174 -68 -316q-124 -260 -422 -363q-133 -46 -273 -46h-481zM324 711v-576h286q160 0 287 49q235 91 323 322q40 104 40 219q0 236 -158 408q-78 84 -205 133t-287 49h-286v-494h528v-110
h-528z" />
    <glyph glyph-name="Ntilde" unicode="&#xd1;" horiz-adv-x="1564" 
d="M1225 215v1235h147v-1450h-184l-844 1247h-4v-1247h-147v1450h184l844 -1235h4zM645 1802q55 0 153 -47t134 -47q72 0 100 102h88q-33 -213 -188 -213q-60 -1 -150 47t-137 48q-71 -1 -100 -103h-88q33 213 188 213z" />
    <glyph glyph-name="Ograve" unicode="&#xd2;" horiz-adv-x="1740" 
d="M1626 725q0 -330 -215 -546t-541 -216t-540 216t-215 546q0 330 215 546q214 216 540 216t541 -216t215 -546zM1470 725q0 264 -164 449q-166 184 -436 184t-435 -184t-165 -448t165 -448t435 -184t435 184t165 447zM899 1565l-270 295h186l205 -295h-121z" />
    <glyph glyph-name="Oacute" unicode="&#xd3;" horiz-adv-x="1740" 
d="M1626 725q0 -330 -215 -546t-541 -216t-540 216t-215 546q0 330 215 546q214 216 540 216t541 -216t215 -546zM1470 725q0 264 -164 449q-166 184 -436 184t-435 -184t-165 -448t165 -448t435 -184t435 184t165 447zM1143 1860l-271 -295h-120l204 295h187z" />
    <glyph glyph-name="Ocircumflex" unicode="&#xd4;" horiz-adv-x="1740" 
d="M1626 725q0 -330 -215 -546t-541 -216t-540 216t-215 546q0 330 215 546q214 216 540 216t541 -216t215 -546zM1470 725q0 264 -164 449q-166 184 -436 184t-435 -184t-165 -448t165 -448t435 -184t435 184t165 447zM952 1860l224 -295h-136l-170 221l-170 -221h-135
l223 295h164z" />
    <glyph glyph-name="Otilde" unicode="&#xd5;" horiz-adv-x="1740" 
d="M1626 725q0 -330 -215 -546t-541 -216t-540 216t-215 546q0 330 215 546q214 216 540 216t541 -216t215 -546zM1470 725q0 264 -164 449q-166 184 -436 184t-435 -184t-165 -448t165 -448t435 -184t435 184t165 447zM727 1802q55 0 153 -47t134 -47q72 0 100 102h88
q-33 -213 -188 -213q-60 -1 -150 47t-137 48q-71 -1 -100 -103h-88q33 213 188 213z" />
    <glyph glyph-name="Odieresis" unicode="&#xd6;" horiz-adv-x="1740" 
d="M1626 725q0 -330 -215 -546t-541 -216t-540 216t-215 546q0 330 215 546q214 216 540 216t541 -216t215 -546zM1470 725q0 264 -164 449q-166 184 -436 184t-435 -184t-165 -448t165 -448t435 -184t435 184t165 447zM569 1735q0 43 29 73t76 31q47 0 76 -31
q28 -32 28 -74t-28 -73t-76 -31q-47 0 -76 31t-29 74zM963 1735q1 43 29 73t75 31q47 0 76 -31q29 -32 29 -74t-30 -73q-28 -31 -75 -31t-76 31q-28 31 -28 74z" />
    <glyph glyph-name="multiply" unicode="&#xd7;" horiz-adv-x="1363" 
d="M356 1034l326 -325l324 325l88 -86l-326 -327l326 -326l-88 -88l-324 325l-326 -325l-86 88l326 326l-326 327z" />
    <glyph glyph-name="Oslash" unicode="&#xd8;" horiz-adv-x="1740" 
d="M870 -37q-279 0 -483 166l-156 -166l-75 70l155 168q-197 209 -197 531t216 539q215 216 540 216q279 0 484 -166l155 166l76 -70l-155 -168q196 -209 196 -531t-215 -539q-215 -216 -541 -216zM870 94q272 0 436 184t164 438q0 255 -137 427l-850 -912
q156 -137 387 -137zM854 1358q-256 0 -420 -184t-164 -442t142 -425l850 912q-152 139 -408 139z" />
    <glyph glyph-name="Ugrave" unicode="&#xd9;" horiz-adv-x="1454" 
d="M727 -37q-155 0 -267 55q-112 56 -168 146q-108 175 -108 377v909h148v-893q0 -197 95 -330t300 -133t300 133t95 330v893h148v-909q0 -203 -108 -377q-56 -90 -168 -146t-267 -55zM729 1565l-270 295h186l205 -295h-121z" />
    <glyph glyph-name="Uacute" unicode="&#xda;" horiz-adv-x="1454" 
d="M727 -37q-155 0 -267 55q-112 56 -168 146q-108 175 -108 377v909h148v-893q0 -197 95 -330t300 -133t300 133t95 330v893h148v-909q0 -203 -108 -377q-56 -90 -168 -146t-267 -55zM1018 1860l-270 -295h-121l204 295h187z" />
    <glyph glyph-name="Ucircumflex" unicode="&#xdb;" horiz-adv-x="1454" 
d="M727 -37q-155 0 -267 55q-112 56 -168 146q-108 175 -108 377v909h148v-893q0 -197 95 -330t300 -133t300 133t95 330v893h148v-909q0 -203 -108 -377q-56 -90 -168 -146t-267 -55zM809 1860l223 -295h-135l-170 221l-170 -221h-135l223 295h164z" />
    <glyph glyph-name="Udieresis" unicode="&#xdc;" horiz-adv-x="1454" 
d="M727 -37q-155 0 -267 55q-112 56 -168 146q-108 175 -108 377v909h148v-893q0 -197 95 -330t300 -133t300 133t95 330v893h148v-909q0 -203 -108 -377q-56 -90 -168 -146t-267 -55zM428 1735q0 43 29 73t75 31q46 0 76 -31q29 -32 29 -74t-29 -73t-76 -31q-48 0 -76 31
t-28 74zM821 1735q0 43 29 73t76 31q48 0 76 -31q28 -32 28 -74t-29 -73t-75 -31t-76 31q-29 31 -29 74z" />
    <glyph glyph-name="Yacute" unicode="&#xdd;" horiz-adv-x="1232" 
d="M690 0h-147v625l-543 825h184l437 -702l440 702h172l-543 -825v-625zM954 1860l-270 -295h-121l205 295h186z" />
    <glyph glyph-name="Thorn" unicode="&#xde;" horiz-adv-x="1187" 
d="M193 0v1450h147v-317h262q226 -1 358 -99t132 -288t-134 -290q-134 -99 -360 -100h-258v-356h-147zM340 1001v-516h238q354 0 354 258t-354 258h-238z" />
    <glyph glyph-name="germandbls" unicode="&#xdf;" horiz-adv-x="1222" 
d="M319 1110v-1110h-139v1114q0 179 87 308q46 69 134 110t209 41q162 0 278 -98t116 -265q0 -240 -238 -325v-4q158 -21 254 -135t96 -289q0 -219 -134 -351t-357 -131q-57 0 -113 11v116q35 -8 98 -8q166 0 263 97t97 269t-106 265q-106 92 -289 92h-18v123h16
q131 0 210 65t79 189t-74 190t-171 66t-156 -32q-97 -53 -129 -193q-13 -54 -13 -115z" />
    <glyph glyph-name="agrave" unicode="&#xe0;" horiz-adv-x="1093" 
d="M788 588v30q0 248 -256 248q-172 0 -284 -112l-78 92q137 137 377 137q164 0 268 -89t105 -259v-420q0 -127 16 -215h-125q-14 82 -14 156h-4q-66 -96 -148 -138t-206 -43q-124 0 -225 73t-101 218t99 216t242 88q142 18 334 18zM788 479h-40q-492 0 -492 -207
q0 -94 66 -138t159 -44q141 0 225 92q83 92 82 226v71zM565 1155l-270 295h186l205 -295h-121z" />
    <glyph glyph-name="aacute" unicode="&#xe1;" horiz-adv-x="1093" 
d="M788 588v30q0 248 -256 248q-172 0 -284 -112l-78 92q137 137 377 137q164 0 268 -89t105 -259v-420q0 -127 16 -215h-125q-14 82 -14 156h-4q-66 -96 -148 -138t-206 -43q-124 0 -225 73t-101 218t99 216t242 88q142 18 334 18zM788 479h-40q-492 0 -492 -207
q0 -94 66 -138t159 -44q141 0 225 92q83 92 82 226v71zM831 1450l-270 -295h-121l205 295h186z" />
    <glyph glyph-name="acircumflex" unicode="&#xe2;" horiz-adv-x="1093" 
d="M788 588v30q0 248 -256 248q-172 0 -284 -112l-78 92q137 137 377 137q164 0 268 -89t105 -259v-420q0 -127 16 -215h-125q-14 82 -14 156h-4q-66 -96 -148 -138t-206 -43q-124 0 -225 73t-101 218t99 216t242 88q142 18 334 18zM788 479h-40q-492 0 -492 -207
q0 -94 66 -138t159 -44q141 0 225 92q83 92 82 226v71zM633 1450l223 -295h-135l-170 221l-170 -221h-135l223 295h164z" />
    <glyph glyph-name="atilde" unicode="&#xe3;" horiz-adv-x="1093" 
d="M788 588v30q0 248 -256 248q-172 0 -284 -112l-78 92q137 137 377 137q164 0 268 -89t105 -259v-420q0 -127 16 -215h-125q-14 82 -14 156h-4q-66 -96 -148 -138t-206 -43q-124 0 -225 73t-101 218t99 216t242 88q142 18 334 18zM788 479h-40q-492 0 -492 -207
q0 -94 66 -138t159 -44q141 0 225 92q83 92 82 226v71zM399 1393q55 0 153 -47t134 -48q72 0 100 103h88q-33 -213 -188 -213q-59 0 -149 47t-138 47q-71 0 -100 -102h-88q33 213 188 213z" />
    <glyph glyph-name="adieresis" unicode="&#xe4;" horiz-adv-x="1093" 
d="M788 588v30q0 248 -256 248q-172 0 -284 -112l-78 92q137 137 377 137q164 0 268 -89t105 -259v-420q0 -127 16 -215h-125q-14 82 -14 156h-4q-66 -96 -148 -138t-206 -43q-124 0 -225 73t-101 218t99 216t242 88q142 18 334 18zM788 479h-40q-492 0 -492 -207
q0 -94 66 -138t159 -44q141 0 225 92q83 92 82 226v71zM244 1325q0 43 28 74q29 31 76 31t76 -31t29 -74t-29 -74t-76 -31t-76 31q-28 31 -28 74zM637 1325q0 43 29 74q30 31 76 31t75 -31t29 -74t-29 -74t-76 -31t-75 32q-28 30 -29 73z" />
    <glyph glyph-name="aring" unicode="&#xe5;" horiz-adv-x="1093" 
d="M788 588v30q0 248 -256 248q-172 0 -284 -112l-78 92q137 137 377 137q164 0 268 -89t105 -259v-420q0 -127 16 -215h-125q-14 82 -14 156h-4q-66 -96 -148 -138t-206 -43q-124 0 -225 73t-101 218t99 216t242 88q142 18 334 18zM788 479h-40q-492 0 -492 -207
q0 -94 66 -138t159 -44q141 0 225 92q83 92 82 226v71zM739 1330q0 -81 -58 -137t-138 -56t-139 56q-58 56 -58 137t58 138q58 58 138 58t139 -58q58 -58 58 -138zM666 1331q0 51 -36 86t-87 35t-87 -35t-36 -86t36 -86t87 -35t87 35t36 86z" />
    <glyph glyph-name="ae" unicode="&#xe6;" horiz-adv-x="1781" 
d="M1667 508q0 -47 -2 -66h-758q3 -147 99 -248t235 -102q98 0 175 47t118 119l100 -80q-152 -203 -393 -203q-133 -1 -233 59t-148 165q-96 -223 -399 -224q-141 0 -244 70q-102 70 -102 211q0 78 39 135t97 88q138 74 527 74v31q0 129 -62 206t-184 76q-172 0 -294 -112
l-80 90q64 61 170 100t223 39t200 -52t117 -149q56 94 152 148t211 53q207 0 321 -135t115 -340zM1526 553q0 139 -79 226t-210 87t-225 -94t-99 -219h613zM778 442h-41q-289 0 -384 -45t-95 -139q0 -170 227 -170q143 0 218 76t75 209v69z" />
    <glyph glyph-name="ccedilla" unicode="&#xe7;" horiz-adv-x="1024" 
d="M629 866q-164 0 -265 -110q-102 -110 -102 -276t100 -276t266 -110t259 125l104 -78q-127 -158 -352 -166l-80 -129q25 8 83 8t107 -38q50 -39 50 -121t-72 -124t-173 -42t-189 41l32 74q59 -29 125 -29t110 23t44 67q0 80 -111 80q-43 0 -88 -16l-37 30l113 181
q-201 24 -320 160t-119 347t142 353q141 142 371 143q101 0 199 -44t157 -122l-109 -78q-38 57 -104 92t-141 35z" />
    <glyph glyph-name="egrave" unicode="&#xe8;" 
d="M602 866q-140 0 -236 -93t-104 -220h653q-6 139 -89 226t-224 87zM1057 508q0 -41 -2 -66h-795q4 -145 104 -246t246 -102q102 0 182 47t126 119l104 -82q-160 -203 -412 -203q-213 -1 -354 143t-141 360t139 360t350 145q211 0 332 -135t121 -340zM578 1155l-271 295
h187l204 -295h-120z" />
    <glyph glyph-name="eacute" unicode="&#xe9;" 
d="M602 866q-140 0 -236 -93t-104 -220h653q-6 139 -89 226t-224 87zM1057 508q0 -41 -2 -66h-795q4 -145 104 -246t246 -102q102 0 182 47t126 119l104 -82q-160 -203 -412 -203q-213 -1 -354 143t-141 360t139 360t350 145q211 0 332 -135t121 -340zM905 1450l-270 -295
h-121l205 295h186z" />
    <glyph glyph-name="ecircumflex" unicode="&#xea;" 
d="M602 866q-140 0 -236 -93t-104 -220h653q-6 139 -89 226t-224 87zM1057 508q0 -41 -2 -66h-795q4 -145 104 -246t246 -102q102 0 182 47t126 119l104 -82q-160 -203 -412 -203q-213 -1 -354 143t-141 360t139 360t350 145q211 0 332 -135t121 -340zM694 1450l224 -295
h-136l-170 221l-170 -221h-135l223 295h164z" />
    <glyph glyph-name="edieresis" unicode="&#xeb;" 
d="M602 866q-140 0 -236 -93t-104 -220h653q-6 139 -89 226t-224 87zM1057 508q0 -41 -2 -66h-795q4 -145 104 -246t246 -102q102 0 182 47t126 119l104 -82q-160 -203 -412 -203q-213 -1 -354 143t-141 360t139 360t350 145q211 0 332 -135t121 -340zM311 1325q0 43 29 74
t76 31t76 -31q28 -31 28 -74t-28 -74t-76 -31q-47 0 -76 32q-29 30 -29 73zM705 1325q0 43 28 74q29 31 76 31t76 -31t29 -74t-30 -74q-28 -31 -75 -31t-76 31q-28 31 -28 74z" />
    <glyph glyph-name="igrave" unicode="&#xec;" horiz-adv-x="512" 
d="M326 958v-958h-140v958h140zM203 1155l-271 295h187l205 -295h-121z" />
    <glyph glyph-name="iacute" unicode="&#xed;" horiz-adv-x="512" 
d="M326 958v-958h-140v958h140zM578 1450l-271 -295h-121l205 295h187z" />
    <glyph glyph-name="icircumflex" unicode="&#xee;" horiz-adv-x="512" 
d="M326 958v-958h-140v958h140zM342 1450l223 -295h-135l-170 221l-170 -221h-135l223 295h164z" />
    <glyph glyph-name="idieresis" unicode="&#xef;" horiz-adv-x="512" 
d="M326 958v-958h-140v958h140zM-43 1325q0 43 29 74q30 31 76 31t75 -31t29 -74t-29 -74t-76 -31t-75 32q-28 30 -29 73zM350 1325q0 43 29 74t76 31t75 -31t29 -74q0 -43 -29 -74q-30 -31 -76 -31t-75 32q-29 30 -29 73z" />
    <glyph glyph-name="eth" unicode="&#xf0;" horiz-adv-x="1251" 
d="M246 479q0 -165 99 -273t261 -108t262 109t100 273t-100 272t-262 108t-261 -108t-99 -273zM606 983q164 0 307 -119l5 4q-117 246 -320 420l-229 -117l-74 74l225 115q-59 57 -205 158l121 75q129 -100 205 -168l209 109l82 -72l-211 -110q176 -162 286 -383
q109 -221 109 -438t-112 -376q-58 -81 -160 -130t-238 -50q-221 -1 -364 143t-144 361q0 217 144 361t364 143z" />
    <glyph glyph-name="ntilde" unicode="&#xf1;" horiz-adv-x="1189" 
d="M317 795h5q41 84 132 136t195 52q177 0 271 -106t94 -289v-588h-140v530q0 164 -58 250t-190 86t-218 -97q-84 -97 -84 -277v-492h-140v748q0 122 -8 210h133q8 -68 8 -163zM457 1393q55 0 153 -47t133 -48q72 0 101 103h88q-33 -213 -189 -213q-59 0 -149 47t-137 47
q-72 0 -101 -102h-88q33 213 189 213z" />
    <glyph glyph-name="ograve" unicode="&#xf2;" horiz-adv-x="1251" 
d="M1137 479q1 -217 -143 -360t-367 -143t-367 142q-144 144 -145 361q0 217 144 361q143 144 367 143q224 1 368 -143t143 -361zM262 479q0 -165 100 -275t264 -110t263 110q100 110 100 274q0 165 -100 277q-100 111 -263 111t-264 -111q-100 -112 -100 -276zM584 1155
l-271 295h187l205 -295h-121z" />
    <glyph glyph-name="oacute" unicode="&#xf3;" horiz-adv-x="1251" 
d="M1137 479q1 -217 -143 -360t-367 -143t-367 142q-144 144 -145 361q0 217 144 361q143 144 367 143q224 1 368 -143t143 -361zM262 479q0 -165 100 -275t264 -110t263 110q100 110 100 274q0 165 -100 277q-100 111 -263 111t-264 -111q-100 -112 -100 -276zM932 1450
l-270 -295h-121l204 295h187z" />
    <glyph glyph-name="ocircumflex" unicode="&#xf4;" horiz-adv-x="1251" 
d="M1137 479q1 -217 -143 -360t-367 -143t-367 142q-144 144 -145 361q0 217 144 361q143 144 367 143q224 1 368 -143t143 -361zM262 479q0 -165 100 -275t264 -110t263 110q100 110 100 274q0 165 -100 277q-100 111 -263 111t-264 -111q-100 -112 -100 -276zM707 1450
l223 -295h-135l-170 221l-170 -221h-136l224 295h164z" />
    <glyph glyph-name="otilde" unicode="&#xf5;" horiz-adv-x="1251" 
d="M1137 479q1 -217 -143 -360t-367 -143t-367 142q-144 144 -145 361q0 217 144 361q143 144 367 143q224 1 368 -143t143 -361zM262 479q0 -165 100 -275t264 -110t263 110q100 110 100 274q0 165 -100 277q-100 111 -263 111t-264 -111q-100 -112 -100 -276zM481 1393
q55 0 153 -47t134 -48q72 0 100 103h88q-33 -213 -188 -213q-60 0 -150 47t-137 47q-71 0 -100 -102h-88q33 213 188 213z" />
    <glyph glyph-name="odieresis" unicode="&#xf6;" horiz-adv-x="1251" 
d="M1137 479q1 -217 -143 -360t-367 -143t-367 142q-144 144 -145 361q0 217 144 361q143 144 367 143q224 1 368 -143t143 -361zM262 479q0 -165 100 -275t264 -110t263 110q100 110 100 274q0 165 -100 277q-100 111 -263 111t-264 -111q-100 -112 -100 -276zM324 1325
q0 43 28 74q29 31 76 31t76 -31q28 -31 28 -74t-28 -74t-76 -31q-47 0 -76 31q-28 31 -28 74zM717 1325q0 43 28 74q29 31 76 31t76 -31t29 -74t-29 -74t-76 -31t-76 31q-28 31 -28 74z" />
    <glyph glyph-name="divide" unicode="&#xf7;" horiz-adv-x="1363" 
d="M1204 682v-123h-1044v123h1044zM793 952q0 -45 -32 -78q-32 -32 -79 -32t-79 32t-32 78q0 45 32 78t79 33t79 -33t32 -78zM793 289q0 -45 -32 -78t-79 -33t-79 33t-32 78t32 78t79 33t79 -34q32 -32 32 -77z" />
    <glyph glyph-name="oslash" unicode="&#xf8;" horiz-adv-x="1251" 
d="M638 88q151 0 254 112q104 112 104 272t-74 247l-537 -551q102 -80 253 -80zM620 870q-160 0 -263 -111q-101 -113 -101 -273t70 -248l536 550q-82 82 -242 82zM1137 468q-1 -206 -145 -349t-350 -143t-341 106l-137 -139l-66 63l135 139q-119 137 -119 344t144 351
q143 144 347 143q204 0 343 -106l135 139l66 -64l-135 -139q123 -139 123 -345z" />
    <glyph glyph-name="ugrave" unicode="&#xf9;" horiz-adv-x="1189" 
d="M176 371v587h139v-530q1 -164 59 -250t190 -86t217 97t85 278v491h140v-747q0 -123 8 -211h-133q-8 68 -9 164h-4q-41 -84 -132 -136t-195 -53q-177 1 -271 107t-94 289zM567 1155l-270 295h186l205 -295h-121z" />
    <glyph glyph-name="uacute" unicode="&#xfa;" horiz-adv-x="1189" 
d="M176 371v587h139v-530q1 -164 59 -250t190 -86t217 97t85 278v491h140v-747q0 -123 8 -211h-133q-8 68 -9 164h-4q-41 -84 -132 -136t-195 -53q-177 1 -271 107t-94 289zM885 1450l-271 -295h-120l204 295h187z" />
    <glyph glyph-name="ucircumflex" unicode="&#xfb;" horiz-adv-x="1189" 
d="M176 371v587h139v-530q1 -164 59 -250t190 -86t217 97t85 278v491h140v-747q0 -123 8 -211h-133q-8 68 -9 164h-4q-41 -84 -132 -136t-195 -53q-177 1 -271 107t-94 289zM674 1450l223 -295h-135l-170 221l-170 -221h-135l223 295h164z" />
    <glyph glyph-name="udieresis" unicode="&#xfc;" horiz-adv-x="1189" 
d="M176 371v587h139v-530q1 -164 59 -250t190 -86t217 97t85 278v491h140v-747q0 -123 8 -211h-133q-8 68 -9 164h-4q-41 -84 -132 -136t-195 -53q-177 1 -271 107t-94 289zM291 1325q0 43 28 74q29 31 76 31t76 -31t29 -74t-29 -74t-76 -31t-76 31q-28 31 -28 74zM684 1325
q0 43 29 74t75 31t76 -31q29 -31 29 -74t-29 -74t-76 -31q-48 0 -76 32q-28 30 -28 73z" />
    <glyph glyph-name="yacute" unicode="&#xfd;" horiz-adv-x="999" 
d="M188 958l326 -808h4l297 808h152l-478 -1206q-47 -121 -115 -182t-186 -62q-63 0 -125 13l15 127q145 -44 213 24q41 41 74 129l77 201l-409 956h155zM817 1450l-270 -295h-121l205 295h186z" />
    <glyph glyph-name="thorn" unicode="&#xfe;" horiz-adv-x="1296" 
d="M684 -25q-109 -1 -204 47t-152 140h-4v-654h-136v2040h136v-755h4q59 92 154 141t202 49q213 0 355 -143q143 -142 143 -360t-142 -362t-356 -143zM1034 479q0 164 -100 273q-100 108 -262 108t-261 -108t-99 -273t98 -273q100 -108 262 -108t262 108t100 273z" />
    <glyph glyph-name="ydieresis" unicode="&#xff;" horiz-adv-x="999" 
d="M188 958l326 -808h4l297 808h152l-478 -1206q-47 -121 -115 -182t-186 -62q-63 0 -125 13l15 127q145 -44 213 24q41 41 74 129l77 201l-409 956h155zM215 1325q0 43 29 74q30 31 76 31t75 -31t29 -74t-29 -74t-76 -31t-75 32q-28 30 -29 73zM608 1325q0 43 29 74t76 31
t75 -31t29 -74q0 -43 -29 -74q-30 -31 -76 -31t-75 32q-29 30 -29 73z" />
    <glyph glyph-name="Amacron" unicode="&#x100;" horiz-adv-x="1433" 
d="M340 381l-158 -381h-162l627 1450h144l622 -1450h-164l-159 381h-750zM715 1286l-320 -770h639zM995 1749v-111h-553v111h553z" />
    <glyph glyph-name="amacron" unicode="&#x101;" horiz-adv-x="1093" 
d="M788 588v30q0 248 -256 248q-172 0 -284 -112l-78 92q137 137 377 137q164 0 268 -89t105 -259v-420q0 -127 16 -215h-125q-14 82 -14 156h-4q-66 -96 -148 -138t-206 -43q-124 0 -225 73t-101 218t99 216t242 88q142 18 334 18zM788 479h-40q-492 0 -492 -207
q0 -94 66 -138t159 -44q141 0 225 92q83 92 82 226v71zM829 1339v-110h-553v110h553z" />
    <glyph glyph-name="Abreve" unicode="&#x102;" horiz-adv-x="1433" 
d="M340 381l-158 -381h-162l627 1450h144l622 -1450h-164l-159 381h-750zM715 1286l-320 -770h639zM719 1589q-129 0 -211 72t-90 199h90q14 -78 72 -119t139 -41t139 41t72 119h90q-8 -127 -90 -199t-211 -72z" />
    <glyph glyph-name="abreve" unicode="&#x103;" horiz-adv-x="1093" 
d="M788 588v30q0 248 -256 248q-172 0 -284 -112l-78 92q137 137 377 137q164 0 268 -89t105 -259v-420q0 -127 16 -215h-125q-14 82 -14 156h-4q-66 -96 -148 -138t-206 -43q-124 0 -225 73t-101 218t99 216t242 88q142 18 334 18zM788 479h-40q-492 0 -492 -207
q0 -94 66 -138t159 -44q141 0 225 92q83 92 82 226v71zM559 1290q81 0 139 41t72 119h90q-8 -127 -90 -199q-82 -71 -211 -71t-211 72t-90 198h90q14 -78 72 -119t139 -41z" />
    <glyph glyph-name="Aogonek" unicode="&#x104;" horiz-adv-x="1433" 
d="M1251 -457q-74 0 -129 49t-55 125q0 135 182 283l-159 381h-750l-158 -381h-162l627 1450h144l622 -1450h-65q-84 -84 -121 -138t-37 -104t30 -76q30 -28 84 -28t93 45l39 -82q-74 -74 -185 -74zM715 1286l-320 -770h639z" />
    <glyph glyph-name="aogonek" unicode="&#x105;" horiz-adv-x="1093" 
d="M834 -457q-93 0 -147 49t-54 125q0 135 182 283h-4q-14 82 -14 156h-4q-66 -96 -148 -138t-206 -43q-124 0 -225 73t-101 218t99 216t242 88q143 18 334 18v30q0 248 -256 248q-172 0 -284 -112l-78 92q137 137 377 137q164 0 268 -89t105 -259v-420q0 -127 16 -215h-23
q-85 -84 -121 -138t-36 -104t30 -76q30 -28 84 -28t93 45l38 -82q-74 -74 -167 -74zM788 479h-40q-492 0 -492 -207q0 -94 66 -138t159 -44q141 0 225 92q83 92 82 226v71z" />
    <glyph glyph-name="Cacute" unicode="&#x106;" horiz-adv-x="1474" 
d="M870 -37q-328 0 -542 216t-213 546q0 330 215 546t540 216q162 -1 304 -63t212 -167l-122 -90q-50 79 -156 135t-236 56q-272 0 -437 -184t-165 -448t166 -448q166 -186 442 -186t420 215l115 -74q-80 -121 -218 -195t-325 -75zM1147 1860l-270 -295h-121l205 295h186z
" />
    <glyph glyph-name="cacute" unicode="&#x107;" horiz-adv-x="1024" 
d="M629 866q-164 0 -265 -110q-102 -110 -102 -276t100 -276t266 -110t259 125l104 -78q-135 -166 -364 -166q-229 1 -371 143t-141 361q0 219 141 361t371 143q101 0 199 -44t157 -122l-109 -78q-38 57 -104 92t-141 35zM903 1450l-270 -295h-121l205 295h186z" />
    <glyph glyph-name="Ccircumflex" unicode="&#x108;" horiz-adv-x="1474" 
d="M870 -37q-328 0 -542 216t-213 546q0 330 215 546t540 216q162 -1 304 -63t212 -167l-122 -90q-50 79 -156 135t-236 56q-272 0 -437 -184t-165 -448t166 -448q166 -186 442 -186t420 215l115 -74q-80 -121 -218 -195t-325 -75zM950 1860l224 -295h-136l-170 221
l-170 -221h-135l223 295h164z" />
    <glyph glyph-name="ccircumflex" unicode="&#x109;" horiz-adv-x="1024" 
d="M629 866q-164 0 -265 -110q-102 -110 -102 -276t100 -276t266 -110t259 125l104 -78q-135 -166 -364 -166q-229 1 -371 143t-141 361q0 219 141 361t371 143q101 0 199 -44t157 -122l-109 -78q-38 57 -104 92t-141 35zM702 1450l224 -295h-135l-170 221l-170 -221h-136
l224 295h163z" />
    <glyph glyph-name="Cdotaccent" unicode="&#x10a;" horiz-adv-x="1474" 
d="M870 -37q-328 0 -542 216t-213 546q0 330 215 546t540 216q162 -1 304 -63t212 -167l-122 -90q-50 79 -156 135t-236 56q-272 0 -437 -184t-165 -448t166 -448q166 -186 442 -186t420 215l115 -74q-80 -121 -218 -195t-325 -75zM948 1737q0 -41 -30 -70t-68 -29
q-39 0 -69 29t-29 70q0 41 30 69t68 29q38 -1 68 -29t30 -69z" />
    <glyph glyph-name="cdotaccent" unicode="&#x10b;" horiz-adv-x="1024" 
d="M629 866q-164 0 -265 -110q-102 -110 -102 -276t100 -276t266 -110t259 125l104 -78q-135 -166 -364 -166q-229 1 -371 143t-141 361q0 219 141 361t371 143q101 0 199 -44t157 -122l-109 -78q-38 57 -104 92t-141 35zM702 1327q0 -41 -30 -70t-68 -29t-68 30
q-30 28 -30 69t30 70t68 29t69 -29q29 -29 29 -70z" />
    <glyph glyph-name="Ccaron" unicode="&#x10c;" horiz-adv-x="1474" 
d="M870 -37q-328 0 -542 216t-213 546q0 330 215 546t540 216q162 -1 304 -63t212 -167l-122 -90q-50 79 -156 135t-236 56q-272 0 -437 -184t-165 -448t166 -448q166 -186 442 -186t420 215l115 -74q-80 -121 -218 -195t-325 -75zM1171 1860l-223 -295h-164l-223 295h135
l170 -222l170 222h135z" />
    <glyph glyph-name="ccaron" unicode="&#x10d;" horiz-adv-x="1024" 
d="M629 866q-164 0 -265 -110q-102 -110 -102 -276t100 -276t266 -110t259 125l104 -78q-135 -166 -364 -166q-229 1 -371 143t-141 361q0 219 141 361t371 143q101 0 199 -44t157 -122l-109 -78q-38 57 -104 92t-141 35zM928 1450l-223 -295h-164l-224 295h136l170 -221
l170 221h135z" />
    <glyph glyph-name="Dcaron" unicode="&#x10e;" horiz-adv-x="1550" 
d="M193 0v1450h481q288 0 516 -179q110 -87 178 -229t68 -317q0 -174 -68 -316q-125 -260 -422 -363q-133 -46 -272 -46h-481zM340 1319v-1188h293q157 0 283 50q232 92 323 325q41 104 41 219q0 233 -160 409q-78 85 -204 135t-283 50h-293zM1016 1860l-223 -295h-164
l-223 295h135l170 -222l170 222h135z" />
    <glyph glyph-name="dcaron" unicode="&#x10f;" horiz-adv-x="1304" 
d="M977 162h-4q-59 -90 -157 -138t-206 -49q-221 -1 -358 143t-137 361t137 361t358 143q109 0 206 -49t157 -141h4v755h139v-1548h-139v162zM262 479q0 -165 97 -275t261 -110t269 110q104 110 104 276t-104 276t-267 110t-262 -110q-98 -111 -98 -277zM1503 1450
l-155 -379h-117l127 379h145z" />
    <glyph glyph-name="Dcroat" unicode="&#x110;" horiz-adv-x="1550" 
d="M176 0v711h-149v110h149v629h481q289 0 517 -179q110 -87 178 -229t68 -317q0 -174 -68 -316q-124 -260 -422 -363q-133 -46 -273 -46h-481zM324 711v-576h286q160 0 287 49q235 91 323 322q40 104 40 219q0 236 -158 408q-78 84 -205 133t-287 49h-286v-494h528v-110
h-528z" />
    <glyph glyph-name="dcroat" unicode="&#x111;" horiz-adv-x="1304" 
d="M657 1270h320v278h139v-278h115v-103h-115v-1167h-139v162h-4q-59 -90 -157 -138t-206 -49q-221 -1 -358 143t-137 361t137 361t358 143q109 0 206 -49t157 -141h4v374h-320v103zM262 479q0 -165 97 -275t261 -110t269 110q104 110 104 276t-104 276t-267 110t-262 -110
q-98 -111 -98 -277z" />
    <glyph glyph-name="Emacron" unicode="&#x112;" horiz-adv-x="1212" 
d="M340 690v-559h776v-131h-923v1450h899v-131h-752v-500h702v-129h-702zM926 1749v-111h-553v111h553z" />
    <glyph glyph-name="emacron" unicode="&#x113;" 
d="M602 866q-140 0 -236 -93t-104 -220h653q-6 139 -89 226t-224 87zM1057 508q0 -41 -2 -66h-795q4 -145 104 -246t246 -102q102 0 182 47t126 119l104 -82q-160 -203 -412 -203q-213 -1 -354 143t-141 360t139 360t350 145q211 0 332 -135t121 -340zM883 1339v-110h-553
v110h553z" />
    <glyph glyph-name="Ebreve" unicode="&#x114;" horiz-adv-x="1212" 
d="M340 690v-559h776v-131h-923v1450h899v-131h-752v-500h702v-129h-702zM647 1589q-129 0 -211 72t-90 199h90q14 -78 72 -119t139 -41t139 41t72 119h90q-8 -127 -90 -199t-211 -72z" />
    <glyph glyph-name="ebreve" unicode="&#x115;" 
d="M602 866q-140 0 -236 -93t-104 -220h653q-6 139 -89 226t-224 87zM1057 508q0 -41 -2 -66h-795q4 -145 104 -246t246 -102q102 0 182 47t126 119l104 -82q-160 -203 -412 -203q-213 -1 -354 143t-141 360t139 360t350 145q211 0 332 -135t121 -340zM602 1290q82 0 140 41
t71 119h90q-8 -127 -90 -199q-82 -71 -211 -71t-211 72t-90 198h90q13 -78 71 -119t140 -41z" />
    <glyph glyph-name="Edotaccent" unicode="&#x116;" horiz-adv-x="1212" 
d="M340 690v-559h776v-131h-923v1450h899v-131h-752v-500h702v-129h-702zM756 1737q0 -41 -30 -70t-69 -29t-69 29t-29 70q0 41 30 69q31 28 69 29q38 -1 68 -29t30 -69z" />
    <glyph glyph-name="edotaccent" unicode="&#x117;" 
d="M602 866q-140 0 -236 -93t-104 -220h653q-6 139 -89 226t-224 87zM1057 508q0 -41 -2 -66h-795q4 -145 104 -246t246 -102q102 0 182 47t126 119l104 -82q-160 -203 -412 -203q-213 -1 -354 143t-141 360t139 360t350 145q211 0 332 -135t121 -340zM700 1327
q0 -41 -30 -70t-68 -29t-68 30q-30 28 -30 69t30 70t68 29t69 -29q29 -29 29 -70z" />
    <glyph glyph-name="Eogonek" unicode="&#x118;" horiz-adv-x="1212" 
d="M987 -457q-74 0 -129 49t-55 125q0 135 182 283h-792v1450h899v-131h-752v-500h702v-129h-702v-559h776v-131h-33q-85 -84 -121 -138t-36 -104t30 -76q30 -28 84 -28t93 45l38 -82q-74 -74 -184 -74z" />
    <glyph glyph-name="eogonek" unicode="&#x119;" 
d="M650 -457q-93 0 -147 49t-54 125q0 127 151 258q-209 5 -347 147t-138 357t139 359t350 145q211 0 332 -135t121 -340q0 -41 -2 -66h-795q4 -145 104 -246t246 -102q102 0 182 47t126 119l104 -82q-119 -156 -309 -192q-74 -76 -108 -128t-34 -100t30 -76t84 -28t93 45
l39 -82q-74 -74 -167 -74zM602 866q-140 0 -236 -93t-104 -220h653q-6 139 -89 226t-224 87z" />
    <glyph glyph-name="Ecaron" unicode="&#x11a;" horiz-adv-x="1212" 
d="M340 690v-559h776v-131h-923v1450h899v-131h-752v-500h702v-129h-702zM954 1860l-223 -295h-164l-223 295h135l170 -222l170 222h135z" />
    <glyph glyph-name="ecaron" unicode="&#x11b;" 
d="M602 866q-140 0 -236 -93t-104 -220h653q-6 139 -89 226t-224 87zM1057 508q0 -41 -2 -66h-795q4 -145 104 -246t246 -102q102 0 182 47t126 119l104 -82q-160 -203 -412 -203q-213 -1 -354 143t-141 360t139 360t350 145q211 0 332 -135t121 -340zM907 1450l-223 -295
h-164l-223 295h135l170 -221l170 221h135z" />
    <glyph glyph-name="Gcircumflex" unicode="&#x11c;" horiz-adv-x="1595" 
d="M868 1358q-266 0 -432 -186t-166 -447q0 -262 166 -446q166 -185 425 -185t403 94v441h-338v129h485v-654q-231 -141 -550 -141t-533 216t-213 546q0 330 215 546q214 216 542 216t523 -195l-103 -102q-158 168 -424 168zM963 1860l223 -295h-135l-170 221l-170 -221
h-136l224 295h164z" />
    <glyph glyph-name="gcircumflex" unicode="&#x11d;" horiz-adv-x="1294" 
d="M977 8v180h-4q-53 -88 -153 -138t-210 -50q-221 0 -358 137t-137 348t138 355t357 143q109 0 208 -50t155 -140h4v165h139v-950q0 -148 -62 -265q-36 -69 -91 -119t-151 -83t-216 -33q-279 0 -461 193l101 106q59 -75 159 -125t207 -51q193 1 284 105t91 272zM262 492
q0 -158 98 -266t262 -108t268 104q103 104 103 264t-105 270t-267 110q-163 0 -261 -108t-98 -266zM713 1450l223 -295h-135l-170 221l-170 -221h-135l223 295h164z" />
    <glyph glyph-name="Gbreve" unicode="&#x11e;" horiz-adv-x="1595" 
d="M868 1358q-266 0 -432 -186t-166 -447q0 -262 166 -446q166 -185 425 -185t403 94v441h-338v129h485v-654q-231 -141 -550 -141t-533 216t-213 546q0 330 215 546q214 216 542 216t523 -195l-103 -102q-158 168 -424 168zM872 1589q-128 0 -210 72t-91 199h91
q14 -78 71 -119t139 -41t140 41q57 41 71 119h91q-8 -127 -90 -199t-212 -72z" />
    <glyph glyph-name="gbreve" unicode="&#x11f;" horiz-adv-x="1294" 
d="M977 8v180h-4q-53 -88 -153 -138t-210 -50q-221 0 -358 137t-137 348t138 355t357 143q109 0 208 -50t155 -140h4v165h139v-950q0 -148 -62 -265q-36 -69 -91 -119t-151 -83t-216 -33q-279 0 -461 193l101 106q59 -75 159 -125t207 -51q193 1 284 105t91 272zM262 492
q0 -158 98 -266t262 -108t268 104q103 104 103 264t-105 270t-267 110q-163 0 -261 -108t-98 -266zM635 1290q81 0 139 41t72 119h90q-8 -127 -90 -199q-82 -71 -211 -71t-211 72t-90 198h90q14 -78 72 -119t139 -41z" />
    <glyph glyph-name="Gdotaccent" unicode="&#x120;" horiz-adv-x="1595" 
d="M868 1358q-266 0 -432 -186t-166 -447q0 -262 166 -446q166 -185 425 -185t403 94v441h-338v129h485v-654q-231 -141 -550 -141t-533 216t-213 546q0 330 215 546q214 216 542 216t523 -195l-103 -102q-158 168 -424 168zM969 1737q0 -41 -30 -70t-69 -29q-38 0 -68 29
t-30 70t30 69t68 29q38 -1 69 -29q30 -28 30 -69z" />
    <glyph glyph-name="gdotaccent" unicode="&#x121;" horiz-adv-x="1294" 
d="M977 8v180h-4q-53 -88 -153 -138t-210 -50q-221 0 -358 137t-137 348t138 355t357 143q109 0 208 -50t155 -140h4v165h139v-950q0 -148 -62 -265q-36 -69 -91 -119t-151 -83t-216 -33q-279 0 -461 193l101 106q59 -75 159 -125t207 -51q193 1 284 105t91 272zM262 492
q0 -158 98 -266t262 -108t268 104q103 104 103 264t-105 270t-267 110q-163 0 -261 -108t-98 -266zM727 1327q0 -41 -30 -70q-31 -29 -69 -29t-68 30q-30 28 -30 69t30 70t69 29t69 -30q30 -28 29 -69z" />
    <glyph glyph-name="Gcommaaccent" unicode="&#x122;" horiz-adv-x="1603" 
d="M868 1358q-266 0 -432 -186t-166 -447q0 -262 166 -446q166 -185 425 -185t403 94v441h-338v129h485v-654q-231 -141 -550 -141t-533 216t-213 546q0 330 215 546q214 216 542 216t523 -195l-103 -102q-158 168 -424 168zM975 -92l-156 -379h-117l127 379h146z" />
    <glyph glyph-name="gcommaaccent" unicode="&#x123;" horiz-adv-x="1294" 
d="M977 8v180h-4q-53 -88 -153 -138t-210 -50q-221 0 -358 137t-137 348t138 355t357 143q109 0 208 -50t155 -140h4v165h139v-950q0 -148 -62 -265q-36 -69 -91 -119t-151 -83t-216 -33q-279 0 -461 193l101 106q59 -75 159 -125t207 -51q193 1 284 105t91 272zM262 492
q0 -158 98 -266t262 -108t268 104q103 104 103 264t-105 270t-267 110q-163 0 -261 -108t-98 -266zM575 1155l156 379h117l-127 -379h-146z" />
    <glyph glyph-name="Hcircumflex" unicode="&#x124;" horiz-adv-x="1470" 
d="M193 0v1450h147v-629h790v629h148v-1450h-148v686h-790v-686h-147zM815 1860l223 -295h-135l-170 221l-170 -221h-135l223 295h164z" />
    <glyph glyph-name="hcircumflex" unicode="&#x125;" horiz-adv-x="1193" 
d="M328 801h4q37 84 127 133t194 49q177 0 271 -106t94 -289v-588h-139v530q-1 164 -59 250t-190 86t-218 -97q-84 -97 -84 -277v-492h-140v1548h140v-747zM342 1925l223 -295h-135l-170 221l-170 -221h-135l223 295h164z" />
    <glyph glyph-name="Hbar" unicode="&#x126;" horiz-adv-x="1470" 
d="M193 0v1450h147v-324h790v324h148v-1450h-148v686h-790v-686h-147zM340 821h790v203h-790v-203z" />
    <glyph glyph-name="hbar" unicode="&#x127;" horiz-adv-x="1193" 
d="M78 1270h110v278h140v-278h323v-103h-323v-366h4q37 84 127 133t194 49q177 0 271 -106t94 -289v-588h-139v530q-1 164 -59 250t-190 86t-218 -97q-84 -97 -84 -277v-492h-140v1167h-110v103z" />
    <glyph glyph-name="Itilde" unicode="&#x128;" horiz-adv-x="532" 
d="M340 1450v-1450h-147v1450h147zM125 1802q55 0 153 -47t134 -47q72 0 100 102h88q-33 -213 -188 -213q-60 -1 -150 47t-137 48q-71 -1 -100 -103h-88q33 213 188 213z" />
    <glyph glyph-name="itilde" unicode="&#x129;" horiz-adv-x="512" 
d="M326 958v-958h-140v958h140zM117 1393q55 0 153 -47t133 -48q72 0 101 103h88q-33 -213 -189 -213q-59 0 -149 47t-137 47q-72 0 -101 -102h-88q33 213 189 213z" />
    <glyph glyph-name="Imacron" unicode="&#x12a;" horiz-adv-x="532" 
d="M340 1450v-1450h-147v1450h147zM545 1749v-111h-553v111h553z" />
    <glyph glyph-name="imacron" unicode="&#x12b;" horiz-adv-x="512" 
d="M326 958v-958h-140v958h140zM535 1339v-110h-553v110h553z" />
    <glyph glyph-name="Ibreve" unicode="&#x12c;" horiz-adv-x="532" 
d="M340 1450v-1450h-147v1450h147zM266 1714q82 0 140 41q57 41 71 119h90q-8 -127 -90 -199q-82 -71 -211 -71t-211 72t-90 198h90q13 -78 71 -119t140 -41z" />
    <glyph glyph-name="ibreve" unicode="&#x12d;" horiz-adv-x="512" 
d="M326 958v-958h-140v958h140zM256 1112q-129 0 -211 72t-90 198h90q13 -78 71 -118t140 -41q82 1 140 41t71 118h90q-8 -126 -90 -198t-211 -72z" />
    <glyph glyph-name="Iogonek" unicode="&#x12e;" horiz-adv-x="532" 
d="M231 -457q-76 0 -130 49t-54 125q0 135 182 283h-36v1450h147v-1450h-12q-84 -84 -121 -138t-37 -104t30 -76q30 -28 84 -28t93 45l39 -82q-74 -74 -185 -74z" />
    <glyph glyph-name="iogonek" unicode="&#x12f;" horiz-adv-x="512" 
d="M221 -457q-74 0 -129 49t-55 125q0 135 182 283h-33v958h140v-958h-9q-85 -84 -121 -138t-36 -104t30 -76q30 -28 84 -28t93 45l39 -82q-74 -74 -185 -74zM354 1327q0 -41 -30 -70t-68 -29q-39 0 -69 30q-30 28 -29 69q0 41 29 70q30 29 69 29t69 -29q29 -29 29 -70z" />
    <glyph glyph-name="Idotaccent" unicode="&#x130;" horiz-adv-x="532" 
d="M340 1450v-1450h-147v1450h147zM367 1737q0 -41 -30 -70t-69 -29q-38 0 -68 29t-30 70t30 69t68 29q38 -1 69 -29q30 -28 30 -69z" />
    <glyph glyph-name="dotlessi" unicode="&#x131;" horiz-adv-x="512" 
d="M326 958v-958h-140v958h140z" />
    <glyph glyph-name="IJ" unicode="&#x132;" horiz-adv-x="1503" 
d="M340 1450v-1450h-147v1450h147zM920 92q256 0 256 336v1022h147v-1032q0 -171 -73 -297q-88 -158 -336 -158q-134 0 -237 81t-130 214l137 37q18 -91 80 -147t156 -56z" />
    <glyph glyph-name="ij" unicode="&#x133;" horiz-adv-x="1019" 
d="M326 958v-958h-140v958h140zM354 1327q0 -41 -30 -70t-68 -29q-39 0 -69 30q-30 28 -29 69q0 41 29 70q30 29 69 29t69 -29q29 -29 29 -70zM694 958h140v-1148q0 -301 -273 -302q-61 1 -110 15l20 117q41 -12 105 -12t91 50q28 51 27 154v1126zM862 1327q0 -41 -30 -70
t-68 -29q-39 0 -69 30q-30 28 -29 69q0 41 29 70q30 29 69 29t69 -29q29 -29 29 -70z" />
    <glyph glyph-name="Jcircumflex" unicode="&#x134;" horiz-adv-x="1007" 
d="M424 92q256 0 256 336v1022h147v-1032q0 -169 -72 -297q-89 -158 -337 -158q-134 0 -237 81t-130 214l137 37q18 -91 80 -147t156 -56zM834 1860l223 -295h-135l-170 221l-170 -221h-136l224 295h164z" />
    <glyph glyph-name="jcircumflex" unicode="&#x135;" horiz-adv-x="514" 
d="M188 958h140v-1148q0 -301 -273 -302q-61 1 -110 15l20 117q41 -12 105 -12t91 50q28 51 27 154v1126zM340 1450l223 -295h-135l-170 221l-170 -221h-135l223 295h164z" />
    <glyph glyph-name="Kcommaaccent" unicode="&#x136;" horiz-adv-x="1286" 
d="M340 1450v-651h2l690 651h211l-731 -657l772 -793h-217l-725 772h-2v-772h-147v1450h147zM795 -92l-156 -379h-117l127 379h146z" />
    <glyph glyph-name="kcommaaccent" unicode="&#x137;" horiz-adv-x="1044" 
d="M328 1548v-1022h6l442 432h201l-483 -438l532 -520h-205l-487 504h-6v-504h-140v1548h140zM674 -92l-156 -379h-117l127 379h146z" />
    <glyph glyph-name="Lacute" unicode="&#x139;" horiz-adv-x="1044" 
d="M340 1450v-1319h676v-131h-823v1450h147zM596 1860l-270 -295h-121l205 295h186z" />
    <glyph glyph-name="lacute" unicode="&#x13a;" horiz-adv-x="516" 
d="M328 1548v-1548h-140v1548h140zM584 1917l-271 -295h-120l204 295h187z" />
    <glyph glyph-name="Lcommaaccent" unicode="&#x13b;" horiz-adv-x="1044" 
d="M340 1450v-1319h676v-131h-823v1450h147zM711 -92l-156 -379h-117l127 379h146z" />
    <glyph glyph-name="lcommaaccent" unicode="&#x13c;" horiz-adv-x="516" 
d="M328 1548v-1548h-140v1548h140zM367 -92l-156 -379h-117l127 379h146z" />
    <glyph glyph-name="Lcaron" unicode="&#x13d;" horiz-adv-x="1044" 
d="M340 1450v-1319h676v-131h-823v1450h147zM770 1450l-156 -379h-116l127 379h145z" />
    <glyph glyph-name="lcaron" unicode="&#x13e;" horiz-adv-x="516" 
d="M328 1548v-1548h-140v1548h140zM717 1450l-156 -379h-117l127 379h146z" />
    <glyph glyph-name="Ldot" unicode="&#x13f;" horiz-adv-x="1044" 
d="M340 1450v-1319h676v-131h-823v1450h147zM868 672q0 -41 -30 -70t-68 -29q-39 0 -69 29t-29 70q0 42 30 70t68 28t68 -28t30 -70z" />
    <glyph glyph-name="ldot" unicode="&#x140;" horiz-adv-x="638" 
d="M328 1548v-1548h-140v1548h140zM672 672q0 -41 -30 -70t-69 -29t-69 29t-29 70q0 42 30 70q31 28 69 28t68 -28t30 -70z" />
    <glyph glyph-name="Lslash" unicode="&#x141;" horiz-adv-x="1044" 
d="M340 1450v-709l442 381v-143l-442 -381v-467h676v-131h-823v496l-168 -144v144l168 143v811h147z" />
    <glyph glyph-name="lslash" unicode="&#x142;" horiz-adv-x="516" 
d="M324 1548v-610l165 172v-149l-165 -170v-791h-136v678l-165 -170v149l165 168v723h136z" />
    <glyph glyph-name="Nacute" unicode="&#x143;" horiz-adv-x="1564" 
d="M1225 215v1235h147v-1450h-184l-844 1247h-4v-1247h-147v1450h184l844 -1235h4zM1096 1860l-271 -295h-120l204 295h187z" />
    <glyph glyph-name="nacute" unicode="&#x144;" horiz-adv-x="1189" 
d="M317 795h5q41 84 132 136t195 52q177 0 271 -106t94 -289v-588h-140v530q0 164 -58 250t-190 86t-218 -97q-84 -97 -84 -277v-492h-140v748q0 122 -8 210h133q8 -68 8 -163zM899 1450l-270 -295h-121l205 295h186z" />
    <glyph glyph-name="Ncommaaccent" unicode="&#x145;" horiz-adv-x="1564" 
d="M1225 215v1235h147v-1450h-184l-844 1247h-4v-1247h-147v1450h184l844 -1235h4zM870 -92l-155 -379h-117l127 379h145z" />
    <glyph glyph-name="ncommaaccent" unicode="&#x146;" horiz-adv-x="1189" 
d="M317 795h5q41 84 132 136t195 52q177 0 271 -106t94 -289v-588h-140v530q0 164 -58 250t-190 86t-218 -97q-84 -97 -84 -277v-492h-140v748q0 122 -8 210h133q8 -68 8 -163zM700 -92l-155 -379h-117l127 379h145z" />
    <glyph glyph-name="Ncaron" unicode="&#x147;" horiz-adv-x="1564" 
d="M1225 215v1235h147v-1450h-184l-844 1247h-4v-1247h-147v1450h184l844 -1235h4zM1090 1860l-224 -295h-164l-223 295h135l170 -222l170 222h136z" />
    <glyph glyph-name="ncaron" unicode="&#x148;" horiz-adv-x="1189" 
d="M317 795h5q41 84 132 136t195 52q177 0 271 -106t94 -289v-588h-140v530q0 164 -58 250t-190 86t-218 -97q-84 -97 -84 -277v-492h-140v748q0 122 -8 210h133q8 -68 8 -163zM905 1450l-223 -295h-164l-223 295h135l170 -221l170 221h135z" />
    <glyph glyph-name="napostrophe" unicode="&#x149;" horiz-adv-x="1189" 
d="M317 795h5q41 84 132 136t195 52q177 0 271 -106t94 -289v-588h-140v530q0 164 -58 250t-190 86t-218 -97q-84 -97 -84 -277v-492h-140v748q0 122 -8 210h133q8 -68 8 -163zM217 1548l-156 -379h-116l127 379h145z" />
    <glyph glyph-name="Omacron" unicode="&#x14c;" horiz-adv-x="1740" 
d="M1626 725q0 -330 -215 -546t-541 -216t-540 216t-215 546q0 330 215 546q214 216 540 216t541 -216t215 -546zM1470 725q0 264 -164 449q-166 184 -436 184t-435 -184t-165 -448t165 -448t435 -184t435 184t165 447zM1155 1749v-111h-553v111h553z" />
    <glyph glyph-name="omacron" unicode="&#x14d;" horiz-adv-x="1251" 
d="M1137 479q1 -217 -143 -360t-367 -143t-367 142q-144 144 -145 361q0 217 144 361q143 144 367 143q224 1 368 -143t143 -361zM262 479q0 -165 100 -275t264 -110t263 110q100 110 100 274q0 165 -100 277q-100 111 -263 111t-264 -111q-100 -112 -100 -276zM905 1339
v-110h-553v110h553z" />
    <glyph glyph-name="Obreve" unicode="&#x14e;" horiz-adv-x="1740" 
d="M1626 725q0 -330 -215 -546t-541 -216t-540 216t-215 546q0 330 215 546q214 216 540 216t541 -216t215 -546zM1470 725q0 264 -164 449q-166 184 -436 184t-435 -184t-165 -448t165 -448t435 -184t435 184t165 447zM876 1589q-128 0 -210 72t-91 199h91q14 -78 71 -119
t139 -41t140 41q57 41 71 119h91q-8 -127 -90 -199q-84 -72 -212 -72z" />
    <glyph glyph-name="obreve" unicode="&#x14f;" horiz-adv-x="1251" 
d="M1137 479q1 -217 -143 -360t-367 -143t-367 142q-144 144 -145 361q0 217 144 361q143 144 367 143q224 1 368 -143t143 -361zM262 479q0 -165 100 -275t264 -110t263 110q100 110 100 274q0 165 -100 277q-100 111 -263 111t-264 -111q-100 -112 -100 -276zM628 1290
q82 0 140 41t72 119h90q-8 -127 -90 -199q-82 -71 -211 -71t-211 72t-90 198h90q14 -78 71 -119t139 -41z" />
    <glyph glyph-name="Ohungarumlaut" unicode="&#x150;" horiz-adv-x="1740" 
d="M1626 725q0 -330 -215 -546t-541 -216t-540 216t-215 546q0 330 215 546q214 216 540 216t541 -216t215 -546zM1470 725q0 264 -164 449q-166 184 -436 184t-435 -184t-165 -448t165 -448t435 -184t435 184t165 447zM1026 1860l-272 -295h-121l207 295h186zM1374 1860
l-270 -295h-121l205 295h186z" />
    <glyph glyph-name="ohungarumlaut" unicode="&#x151;" horiz-adv-x="1251" 
d="M1137 479q1 -217 -143 -360t-367 -143t-367 142q-144 144 -145 361q0 217 144 361q143 144 367 143q224 1 368 -143t143 -361zM262 479q0 -165 100 -275t264 -110t263 110q100 110 100 274q0 165 -100 277q-100 111 -263 111t-264 -111q-100 -112 -100 -276zM795 1450
l-273 -295h-121l207 295h187zM1143 1450l-271 -295h-120l204 295h187z" />
    <glyph glyph-name="OE" unicode="&#x152;" horiz-adv-x="2031" 
d="M907 1450h1004v-131h-682v-500h633v-129h-633v-559h706v-131h-1028q-288 0 -516 179q-111 87 -179 229t-67 317q0 174 68 316q125 260 422 363q133 46 272 46zM1081 1319h-133q-158 0 -284 -50q-232 -92 -322 -325q-41 -104 -41 -219q0 -233 160 -409q78 -85 204 -135
t283 -50h133v1188z" />
    <glyph glyph-name="oe" unicode="&#x153;" horiz-adv-x="2035" 
d="M1460 983q219 0 340 -135t121 -340q0 -41 -2 -66h-799q4 -145 106 -246t249 -102q102 0 182 47t125 119l104 -82q-160 -203 -413 -203q-283 0 -418 234q-141 -233 -432 -234q-221 -1 -365 143t-143 361q0 217 143 361t365 143q289 0 430 -233q135 233 407 233zM989 479
q0 164 -101 276q-101 111 -264 111t-265 -111q-101 -112 -101 -276q0 -165 100 -275t264 -110t266 110q101 110 101 275zM1466 866q-142 0 -236 -93q-96 -93 -104 -220h654q-6 139 -89 226t-225 87z" />
    <glyph glyph-name="Racute" unicode="&#x154;" horiz-adv-x="1226" 
d="M340 678v-678h-147v1450h425q496 0 496 -387q0 -158 -103 -256t-268 -117l424 -690h-180l-401 678h-246zM340 1323v-518h256q371 0 371 259t-365 259h-262zM864 1860l-270 -295h-121l205 295h186z" />
    <glyph glyph-name="racute" unicode="&#x155;" horiz-adv-x="737" 
d="M184 0v748q0 123 -8 210h133q8 -68 8 -163h5q43 86 124 137q82 51 183 51q53 0 92 -10l-19 -131q-33 12 -98 12q-121 0 -201 -91t-79 -271v-492h-140zM629 1450l-271 -295h-120l204 295h187z" />
    <glyph glyph-name="Rcommaaccent" unicode="&#x156;" horiz-adv-x="1226" 
d="M340 678v-678h-147v1450h425q496 0 496 -387q0 -158 -103 -256t-268 -117l424 -690h-180l-401 678h-246zM340 1323v-518h256q371 0 371 259t-365 259h-262zM750 -92l-156 -379h-117l127 379h146z" />
    <glyph glyph-name="rcommaaccent" unicode="&#x157;" horiz-adv-x="737" 
d="M184 0v748q0 123 -8 210h133q8 -68 8 -163h5q43 86 124 137q82 51 183 51q53 0 92 -10l-19 -131q-33 12 -98 12q-121 0 -201 -91t-79 -271v-492h-140zM360 -92l-155 -379h-117l127 379h145z" />
    <glyph glyph-name="Rcaron" unicode="&#x158;" horiz-adv-x="1226" 
d="M340 678v-678h-147v1450h425q496 0 496 -387q0 -158 -103 -256t-268 -117l424 -690h-180l-401 678h-246zM340 1323v-518h256q371 0 371 259t-365 259h-262zM895 1860l-223 -295h-164l-223 295h135l170 -222l170 222h135z" />
    <glyph glyph-name="rcaron" unicode="&#x159;" horiz-adv-x="737" 
d="M184 0v748q0 123 -8 210h133q8 -68 8 -163h5q43 86 124 137q82 51 183 51q53 0 92 -10l-19 -131q-33 12 -98 12q-121 0 -201 -91t-79 -271v-492h-140zM745 1450l-223 -295h-164l-223 295h135l170 -221l170 221h135z" />
    <glyph glyph-name="Sacute" unicode="&#x15a;" horiz-adv-x="1155" 
d="M596 1362q-121 0 -215 -72t-94 -186t61 -178q23 -25 75 -52q52 -26 82 -36q283 -90 366 -146t107 -103q54 -100 54 -208q0 -203 -141 -311t-332 -107q-137 0 -259 55t-198 160l127 94q111 -182 332 -182q123 0 222 75t99 204t-82 191q-34 26 -69 47t-162 62
q-127 39 -184 65q-162 72 -214 189q-32 71 -32 184t73 207q135 174 390 173q139 0 246 -49t164 -127l-117 -94q-104 145 -299 145zM889 1860l-271 -295h-120l204 295h187z" />
    <glyph glyph-name="sacute" unicode="&#x15b;" horiz-adv-x="909" 
d="M456 866q-80 0 -140 -38t-60 -108t53 -106t201 -66q308 -62 307 -276q0 -152 -105 -224t-255 -73q-252 0 -379 187l110 82q39 -66 111 -108t164 -42t154 40q63 40 63 120t-67 119t-168 62t-140 37t-86 44q-98 60 -97 193t100 203t222 71q122 0 216 -46t141 -126l-107 -80
q-31 61 -94 98t-144 37zM778 1450l-270 -295h-121l205 295h186z" />
    <glyph glyph-name="Scircumflex" unicode="&#x15c;" horiz-adv-x="1155" 
d="M596 1362q-121 0 -215 -72t-94 -186t61 -178q23 -25 75 -52q52 -26 82 -36q283 -90 366 -146t107 -103q54 -100 54 -208q0 -203 -141 -311t-332 -107q-137 0 -259 55t-198 160l127 94q111 -182 332 -182q123 0 222 75t99 204t-82 191q-34 26 -69 47t-162 62
q-127 39 -184 65q-162 72 -214 189q-32 71 -32 184t73 207q135 174 390 173q139 0 246 -49t164 -127l-117 -94q-104 145 -299 145zM682 1860l223 -295h-135l-170 221l-170 -221h-135l223 295h164z" />
    <glyph glyph-name="scircumflex" unicode="&#x15d;" horiz-adv-x="909" 
d="M456 866q-80 0 -140 -38t-60 -108t53 -106t201 -66q308 -62 307 -276q0 -152 -105 -224t-255 -73q-252 0 -379 187l110 82q39 -66 111 -108t164 -42t154 40q63 40 63 120t-67 119t-168 62t-140 37t-86 44q-98 60 -97 193t100 203t222 71q122 0 216 -46t141 -126l-107 -80
q-31 61 -94 98t-144 37zM553 1450l223 -295h-135l-170 221l-170 -221h-135l223 295h164z" />
    <glyph glyph-name="Scedilla" unicode="&#x15e;" horiz-adv-x="1155" 
d="M596 1362q-121 0 -215 -72t-94 -186t61 -178q23 -25 75 -52q52 -26 82 -36q283 -90 366 -146t107 -103q54 -100 54 -208q0 -189 -123 -295t-297 -121l-73 -119q25 8 82 8t107 -38q50 -39 50 -121t-72 -124t-172 -42q-101 0 -190 41l33 74q59 -29 125 -29t109 23
q44 23 44 67q0 80 -110 80q-43 0 -88 -16l-37 30l104 166q-283 14 -422 213l127 94q111 -182 332 -182q123 0 222 75t99 204t-82 191q-34 26 -69 47t-162 62q-127 39 -184 65q-162 72 -214 189q-32 71 -32 184t73 207q135 174 390 173q139 0 246 -49t164 -127l-117 -94
q-104 145 -299 145z" />
    <glyph glyph-name="scedilla" unicode="&#x15f;" horiz-adv-x="909" 
d="M456 866q-80 0 -140 -38t-60 -108t53 -106t201 -66q308 -62 307 -276q0 -134 -86 -206t-217 -86l-82 -134q24 8 82 8t108 -38q50 -39 50 -121t-72 -124t-173 -42t-189 41l32 74q59 -29 125 -29t110 23t44 67q0 80 -111 80q-43 0 -88 -16l-37 30l111 178q-233 14 -346 185
l110 82q39 -66 111 -108t164 -42t154 40q63 40 63 120t-67 119t-168 62t-140 37t-86 44q-98 60 -97 193t100 203t222 71q122 0 216 -46t141 -126l-107 -80q-31 61 -94 98t-144 37z" />
    <glyph glyph-name="Scaron" unicode="&#x160;" horiz-adv-x="1155" 
d="M596 1362q-121 0 -215 -72t-94 -186t61 -178q23 -25 75 -52q52 -26 82 -36q283 -90 366 -146t107 -103q54 -100 54 -208q0 -203 -141 -311t-332 -107q-137 0 -259 55t-198 160l127 94q111 -182 332 -182q123 0 222 75t99 204t-82 191q-34 26 -69 47t-162 62
q-127 39 -184 65q-162 72 -214 189q-32 71 -32 184t73 207q135 174 390 173q139 0 246 -49t164 -127l-117 -94q-104 145 -299 145zM891 1860l-223 -295h-164l-223 295h135l170 -222l170 222h135z" />
    <glyph glyph-name="scaron" unicode="&#x161;" horiz-adv-x="909" 
d="M456 866q-80 0 -140 -38t-60 -108t53 -106t201 -66q308 -62 307 -276q0 -152 -105 -224t-255 -73q-252 0 -379 187l110 82q39 -66 111 -108t164 -42t154 40q63 40 63 120t-67 119t-168 62t-140 37t-86 44q-98 60 -97 193t100 203t222 71q122 0 216 -46t141 -126l-107 -80
q-31 61 -94 98t-144 37zM776 1450l-223 -295h-164l-223 295h135l170 -221l170 221h135z" />
    <glyph glyph-name="Tcommaaccent" unicode="&#x162;" horiz-adv-x="1167" 
d="M657 1319v-1319h-20l-96 -154q25 8 82 8t107 -38q50 -39 50 -121t-72 -124t-172 -42q-101 0 -190 41l33 74q59 -29 125 -29t109 23q44 23 44 67q0 80 -110 80q-43 0 -88 -16l-37 30l127 201h-39v1319h-485v131h1118v-131h-486z" />
    <glyph glyph-name="tcommaaccent" unicode="&#x163;" horiz-adv-x="649" 
d="M616 958v-116h-270v-559q0 -101 37 -139t99 -38t128 31l6 -121q-49 -20 -118 -26l-88 -144q25 8 82 8t107 -38q50 -39 50 -121q1 -82 -71 -124t-173 -42t-190 41l33 74q58 -29 124 -29t110 23t44 67q0 80 -110 80q-43 0 -88 -16l-37 30l121 191q-86 8 -146 68
q-59 60 -59 186v598h-199v116h199v271h139v-271h270z" />
    <glyph glyph-name="Tcaron" unicode="&#x164;" horiz-adv-x="1167" 
d="M657 1319v-1319h-147v1319h-485v131h1118v-131h-486zM889 1860l-223 -295h-164l-223 295h135l170 -222l170 222h135z" />
    <glyph glyph-name="tcaron" unicode="&#x165;" horiz-adv-x="649" 
d="M616 958v-116h-270v-559q0 -101 37 -139t99 -38t128 31l6 -121q-76 -28 -168 -28t-167 57q-74 57 -74 199v598h-199v116h199v271h139v-271h270zM733 1497l-155 -379h-117l127 379h145z" />
    <glyph glyph-name="Tbar" unicode="&#x166;" horiz-adv-x="1167" 
d="M150 1112h360v207h-485v131h1118v-131h-486v-207h340v-102h-340v-1010h-147v1010h-360v102z" />
    <glyph glyph-name="tbar" unicode="&#x167;" horiz-adv-x="649" 
d="M25 643h182v199h-199v116h199v271h139v-271h270v-116h-270v-199h252v-102h-252v-258q0 -101 37 -139t99 -38t128 31l6 -121q-76 -28 -168 -28t-167 57q-74 57 -74 199v297h-182v102z" />
    <glyph glyph-name="Utilde" unicode="&#x168;" horiz-adv-x="1454" 
d="M727 -37q-155 0 -267 55q-112 56 -168 146q-108 175 -108 377v909h148v-893q0 -197 95 -330t300 -133t300 133t95 330v893h148v-909q0 -203 -108 -377q-56 -90 -168 -146t-267 -55zM584 1802q55 0 153 -47t133 -47q72 0 101 102h88q-33 -213 -189 -213q-59 -1 -149 47
t-137 48q-72 -1 -101 -103h-88q33 213 189 213z" />
    <glyph glyph-name="utilde" unicode="&#x169;" horiz-adv-x="1189" 
d="M176 371v587h139v-530q1 -164 59 -250t190 -86t217 97t85 278v491h140v-747q0 -123 8 -211h-133q-8 68 -9 164h-4q-41 -84 -132 -136t-195 -53q-177 1 -271 107t-94 289zM453 1393q55 0 153 -47t133 -48q72 0 101 103h88q-33 -213 -189 -213q-59 0 -149 47t-137 47
q-72 0 -101 -102h-88q33 213 189 213z" />
    <glyph glyph-name="Umacron" unicode="&#x16a;" horiz-adv-x="1454" 
d="M727 -37q-155 0 -267 55q-112 56 -168 146q-108 175 -108 377v909h148v-893q0 -197 95 -330t300 -133t300 133t95 330v893h148v-909q0 -203 -108 -377q-56 -90 -168 -146t-267 -55zM1006 1749v-111h-553v111h553z" />
    <glyph glyph-name="umacron" unicode="&#x16b;" horiz-adv-x="1189" 
d="M176 371v587h139v-530q1 -164 59 -250t190 -86t217 97t85 278v491h140v-747q0 -123 8 -211h-133q-8 68 -9 164h-4q-41 -84 -132 -136t-195 -53q-177 1 -271 107t-94 289zM870 1339v-110h-553v110h553z" />
    <glyph glyph-name="Ubreve" unicode="&#x16c;" horiz-adv-x="1454" 
d="M727 -37q-155 0 -267 55q-112 56 -168 146q-108 175 -108 377v909h148v-893q0 -197 95 -330t300 -133t300 133t95 330v893h148v-909q0 -203 -108 -377q-56 -90 -168 -146t-267 -55zM727 1589q-129 0 -211 72t-90 199h90q14 -78 72 -119t139 -41t139 41t72 119h90
q-8 -127 -90 -199t-211 -72z" />
    <glyph glyph-name="ubreve" unicode="&#x16d;" horiz-adv-x="1189" 
d="M176 371v587h139v-530q1 -164 59 -250t190 -86t217 97t85 278v491h140v-747q0 -123 8 -211h-133q-8 68 -9 164h-4q-41 -84 -132 -136t-195 -53q-177 1 -271 107t-94 289zM598 1290q82 0 140 41t71 119h90q-8 -127 -90 -199q-82 -71 -211 -71t-211 72t-90 198h90
q13 -78 71 -119t140 -41z" />
    <glyph glyph-name="Uring" unicode="&#x16e;" horiz-adv-x="1454" 
d="M727 -37q-155 0 -267 55q-112 56 -168 146q-108 175 -108 377v909h148v-893q0 -197 95 -330t300 -133t300 133t95 330v893h148v-909q0 -203 -108 -377q-56 -90 -168 -146t-267 -55zM731 1935q81 0 139 -57t58 -138t-58 -137q-58 -57 -139 -57q-80 0 -138 56t-58 138
q0 81 58 138t138 57zM854 1741q0 51 -36 86t-87 35t-87 -35t-36 -86t36 -86t87 -35t87 35t36 86z" />
    <glyph glyph-name="uring" unicode="&#x16f;" horiz-adv-x="1189" 
d="M176 371v587h139v-530q1 -164 59 -250t190 -86t217 97t85 278v491h140v-747q0 -123 8 -211h-133q-8 68 -9 164h-4q-41 -84 -132 -136t-195 -53q-177 1 -271 107t-94 289zM791 1330q-1 -81 -59 -137t-138 -56t-138 56t-58 137t58 138q58 58 138 58t138 -58t59 -138z
M717 1331q0 51 -36 86t-87 35t-87 -35t-36 -86t36 -86t87 -35t87 35t36 86z" />
    <glyph glyph-name="Uhungarumlaut" unicode="&#x170;" horiz-adv-x="1454" 
d="M727 -37q-155 0 -267 55q-112 56 -168 146q-108 175 -108 377v909h148v-893q0 -197 95 -330t300 -133t300 133t95 330v893h148v-909q0 -203 -108 -377q-56 -90 -168 -146t-267 -55zM870 1860l-272 -295h-121l207 295h186zM1219 1860l-271 -295h-121l205 295h187z" />
    <glyph glyph-name="uhungarumlaut" unicode="&#x171;" horiz-adv-x="1189" 
d="M176 371v587h139v-530q1 -164 59 -250t190 -86t217 97t85 278v491h140v-747q0 -123 8 -211h-133q-8 68 -9 164h-4q-41 -84 -132 -136t-195 -53q-177 1 -271 107t-94 289zM741 1450l-272 -295h-121l207 295h186zM1090 1450l-271 -295h-121l205 295h187z" />
    <glyph glyph-name="Uogonek" unicode="&#x172;" horiz-adv-x="1454" 
d="M727 -37q-155 0 -267 55q-112 56 -168 146q-108 175 -108 377v909h148v-893q0 -197 95 -330t300 -133t300 133t95 330v893h148v-909q0 -185 -84 -342q-45 -85 -131 -145t-203 -81q-70 -73 -100 -121t-31 -96q0 -48 30 -74q30 -28 84 -28t93 45l39 -82q-74 -74 -185 -74
q-74 0 -129 49t-55 125q0 123 139 246h-10z" />
    <glyph glyph-name="uogonek" unicode="&#x173;" horiz-adv-x="1189" 
d="M885 -457q-74 0 -129 49t-56 125q0 135 183 283h-2q-8 68 -9 164h-4q-41 -84 -132 -136t-195 -53q-177 1 -271 107t-94 289v587h139v-530q1 -164 59 -250t190 -86t217 97t85 278v491h140v-747q0 -123 8 -211h-33q-84 -84 -121 -138t-37 -104t30 -76q30 -28 84 -28t93 45
l39 -82q-74 -74 -184 -74z" />
    <glyph glyph-name="Wcircumflex" unicode="&#x174;" horiz-adv-x="1990" 
d="M184 1450l359 -1247h4l362 1247h176l363 -1247h4l354 1247h156l-428 -1450h-172l-365 1245h-4l-364 -1245h-172l-428 1450h155zM1077 1860l223 -295h-135l-170 221l-170 -221h-135l223 295h164z" />
    <glyph glyph-name="wcircumflex" unicode="&#x175;" horiz-adv-x="1527" 
d="M53 958h150l231 -778h4l258 778h135l263 -778h4l229 778h148l-304 -958h-151l-256 776h-4l-252 -776h-152zM844 1450l223 -295h-135l-170 221l-170 -221h-135l223 295h164z" />
    <glyph glyph-name="Ycircumflex" unicode="&#x176;" horiz-adv-x="1232" 
d="M690 0h-147v625l-543 825h184l437 -702l440 702h172l-543 -825v-625zM702 1860l224 -295h-135l-170 221l-170 -221h-136l224 295h163z" />
    <glyph glyph-name="ycircumflex" unicode="&#x177;" horiz-adv-x="999" 
d="M188 958l326 -808h4l297 808h152l-478 -1206q-47 -121 -115 -182t-186 -62q-63 0 -125 13l15 127q145 -44 213 24q41 41 74 129l77 201l-409 956h155zM598 1450l223 -295h-135l-170 221l-170 -221h-135l223 295h164z" />
    <glyph glyph-name="Ydieresis" unicode="&#x178;" horiz-adv-x="1232" 
d="M690 0h-147v625l-543 825h184l437 -702l440 702h172l-543 -825v-625zM319 1735q0 43 29 73t76 31q47 0 76 -31q28 -32 28 -74t-28 -73t-76 -31q-47 0 -76 31t-29 74zM713 1735q1 43 29 73t75 31q47 0 76 -31q29 -32 29 -74t-29 -73t-76 -31t-76 31q-28 31 -28 74z" />
    <glyph glyph-name="Zacute" unicode="&#x179;" 
d="M1096 1450v-123l-846 -1196h858v-131h-1045v123l848 1196h-825v131h1010zM883 1860l-271 -295h-120l204 295h187z" />
    <glyph glyph-name="zacute" unicode="&#x17a;" horiz-adv-x="905" 
d="M821 958v-98l-573 -739h594v-121h-779v98l572 744h-543v116h729zM764 1450l-270 -295h-121l205 295h186z" />
    <glyph glyph-name="Zdotaccent" unicode="&#x17b;" 
d="M1096 1450v-123l-846 -1196h858v-131h-1045v123l848 1196h-825v131h1010zM682 1737q0 -41 -30 -70t-68 -29t-69 29q-30 29 -30 70t30 69t69 29q38 -1 68 -29t30 -69z" />
    <glyph glyph-name="zdotaccent" unicode="&#x17c;" horiz-adv-x="905" 
d="M821 958v-98l-573 -739h594v-121h-779v98l572 744h-543v116h729zM553 1327q0 -41 -30 -70q-31 -29 -69 -29t-68 30q-30 28 -30 69t30 70t69 29t69 -30q30 -28 29 -69z" />
    <glyph glyph-name="Zcaron" unicode="&#x17d;" 
d="M1096 1450v-123l-846 -1196h858v-131h-1045v123l848 1196h-825v131h1010zM893 1860l-223 -295h-164l-223 295h135l170 -222l170 222h135z" />
    <glyph glyph-name="zcaron" unicode="&#x17e;" horiz-adv-x="905" 
d="M821 958v-98l-573 -739h594v-121h-779v98l572 744h-543v116h729zM766 1450l-223 -295h-164l-223 295h135l170 -221l170 221h135z" />
    <glyph glyph-name="florin" unicode="&#x192;" horiz-adv-x="1187" 
d="M905 858v-110h-243l-138 -721q-61 -311 -317 -312q-100 0 -160 37l55 113q47 -27 119 -27q131 0 166 217l129 693h-221v110h244l55 295q59 322 311 322q111 0 195 -60l-70 -98q-50 35 -108 35q-108 0 -143 -81q-36 -81 -50 -157l-45 -256h221z" />
    <glyph glyph-name="Ohorn" unicode="&#x1a0;" horiz-adv-x="1740" 
d="M1663 1491q0 -101 -66 -162t-182 -63q211 -213 211 -542t-215 -545t-541 -216t-540 216t-215 546q0 330 215 546t540 216q180 0 393 -93q71 -32 128 -32q154 0 153 143q0 60 -31 117l121 33q29 -63 29 -164zM1470 725q0 264 -164 449q-166 184 -436 184t-435 -184
t-165 -448t165 -448t435 -184t435 184t165 447z" />
    <glyph glyph-name="ohorn" unicode="&#x1a1;" horiz-adv-x="1251" 
d="M1282 1028q0 -101 -68 -163t-188 -62q111 -133 111 -337q1 -204 -143 -347t-367 -143t-367 142q-144 144 -145 361q0 217 144 361t366 143q102 0 219 -42t166 -42q154 0 153 143q1 60 -30 117l120 33q29 -63 29 -164zM262 479q0 -165 100 -275t264 -110t263 110
q100 110 100 274q0 165 -100 277q-100 111 -263 111t-264 -111q-100 -112 -100 -276z" />
    <glyph glyph-name="Uhorn" unicode="&#x1af;" horiz-adv-x="1454" 
d="M727 -37q-155 0 -267 55q-112 56 -168 146q-108 175 -108 377v909h148v-893q0 -197 95 -330t300 -133t300 133t95 330v893h129q154 0 154 143q0 59 -31 117l121 33q29 -63 29 -164t-68 -163t-186 -62v-813q0 -203 -108 -377q-56 -90 -168 -146t-267 -55z" />
    <glyph glyph-name="uhorn" unicode="&#x1b0;" horiz-adv-x="1210" 
d="M176 371v587h139v-530q1 -164 59 -250t190 -86t217 97t85 278v491h121q154 0 154 144q0 59 -31 117l121 32q29 -63 29 -163t-68 -163q-68 -62 -186 -63v-651q0 -123 8 -211h-133q-8 68 -9 164h-4q-41 -84 -132 -136t-195 -53q-177 1 -271 107t-94 289z" />
    <glyph glyph-name="clickdental" unicode="&#x1c0;" horiz-adv-x="454" 
d="M166 1536h123v-2048h-123v2048z" />
    <glyph glyph-name="clicklateral" unicode="&#x1c1;" horiz-adv-x="909" 
d="M166 1536h123v-2048h-123v2048zM621 1536h122v-2048h-122v2048z" />
    <glyph glyph-name="clickretroflex" unicode="&#x1c3;" horiz-adv-x="671" 
d="M410 1450v-1057h-148v1057h148zM446 98q0 -45 -32 -78q-32 -32 -78 -32q-47 0 -79 32t-32 78q0 45 32 78t79 33q46 0 78 -33t32 -78z" />
    <glyph glyph-name="DZcaron" unicode="&#x1c4;" horiz-adv-x="3213" 
d="M193 0v1450h481q288 0 516 -179q110 -87 178 -229t68 -317q0 -174 -68 -316q-125 -260 -422 -363q-133 -46 -272 -46h-481zM340 1319v-1188h293q157 0 283 50q232 92 323 325q41 104 41 219q0 233 -160 409q-78 85 -204 135t-283 50h-293zM2646 1450v-123l-846 -1196h858
v-131h-1044v123l848 1196h-826v131h1010zM2462 1898l-224 -294h-163l-224 294h136l170 -221l170 221h135z" />
    <glyph glyph-name="Dzcaron" unicode="&#x1c5;" horiz-adv-x="2947" 
d="M193 0v1450h481q288 0 516 -179q110 -87 178 -229t68 -317q0 -174 -68 -316q-125 -260 -422 -363q-133 -46 -272 -46h-481zM340 1319v-1188h293q157 0 283 50q232 92 323 325q41 104 41 219q0 233 -160 409q-78 85 -204 135t-283 50h-293zM2372 958v-98l-574 -739h594
v-121h-778v98l571 744h-543v116h730zM2329 1407l-224 -295h-163l-224 295h135l170 -221l170 221h136z" />
    <glyph glyph-name="dzcaron" unicode="&#x1c6;" horiz-adv-x="2701" 
d="M977 162h-4q-59 -90 -157 -138t-206 -49q-221 -1 -358 143t-137 361t137 361t358 143q109 0 206 -49t157 -141h4v755h139v-1548h-139v162zM262 479q0 -165 97 -275t261 -110t269 110q104 110 104 276t-104 276t-267 110t-262 -110q-98 -111 -98 -277zM2126 958v-98
l-574 -739h594v-121h-778v98l571 744h-542v116h729zM2083 1407l-223 -295h-164l-223 295h135l170 -221l170 221h135z" />
    <glyph glyph-name="LJ" unicode="&#x1c7;" horiz-adv-x="2052" 
d="M340 1450v-1319h676v-131h-823v1450h147zM1468 92q256 0 256 336v1022h148v-1032q0 -167 -73 -297q-88 -158 -336 -158q-134 0 -237 81t-130 214l137 37q17 -91 79 -147t156 -56z" />
    <glyph glyph-name="Lj" unicode="&#x1c8;" horiz-adv-x="1558" 
d="M340 1450v-1319h676v-131h-823v1450h147zM1233 -168v1126h139v-1148q0 -301 -272 -302q-62 1 -111 15l21 117q40 -12 104 -12t92 50q28 51 27 154zM1401 1327q0 -41 -30 -70q-31 -29 -69 -29t-68 30q-30 28 -30 69t30 70t69 29t69 -30q30 -28 29 -69z" />
    <glyph glyph-name="lj" unicode="&#x1c9;" horiz-adv-x="1030" 
d="M328 1548v-1548h-140v1548h140zM705 -168v1126h139v-1148q0 -301 -273 -302q-61 1 -110 15l20 117q39 -12 103 -12t93 50q28 51 28 154zM872 1327q0 -41 -30 -70t-68 -29t-68 30q-30 28 -30 69t30 70t68 29t69 -29q29 -29 29 -70z" />
    <glyph glyph-name="NJ" unicode="&#x1ca;" horiz-adv-x="2572" 
d="M1225 215v1235h147v-1450h-184l-844 1247h-4v-1247h-147v1450h184l844 -1235h4zM1989 92q256 0 256 336v1022h147v-1032q0 -171 -73 -297q-87 -158 -335 -158q-134 0 -238 81q-103 81 -130 214l137 37q17 -91 79 -147t157 -56z" />
    <glyph glyph-name="Nj" unicode="&#x1cb;" horiz-adv-x="2078" 
d="M1225 215v1235h147v-1450h-184l-844 1247h-4v-1247h-147v1450h184l844 -1235h4zM1753 -168v1126h139v-1148q0 -301 -272 -302q-62 1 -111 15l21 117q40 -12 104 -12t92 50q28 51 27 154zM1921 1327q0 -41 -30 -70q-31 -29 -69 -29t-68 30q-30 28 -30 69t30 70t69 29
t69 -30q30 -28 29 -69z" />
    <glyph glyph-name="nj" unicode="&#x1cc;" horiz-adv-x="1703" 
d="M317 795h5q41 84 132 136t195 52q177 0 271 -106t94 -289v-588h-140v530q0 164 -58 250t-190 86t-218 -97q-84 -97 -84 -277v-492h-140v748q0 122 -8 210h133q8 -68 8 -163zM1378 958h140v-1148q0 -301 -273 -302q-61 1 -110 15l20 117q41 -12 105 -12t91 50
q28 51 27 154v1126zM1546 1327q0 -41 -30 -70t-68 -29q-39 0 -69 30q-30 28 -29 69q0 41 29 70q30 29 69 29t69 -29q29 -29 29 -70z" />
    <glyph glyph-name="Acaron" unicode="&#x1cd;" horiz-adv-x="1433" 
d="M340 381l-158 -381h-162l627 1450h144l622 -1450h-164l-159 381h-750zM715 1286l-320 -770h639zM1022 1898l-223 -294h-164l-223 294h135l170 -221l170 221h135z" />
    <glyph glyph-name="acaron" unicode="&#x1ce;" horiz-adv-x="1093" 
d="M788 588v30q0 248 -256 248q-172 0 -284 -112l-78 92q137 137 377 137q164 0 268 -89t105 -259v-420q0 -127 16 -215h-125q-14 82 -14 156h-4q-66 -96 -148 -138t-206 -43q-124 0 -225 73t-101 218t99 216t242 88q142 18 334 18zM788 479h-40q-492 0 -492 -207
q0 -94 66 -138t159 -44q141 0 225 92q83 92 82 226v71zM829 1432l-223 -295h-164l-223 295h135l170 -222l170 222h135z" />
    <glyph glyph-name="Icaron" unicode="&#x1cf;" horiz-adv-x="532" 
d="M340 1450v-1450h-147v1450h147zM571 1898l-223 -294h-164l-223 294h135l170 -221l170 221h135z" />
    <glyph glyph-name="icaron" unicode="&#x1d0;" horiz-adv-x="512" 
d="M326 958v-958h-140v958h140zM561 1407l-223 -295h-164l-223 295h135l170 -221l170 221h135z" />
    <glyph glyph-name="Ocaron" unicode="&#x1d1;" horiz-adv-x="1740" 
d="M1626 725q0 -330 -215 -546t-541 -216t-540 216t-215 546q0 330 215 546q214 216 540 216t541 -216t215 -546zM1470 725q0 264 -164 449q-166 184 -436 184t-435 -184t-165 -448t165 -448t435 -184t435 184t165 447zM1176 1935l-224 -295h-164l-223 295h135l170 -221
l170 221h136z" />
    <glyph glyph-name="ocaron" unicode="&#x1d2;" horiz-adv-x="1251" 
d="M1137 479q1 -217 -143 -360t-367 -143t-367 142q-144 144 -145 361q0 217 144 361q143 144 367 143q224 1 368 -143t143 -361zM262 479q0 -165 100 -275t264 -110t263 110q100 110 100 274q0 165 -100 277q-100 111 -263 111t-264 -111q-100 -112 -100 -276zM930 1432
l-223 -295h-164l-224 295h136l170 -222l170 222h135z" />
    <glyph glyph-name="Ucaron" unicode="&#x1d3;" horiz-adv-x="1454" 
d="M727 -37q-155 0 -267 55q-112 56 -168 146q-108 175 -108 377v909h148v-893q0 -197 95 -330t300 -133t300 133t95 330v893h148v-909q0 -203 -108 -377q-56 -90 -168 -146t-267 -55zM1032 1898l-223 -294h-164l-223 294h135l170 -221l170 221h135z" />
    <glyph glyph-name="ucaron" unicode="&#x1d4;" horiz-adv-x="1189" 
d="M176 371v587h139v-530q1 -164 59 -250t190 -86t217 97t85 278v491h140v-747q0 -123 8 -211h-133q-8 68 -9 164h-4q-41 -84 -132 -136t-195 -53q-177 1 -271 107t-94 289zM899 1407l-223 -295h-164l-223 295h135l170 -221l170 221h135z" />
    <glyph glyph-name="Udieresismacron" unicode="&#x1d5;" horiz-adv-x="1454" 
d="M727 -37q-155 0 -267 55q-112 56 -168 146q-108 175 -108 377v909h148v-893q0 -197 95 -330t300 -133t300 133t95 330v893h148v-909q0 -203 -108 -377q-56 -90 -168 -146t-267 -55zM426 1708q0 43 29 74q29 30 75 30t76 -30q29 -30 29 -74q0 -43 -29 -74q-29 -30 -76 -30
q-48 0 -76 30t-28 74zM819 1708q0 43 29 74q29 30 76 30q48 0 76 -30t28 -74q0 -43 -29 -74q-29 -30 -75 -30t-76 30q-29 30 -29 74zM1004 2077v-111h-553v111h553z" />
    <glyph glyph-name="udieresismacron" unicode="&#x1d6;" horiz-adv-x="1189" 
d="M176 371v587h139v-530q1 -164 59 -250t190 -86t217 97t85 278v491h140v-747q0 -123 8 -211h-133q-8 68 -9 164h-4q-41 -84 -132 -136t-195 -53q-177 1 -271 107t-94 289zM293 1217q0 43 29 73q30 30 76 31q46 0 75 -31q29 -32 29 -74t-29 -73t-76 -31t-75 31t-29 74z
M686 1217q0 43 29 73t76 31q47 0 75 -31q28 -32 29 -74q0 -42 -29 -73q-30 -31 -76 -31t-75 31t-29 74zM870 1585v-110h-553v110h553z" />
    <glyph glyph-name="Udieresisacute" unicode="&#x1d7;" horiz-adv-x="1454" 
d="M727 -37q-155 0 -267 55q-112 56 -168 146q-108 175 -108 377v909h148v-893q0 -197 95 -330t300 -133t300 133t95 330v893h148v-909q0 -203 -108 -377q-56 -90 -168 -146t-267 -55zM426 1708q0 43 29 74q29 30 75 30t76 -30q29 -30 29 -74q0 -43 -29 -74q-29 -30 -76 -30
q-48 0 -76 30t-28 74zM819 1708q0 43 29 74q29 30 76 30q48 0 76 -30t28 -74q0 -43 -29 -74q-29 -30 -75 -30t-76 30q-29 30 -29 74zM1047 2261l-271 -295h-121l205 295h187z" />
    <glyph glyph-name="udieresisacute" unicode="&#x1d8;" horiz-adv-x="1189" 
d="M176 371v587h139v-530q1 -164 59 -250t190 -86t217 97t85 278v491h140v-747q0 -123 8 -211h-133q-8 68 -9 164h-4q-41 -84 -132 -136t-195 -53q-177 1 -271 107t-94 289zM293 1217q0 43 29 73q30 30 76 31q46 0 75 -31q29 -32 29 -74t-29 -73t-76 -31t-75 31t-29 74z
M686 1217q0 43 29 73t76 31q47 0 75 -31q28 -32 29 -74q0 -42 -29 -73q-30 -31 -76 -31t-75 31t-29 74zM913 1769l-270 -294h-121l205 294h186z" />
    <glyph glyph-name="Udieresiscaron" unicode="&#x1d9;" horiz-adv-x="1454" 
d="M727 -37q-155 0 -267 55q-112 56 -168 146q-108 175 -108 377v909h148v-893q0 -197 95 -330t300 -133t300 133t95 330v893h148v-909q0 -203 -108 -377q-56 -90 -168 -146t-267 -55zM426 1708q0 43 29 74q29 30 75 30t76 -30q29 -30 29 -74q0 -43 -29 -74q-29 -30 -76 -30
q-48 0 -76 30t-28 74zM819 1708q0 43 29 74q29 30 76 30q48 0 76 -30t28 -74q0 -43 -29 -74q-29 -30 -75 -30t-76 30q-29 30 -29 74zM1032 2261l-223 -295h-164l-223 295h135l170 -221l170 221h135z" />
    <glyph glyph-name="udieresiscaron" unicode="&#x1da;" horiz-adv-x="1189" 
d="M176 371v587h139v-530q1 -164 59 -250t190 -86t217 97t85 278v491h140v-747q0 -123 8 -211h-133q-8 68 -9 164h-4q-41 -84 -132 -136t-195 -53q-177 1 -271 107t-94 289zM293 1217q0 43 29 73q30 30 76 31q46 0 75 -31q29 -32 29 -74t-29 -73t-76 -31t-75 31t-29 74z
M686 1217q0 43 29 73t76 31q47 0 75 -31q28 -32 29 -74q0 -42 -29 -73q-30 -31 -76 -31t-75 31t-29 74zM899 1769l-223 -294h-164l-223 294h135l170 -221l170 221h135z" />
    <glyph glyph-name="Udieresisgrave" unicode="&#x1db;" horiz-adv-x="1454" 
d="M727 -37q-155 0 -267 55q-112 56 -168 146q-108 175 -108 377v909h148v-893q0 -197 95 -330t300 -133t300 133t95 330v893h148v-909q0 -203 -108 -377q-56 -90 -168 -146t-267 -55zM426 1708q0 43 29 74q29 30 75 30t76 -30q29 -30 29 -74q0 -43 -29 -74q-29 -30 -76 -30
q-48 0 -76 30t-28 74zM819 1708q0 43 29 74q29 30 76 30q48 0 76 -30t28 -74q0 -43 -29 -74q-29 -30 -75 -30t-76 30q-29 30 -29 74zM664 1966l-271 295h187l204 -295h-120z" />
    <glyph glyph-name="udieresisgrave" unicode="&#x1dc;" horiz-adv-x="1189" 
d="M176 371v587h139v-530q1 -164 59 -250t190 -86t217 97t85 278v491h140v-747q0 -123 8 -211h-133q-8 68 -9 164h-4q-41 -84 -132 -136t-195 -53q-177 1 -271 107t-94 289zM293 1217q0 43 29 73q30 30 76 31q46 0 75 -31q29 -32 29 -74t-29 -73t-76 -31t-75 31t-29 74z
M686 1217q0 43 29 73t76 31q47 0 75 -31q28 -32 29 -74q0 -42 -29 -73q-30 -31 -76 -31t-75 31t-29 74zM567 1475l-270 294h186l205 -294h-121z" />
    <glyph glyph-name="Adieresismacron" unicode="&#x1de;" horiz-adv-x="1433" 
d="M340 381l-158 -381h-162l627 1450h144l622 -1450h-164l-159 381h-750zM715 1286l-320 -770h639zM416 1708q0 43 28 74q29 30 76 30t76 -30t29 -74q0 -43 -29 -74q-29 -30 -76 -30t-76 30q-28 31 -28 74zM809 1708q0 43 29 74q30 30 76 30t75 -30t29 -74q0 -43 -29 -74
q-29 -30 -76 -30t-75 30t-29 74zM993 2077v-111h-553v111h553z" />
    <glyph glyph-name="adieresismacron" unicode="&#x1df;" horiz-adv-x="1093" 
d="M788 588v30q0 248 -256 248q-172 0 -284 -112l-78 92q137 137 377 137q164 0 268 -89t105 -259v-420q0 -127 16 -215h-125q-14 82 -14 156h-4q-66 -96 -148 -138t-206 -43q-124 0 -225 73t-101 218t99 216t242 88q142 18 334 18zM788 479h-40q-492 0 -492 -207
q0 -94 66 -138t159 -44q141 0 225 92q83 92 82 226v71zM223 1241q0 43 29 74t76 31q48 0 76 -31t28 -74t-29 -74t-75 -31t-76 32q-29 30 -29 73zM616 1241q0 43 29 74t76 31t76 -31t29 -74t-30 -74q-28 -31 -75 -31t-76 32q-29 30 -29 73zM801 1610v-111h-553v111h553z" />
    <glyph glyph-name="Adotmacron" unicode="&#x1e0;" horiz-adv-x="1433" 
d="M340 381l-158 -381h-162l627 1450h144l622 -1450h-164l-159 381h-750zM715 1286l-320 -770h639zM815 1702q0 -41 -30 -70q-31 -28 -69 -28t-68 28t-30 70q0 41 30 70q30 28 69 28t69 -28t29 -70zM993 2064v-110h-553v110h553z" />
    <glyph glyph-name="adotmacron" unicode="&#x1e1;" horiz-adv-x="1093" 
d="M788 588v30q0 248 -256 248q-172 0 -284 -112l-78 92q137 137 377 137q164 0 268 -89t105 -259v-420q0 -127 16 -215h-125q-14 82 -14 156h-4q-66 -96 -148 -138t-206 -43q-124 0 -225 73t-101 218t99 216t242 88q142 18 334 18zM788 479h-40q-492 0 -492 -207
q0 -94 66 -138t159 -44q141 0 225 92q83 92 82 226v71zM623 1235q0 -41 -30 -70t-69 -29q-38 0 -68 30q-30 28 -30 69t30 70t68 29t69 -30q30 -28 30 -69zM801 1597v-110h-553v110h553z" />
    <glyph glyph-name="AEmacron" unicode="&#x1e2;" horiz-adv-x="2027" 
d="M1210 690v-559h707v-131h-854v406h-610l-263 -406h-167l944 1450h925v-131h-682v-500h633v-129h-633zM1063 535v784h-29l-506 -784h535zM1778 1714v-110h-553v110h553z" />
    <glyph glyph-name="aemacron" unicode="&#x1e3;" horiz-adv-x="1781" 
d="M1667 508q0 -47 -2 -66h-758q3 -147 99 -248t235 -102q98 0 175 47t118 119l100 -80q-152 -203 -393 -203q-133 -1 -233 59t-148 165q-96 -223 -399 -224q-141 0 -244 70q-102 70 -102 211q0 78 39 135t97 88q138 74 527 74v31q0 129 -62 206t-184 76q-172 0 -294 -112
l-80 90q64 61 170 100t223 39t200 -52t117 -149q56 94 152 148t211 53q207 0 321 -135t115 -340zM1526 553q0 139 -79 226t-210 87t-225 -94t-99 -219h613zM778 442h-41q-289 0 -384 -45t-95 -139q0 -170 227 -170q143 0 218 76t75 209v69zM1167 1247v-110h-553v110h553z
" />
    <glyph glyph-name="Gcaron" unicode="&#x1e6;" horiz-adv-x="1595" 
d="M868 1358q-266 0 -432 -186t-166 -447q0 -262 166 -446q166 -185 425 -185t403 94v441h-338v129h485v-654q-231 -141 -550 -141t-533 216t-213 546q0 330 215 546q214 216 542 216t523 -195l-103 -102q-158 168 -424 168zM1190 1935l-223 -295h-164l-223 295h135
l170 -221l170 221h135z" />
    <glyph glyph-name="gcaron" unicode="&#x1e7;" horiz-adv-x="1294" 
d="M977 8v180h-4q-53 -88 -153 -138t-210 -50q-221 0 -358 137t-137 348t138 355t357 143q109 0 208 -50t155 -140h4v165h139v-950q0 -148 -62 -265q-36 -69 -91 -119t-151 -83t-216 -33q-279 0 -461 193l101 106q59 -75 159 -125t207 -51q193 1 284 105t91 272zM262 492
q0 -158 98 -266t262 -108t268 104q103 104 103 264t-105 270t-267 110q-163 0 -261 -108t-98 -266zM920 1432l-224 -295h-164l-223 295h135l170 -222l170 222h136z" />
    <glyph glyph-name="Kcaron" unicode="&#x1e8;" horiz-adv-x="1286" 
d="M340 1450v-651h2l690 651h211l-731 -657l772 -793h-217l-725 772h-2v-772h-147v1450h147zM961 1898l-224 -294h-164l-223 294h135l170 -221l170 221h136z" />
    <glyph glyph-name="kcaron" unicode="&#x1e9;" horiz-adv-x="1044" 
d="M328 1548v-1022h6l442 432h201l-483 -438l532 -520h-205l-487 504h-6v-504h-140v1548h140zM573 1997l-223 -295h-164l-223 295h135l170 -221l170 221h135z" />
    <glyph glyph-name="Oogonek" unicode="&#x1ea;" horiz-adv-x="1740" 
d="M1626 738q0 -316 -188 -529t-480 -242q-150 -150 -149 -252q0 -43 30 -71t84 -27q54 0 93 45l39 -82q-74 -74 -185 -74q-76 0 -130 50t-54 125q0 141 168 284q-317 4 -528 220t-211 543t215 543q214 216 540 216t541 -216q215 -217 215 -533zM1470 725q0 264 -164 449
q-166 184 -436 184t-435 -184t-165 -448t165 -448t435 -184t435 184t165 447z" />
    <glyph glyph-name="oogonek" unicode="&#x1eb;" horiz-adv-x="1251" 
d="M115 481q0 215 144 359q143 144 367 143q224 1 368 -143t143 -349q0 -205 -117 -341t-305 -166q-152 -156 -152 -256q0 -43 30 -71q31 -28 85 -28t92 45l39 -82q-74 -74 -184 -73q-76 0 -130 49q-55 49 -55 124q0 76 49 152t119 131q-215 3 -354 147t-139 359zM262 479
q0 -165 100 -275t264 -110t263 110q100 110 100 274q0 165 -100 277q-100 111 -263 111t-264 -111q-100 -112 -100 -276z" />
    <glyph glyph-name="Oogonekmacron" unicode="&#x1ec;" horiz-adv-x="1740" 
d="M1626 738q0 -316 -188 -529t-480 -242q-150 -150 -149 -252q0 -43 30 -71t84 -27q54 0 93 45l39 -82q-74 -74 -185 -74q-76 0 -130 50t-54 125q0 141 168 284q-317 4 -528 220t-211 543t215 543q214 216 540 216t541 -216q215 -217 215 -533zM1470 725q0 264 -164 449
q-166 184 -436 184t-435 -184t-165 -448t165 -448t435 -184t435 184t165 447zM1147 1751v-111h-553v111h553z" />
    <glyph glyph-name="oogonekmacron" unicode="&#x1ed;" horiz-adv-x="1251" 
d="M115 481q0 215 144 359q143 144 367 143q224 1 368 -143t143 -349q0 -205 -117 -341t-305 -166q-152 -156 -152 -256q0 -43 30 -71q31 -28 85 -28t92 45l39 -82q-74 -74 -184 -73q-76 0 -130 49q-55 49 -55 124q0 76 49 152t119 131q-215 3 -354 147t-139 359zM262 479
q0 -165 100 -275t264 -110t263 110q100 110 100 274q0 165 -100 277q-100 111 -263 111t-264 -111q-100 -112 -100 -276zM901 1247v-110h-553v110h553z" />
    <glyph glyph-name="DZ" unicode="&#x1f1;" horiz-adv-x="2721" 
d="M193 0v1450h481q288 0 516 -179q110 -87 178 -229t68 -317q0 -174 -68 -316q-125 -260 -422 -363q-133 -46 -272 -46h-481zM340 1319v-1188h293q157 0 283 50q232 92 323 325q41 104 41 219q0 233 -160 409q-78 85 -204 135t-283 50h-293zM2646 1450v-123l-846 -1196h858
v-131h-1044v123l848 1196h-826v131h1010z" />
    <glyph glyph-name="Dz" unicode="&#x1f2;" horiz-adv-x="2455" 
d="M193 0v1450h481q288 0 516 -179q110 -87 178 -229t68 -317q0 -174 -68 -316q-125 -260 -422 -363q-133 -46 -272 -46h-481zM340 1319v-1188h293q157 0 283 50q232 92 323 325q41 104 41 219q0 233 -160 409q-78 85 -204 135t-283 50h-293zM2372 958v-98l-574 -739h594
v-121h-778v98l571 744h-543v116h730z" />
    <glyph glyph-name="dz" unicode="&#x1f3;" horiz-adv-x="2209" 
d="M977 162h-4q-59 -90 -157 -138t-206 -49q-221 -1 -358 143t-137 361t137 361t358 143q109 0 206 -49t157 -141h4v755h139v-1548h-139v162zM262 479q0 -165 97 -275t261 -110t269 110q104 110 104 276t-104 276t-267 110t-262 -110q-98 -111 -98 -277zM2126 958v-98
l-574 -739h594v-121h-778v98l571 744h-542v116h729z" />
    <glyph glyph-name="Gacute" unicode="&#x1f4;" horiz-adv-x="1595" 
d="M868 1358q-266 0 -432 -186t-166 -447q0 -262 166 -446q166 -185 425 -185t403 94v441h-338v129h485v-654q-231 -141 -550 -141t-533 216t-213 546q0 330 215 546q214 216 542 216t523 -195l-103 -102q-158 168 -424 168zM1163 1935l-270 -295h-121l205 295h186z" />
    <glyph glyph-name="gacute" unicode="&#x1f5;" horiz-adv-x="1294" 
d="M977 8v180h-4q-53 -88 -153 -138t-210 -50q-221 0 -358 137t-137 348t138 355t357 143q109 0 208 -50t155 -140h4v165h139v-950q0 -148 -62 -265q-36 -69 -91 -119t-151 -83t-216 -33q-279 0 -461 193l101 106q59 -75 159 -125t207 -51q193 1 284 105t91 272zM262 492
q0 -158 98 -266t262 -108t268 104q103 104 103 264t-105 270t-267 110q-163 0 -261 -108t-98 -266zM872 1432l-270 -295h-121l205 295h186z" />
    <glyph glyph-name="Ngrave" unicode="&#x1f8;" horiz-adv-x="1564" 
d="M1225 215v1235h147v-1450h-184l-844 1247h-4v-1247h-147v1450h184l844 -1235h4zM797 1604l-271 294h187l205 -294h-121z" />
    <glyph glyph-name="ngrave" unicode="&#x1f9;" horiz-adv-x="1189" 
d="M317 795h5q41 84 132 136t195 52q177 0 271 -106t94 -289v-588h-140v530q0 164 -58 250t-190 86t-218 -97q-84 -97 -84 -277v-492h-140v748q0 122 -8 210h133q8 -68 8 -163zM649 1137l-270 295h186l205 -295h-121z" />
    <glyph glyph-name="Aringacute" unicode="&#x1fa;" horiz-adv-x="1433" 
d="M340 381l-158 -381h-162l627 1450h144l622 -1450h-164l-159 381h-750zM715 1286l-320 -770h639zM913 1797q0 -81 -58 -137t-138 -56t-138 56q-59 56 -59 137t58 138t139 57q80 0 138 -56q58 -58 58 -139zM840 1798q0 51 -36 86t-87 35t-87 -35t-36 -86t36 -86t87 -35
t87 35t36 86zM913 2441l-270 -295h-121l205 295h186z" />
    <glyph glyph-name="aringacute" unicode="&#x1fb;" horiz-adv-x="1093" 
d="M788 588v30q0 248 -256 248q-172 0 -284 -112l-78 92q137 137 377 137q164 0 268 -89t105 -259v-420q0 -127 16 -215h-125q-14 82 -14 156h-4q-66 -96 -148 -138t-206 -43q-124 0 -225 73t-101 218t99 216t242 88q142 18 334 18zM788 479h-40q-492 0 -492 -207
q0 -94 66 -138t159 -44q141 0 225 92q83 92 82 226v71zM721 1330q0 -81 -58 -137q-59 -56 -139 -56t-138 56t-58 137t58 138q58 58 138 58t138 -58t59 -138zM647 1331q0 51 -36 86t-87 35t-87 -35t-36 -86t36 -86t87 -35t87 35t36 86zM721 1974l-270 -295h-121l205 295h186z
" />
    <glyph glyph-name="AEacute" unicode="&#x1fc;" horiz-adv-x="2027" 
d="M1210 690v-559h707v-131h-854v406h-610l-263 -406h-167l944 1450h925v-131h-682v-500h633v-129h-633zM1063 535v784h-29l-506 -784h535zM1759 1898l-270 -294h-121l205 294h186z" />
    <glyph glyph-name="aeacute" unicode="&#x1fd;" horiz-adv-x="1781" 
d="M1667 508q0 -47 -2 -66h-758q3 -147 99 -248t235 -102q98 0 175 47t118 119l100 -80q-152 -203 -393 -203q-133 -1 -233 59t-148 165q-96 -223 -399 -224q-141 0 -244 70q-102 70 -102 211q0 78 39 135t97 88q138 74 527 74v31q0 129 -62 206t-184 76q-172 0 -294 -112
l-80 90q64 61 170 100t223 39t200 -52t117 -149q56 94 152 148t211 53q207 0 321 -135t115 -340zM1526 553q0 139 -79 226t-210 87t-225 -94t-99 -219h613zM778 442h-41q-289 0 -384 -45t-95 -139q0 -170 227 -170q143 0 218 76t75 209v69zM1251 1432l-270 -295h-121
l205 295h186z" />
    <glyph glyph-name="Oslashacute" unicode="&#x1fe;" horiz-adv-x="1740" 
d="M870 -37q-279 0 -483 166l-156 -166l-75 70l155 168q-197 209 -197 531t216 539q215 216 540 216q279 0 484 -166l155 166l76 -70l-155 -168q196 -209 196 -531t-215 -539q-215 -216 -541 -216zM870 94q272 0 436 184t164 438q0 255 -137 427l-850 -912
q156 -137 387 -137zM854 1358q-256 0 -420 -184t-164 -442t142 -425l850 912q-152 139 -408 139zM1128 1935l-270 -295h-121l205 295h186z" />
    <glyph glyph-name="oslashacute" unicode="&#x1ff;" horiz-adv-x="1251" 
d="M638 88q151 0 254 112q104 112 104 272t-74 247l-537 -551q102 -80 253 -80zM620 870q-160 0 -263 -111q-101 -113 -101 -273t70 -248l536 550q-82 82 -242 82zM1137 468q-1 -206 -145 -349t-350 -143t-341 106l-137 -139l-66 63l135 139q-119 137 -119 344t144 351
q143 144 347 143q204 0 343 -106l135 139l66 -64l-135 -139q123 -139 123 -345zM901 1464l-270 -295h-121l205 295h186z" />
    <glyph glyph-name="Adblgrave" unicode="&#x200;" horiz-adv-x="1433" 
d="M340 381l-158 -381h-162l627 1450h144l622 -1450h-164l-159 381h-750zM715 1286l-320 -770h639zM807 1604l-270 294h186l205 -294h-121zM492 1604l-271 294h187l204 -294h-120z" />
    <glyph glyph-name="adblgrave" unicode="&#x201;" horiz-adv-x="1093" 
d="M788 588v30q0 248 -256 248q-172 0 -284 -112l-78 92q137 137 377 137q164 0 268 -89t105 -259v-420q0 -127 16 -215h-125q-14 82 -14 156h-4q-66 -96 -148 -138t-206 -43q-124 0 -225 73t-101 218t99 216t242 88q142 18 334 18zM788 479h-40q-492 0 -492 -207
q0 -94 66 -138t159 -44q141 0 225 92q83 92 82 226v71zM635 1137l-270 295h186l205 -295h-121zM319 1137l-270 295h187l204 -295h-121z" />
    <glyph glyph-name="Ainvertedbreve" unicode="&#x202;" horiz-adv-x="1433" 
d="M340 381l-158 -381h-162l627 1450h144l622 -1450h-164l-159 381h-750zM715 1286l-320 -770h639zM717 1763q-82 0 -139 -41t-72 -118h-90q8 126 90 198t211 72t211 -72t90 -198h-90q-14 78 -72 118t-139 41z" />
    <glyph glyph-name="ainvertedbreve" unicode="&#x203;" horiz-adv-x="1093" 
d="M788 588v30q0 248 -256 248q-172 0 -284 -112l-78 92q137 137 377 137q164 0 268 -89t105 -259v-420q0 -127 16 -215h-125q-14 82 -14 156h-4q-66 -96 -148 -138t-206 -43q-124 0 -225 73t-101 218t99 216t242 88q142 18 334 18zM788 479h-40q-492 0 -492 -207
q0 -94 66 -138t159 -44q141 0 225 92q83 92 82 226v71zM524 1296q-82 0 -139 -41t-72 -118h-90q8 127 90 199t211 71q129 1 211 -71t90 -199h-90q-14 79 -71 119q-58 40 -140 40z" />
    <glyph glyph-name="Edblgrave" unicode="&#x204;" horiz-adv-x="1212" 
d="M340 690v-559h776v-131h-923v1450h899v-131h-752v-500h702v-129h-702zM764 1604l-270 294h186l205 -294h-121zM449 1604l-271 294h187l204 -294h-120z" />
    <glyph glyph-name="edblgrave" unicode="&#x205;" 
d="M602 866q-140 0 -236 -93t-104 -220h653q-6 139 -89 226t-224 87zM1057 508q0 -41 -2 -66h-795q4 -145 104 -246t246 -102q102 0 182 47t126 119l104 -82q-160 -203 -412 -203q-213 -1 -354 143t-141 360t139 360t350 145q211 0 332 -135t121 -340zM737 1137l-270 295
h186l205 -295h-121zM422 1137l-270 295h186l205 -295h-121z" />
    <glyph glyph-name="Einvertedbreve" unicode="&#x206;" horiz-adv-x="1212" 
d="M340 690v-559h776v-131h-923v1450h899v-131h-752v-500h702v-129h-702zM654 1763q-82 0 -140 -41q-57 -41 -72 -118h-90q8 126 90 198t211 72t211 -72t90 -198h-90q-14 78 -71 118t-139 41z" />
    <glyph glyph-name="einvertedbreve" unicode="&#x207;" 
d="M602 866q-140 0 -236 -93t-104 -220h653q-6 139 -89 226t-224 87zM1057 508q0 -41 -2 -66h-795q4 -145 104 -246t246 -102q102 0 182 47t126 119l104 -82q-160 -203 -412 -203q-213 -1 -354 143t-141 360t139 360t350 145q211 0 332 -135t121 -340zM586 1296
q-82 0 -140 -41t-71 -118h-90q8 127 90 199t211 71q129 1 211 -71t90 -199h-90q-13 79 -71 119t-140 40z" />
    <glyph glyph-name="Idblgrave" unicode="&#x208;" horiz-adv-x="532" 
d="M340 1450v-1450h-147v1450h147zM397 1604l-270 294h186l205 -294h-121zM82 1604l-270 294h186l205 -294h-121z" />
    <glyph glyph-name="idblgrave" unicode="&#x209;" horiz-adv-x="512" 
d="M326 958v-958h-140v958h140zM408 1112l-271 295h187l204 -295h-120zM92 1112l-270 295h186l205 -295h-121z" />
    <glyph glyph-name="Iinvertedbreve" unicode="&#x20a;" horiz-adv-x="532" 
d="M340 1450v-1450h-147v1450h147zM266 1763q-82 0 -139 -41t-72 -118h-90q8 126 90 198t211 72t211 -72t90 -198h-90q-14 78 -71 118q-58 40 -140 41z" />
    <glyph glyph-name="iinvertedbreve" unicode="&#x20b;" horiz-adv-x="512" 
d="M326 958v-958h-140v958h140zM256 1272q-82 0 -139 -41t-72 -119h-90q8 127 90 199q82 71 211 71t211 -72t90 -198h-90q-13 78 -71 119t-140 41z" />
    <glyph glyph-name="Odblgrave" unicode="&#x20c;" horiz-adv-x="1740" 
d="M1626 725q0 -330 -215 -546t-541 -216t-540 216t-215 546q0 330 215 546q214 216 540 216t541 -216t215 -546zM1470 725q0 264 -164 449q-166 184 -436 184t-435 -184t-165 -448t165 -448t435 -184t435 184t165 447zM1042 1640l-270 295h186l205 -295h-121zM727 1640
l-270 295h186l205 -295h-121z" />
    <glyph glyph-name="odblgrave" unicode="&#x20d;" horiz-adv-x="1251" 
d="M1137 479q1 -217 -143 -360t-367 -143t-367 142q-144 144 -145 361q0 217 144 361q143 144 367 143q224 1 368 -143t143 -361zM262 479q0 -165 100 -275t264 -110t263 110q100 110 100 274q0 165 -100 277q-100 111 -263 111t-264 -111q-100 -112 -100 -276zM797 1137
l-271 295h187l205 -295h-121zM481 1137l-270 295h186l205 -295h-121z" />
    <glyph glyph-name="Oinvertedbreve" unicode="&#x20e;" horiz-adv-x="1740" 
d="M1626 725q0 -330 -215 -546t-541 -216t-540 216t-215 546q0 330 215 546q214 216 540 216t541 -216t215 -546zM1470 725q0 264 -164 449q-166 184 -436 184t-435 -184t-165 -448t165 -448t435 -184t435 184t165 447zM870 1800q-82 0 -139 -41t-72 -119h-90q8 127 90 199
t211 72t211 -72t90 -199h-90q-14 78 -71 119q-58 41 -140 41z" />
    <glyph glyph-name="oinvertedbreve" unicode="&#x20f;" horiz-adv-x="1251" 
d="M1137 479q1 -217 -143 -360t-367 -143t-367 142q-144 144 -145 361q0 217 144 361q143 144 367 143q224 1 368 -143t143 -361zM262 479q0 -165 100 -275t264 -110t263 110q100 110 100 274q0 165 -100 277q-100 111 -263 111t-264 -111q-100 -112 -100 -276zM625 1296
q-81 0 -139 -41t-72 -118h-90q8 127 90 199t211 71q129 1 211 -71t90 -199h-90q-14 79 -72 119t-139 40z" />
    <glyph glyph-name="Rdblgrave" unicode="&#x210;" horiz-adv-x="1226" 
d="M340 678v-678h-147v1450h425q496 0 496 -387q0 -158 -103 -256t-268 -117l424 -690h-180l-401 678h-246zM340 1323v-518h256q371 0 371 259t-365 259h-262zM709 1604l-271 294h187l204 -294h-120zM393 1604l-270 294h186l205 -294h-121z" />
    <glyph glyph-name="rdblgrave" unicode="&#x211;" horiz-adv-x="737" 
d="M184 0v748q0 123 -8 210h133q8 -68 8 -163h5q43 86 124 137q82 51 183 51q53 0 92 -10l-19 -131q-33 12 -98 12q-121 0 -201 -91t-79 -271v-492h-140zM580 1137l-271 295h187l204 -295h-120zM264 1137l-270 295h186l205 -295h-121z" />
    <glyph glyph-name="Rinvertedbreve" unicode="&#x212;" horiz-adv-x="1226" 
d="M340 678v-678h-147v1450h425q496 0 496 -387q0 -158 -103 -256t-268 -117l424 -690h-180l-401 678h-246zM340 1323v-518h256q371 0 371 259t-365 259h-262zM598 1763q-82 0 -139 -41t-72 -118h-90q8 126 90 198t211 72t211 -72t90 -198h-90q-13 78 -71 118t-140 41z" />
    <glyph glyph-name="rinvertedbreve" unicode="&#x213;" horiz-adv-x="737" 
d="M184 0v748q0 123 -8 210h133q8 -68 8 -163h5q43 86 124 137q82 51 183 51q53 0 92 -10l-19 -131q-33 12 -98 12q-121 0 -201 -91t-79 -271v-492h-140zM449 1296q-81 0 -139 -41t-72 -118h-91q9 127 91 199t211 71q129 1 211 -71t90 -199h-91q-14 79 -71 119t-139 40z" />
    <glyph glyph-name="Udblgrave" unicode="&#x214;" horiz-adv-x="1454" 
d="M727 -37q-155 0 -267 55q-112 56 -168 146q-108 175 -108 377v909h148v-893q0 -197 95 -330t300 -133t300 133t95 330v893h148v-909q0 -203 -108 -377q-56 -90 -168 -146t-267 -55zM838 1604l-271 294h187l204 -294h-120zM522 1604l-270 294h186l205 -294h-121z" />
    <glyph glyph-name="udblgrave" unicode="&#x215;" horiz-adv-x="1189" 
d="M176 371v587h139v-530q1 -164 59 -250t190 -86t217 97t85 278v491h140v-747q0 -123 8 -211h-133q-8 68 -9 164h-4q-41 -84 -132 -136t-195 -53q-177 1 -271 107t-94 289zM705 1112l-271 295h187l204 -295h-120zM389 1112l-270 295h186l205 -295h-121z" />
    <glyph glyph-name="Uinvertedbreve" unicode="&#x216;" horiz-adv-x="1454" 
d="M727 -37q-155 0 -267 55q-112 56 -168 146q-108 175 -108 377v909h148v-893q0 -197 95 -330t300 -133t300 133t95 330v893h148v-909q0 -203 -108 -377q-56 -90 -168 -146t-267 -55zM727 1763q-82 0 -139 -41t-72 -118h-90q8 126 90 198t211 72t211 -72t90 -198h-90
q-14 78 -72 118t-139 41z" />
    <glyph glyph-name="uinvertedbreve" unicode="&#x217;" horiz-adv-x="1189" 
d="M176 371v587h139v-530q1 -164 59 -250t190 -86t217 97t85 278v491h140v-747q0 -123 8 -211h-133q-8 68 -9 164h-4q-41 -84 -132 -136t-195 -53q-177 1 -271 107t-94 289zM594 1272q-82 0 -139 -41t-72 -119h-90q8 127 90 199q82 71 211 71t211 -72t90 -198h-90
q-13 78 -71 119t-140 41z" />
    <glyph glyph-name="Scommaaccent" unicode="&#x218;" horiz-adv-x="1155" 
d="M596 1362q-121 0 -215 -72t-94 -186t61 -178q23 -25 75 -52q52 -26 82 -36q283 -90 366 -146t107 -103q54 -100 54 -208q0 -203 -141 -311t-332 -107q-137 0 -259 55t-198 160l127 94q111 -182 332 -182q123 0 222 75t99 204t-82 191q-34 26 -69 47t-162 62
q-127 39 -184 65q-162 72 -214 189q-32 71 -32 184t73 207q135 174 390 173q139 0 246 -49t164 -127l-117 -94q-104 145 -299 145zM692 -92l-155 -379h-117l127 379h145z" />
    <glyph glyph-name="scommaaccent" unicode="&#x219;" horiz-adv-x="909" 
d="M456 866q-80 0 -140 -38t-60 -108t53 -106t201 -66q308 -62 307 -276q0 -152 -105 -224t-255 -73q-252 0 -379 187l110 82q39 -66 111 -108t164 -42t154 40q63 40 63 120t-67 119t-168 62t-140 37t-86 44q-98 60 -97 193t100 203t222 71q122 0 216 -46t141 -126l-107 -80
q-31 61 -94 98t-144 37zM559 -92l-156 -379h-116l127 379h145z" />
    <glyph glyph-name="uni021A" unicode="&#x21a;" horiz-adv-x="1167" 
d="M657 1319v-1319h-147v1319h-485v131h1118v-131h-486zM692 -92l-155 -379h-117l127 379h145z" />
    <glyph glyph-name="uni021B" unicode="&#x21b;" horiz-adv-x="649" 
d="M616 958v-116h-270v-559q0 -101 37 -139t99 -38t128 31l6 -121q-76 -28 -168 -28t-167 57q-74 57 -74 199v598h-199v116h199v271h139v-271h270zM512 -92l-156 -379h-116l127 379h145z" />
    <glyph glyph-name="Hcaron" unicode="&#x21e;" horiz-adv-x="1470" 
d="M193 0v1450h147v-629h790v629h148v-1450h-148v686h-790v-686h-147zM1040 1898l-223 -294h-164l-223 294h135l170 -221l170 221h135z" />
    <glyph glyph-name="hcaron" unicode="&#x21f;" horiz-adv-x="1193" 
d="M328 801h4q37 84 127 133t194 49q177 0 271 -106t94 -289v-588h-139v530q-1 164 -59 250t-190 86t-218 -97q-84 -97 -84 -277v-492h-140v1548h140v-747zM565 1997l-223 -295h-164l-223 295h135l170 -221l170 221h135z" />
    <glyph glyph-name="Adotaccent" unicode="&#x226;" horiz-adv-x="1433" 
d="M340 381l-158 -381h-162l627 1450h144l622 -1450h-164l-159 381h-750zM715 1286l-320 -770h639zM825 1702q1 -41 -29 -70q-30 -28 -69 -28t-69 28t-29 70q0 41 29 70q30 28 69 28t69 -28q29 -29 29 -70z" />
    <glyph glyph-name="adotaccent" unicode="&#x227;" horiz-adv-x="1093" 
d="M788 588v30q0 248 -256 248q-172 0 -284 -112l-78 92q137 137 377 137q164 0 268 -89t105 -259v-420q0 -127 16 -215h-125q-14 82 -14 156h-4q-66 -96 -148 -138t-206 -43q-124 0 -225 73t-101 218t99 216t242 88q142 18 334 18zM788 479h-40q-492 0 -492 -207
q0 -94 66 -138t159 -44q141 0 225 92q83 92 82 226v71zM623 1235q0 -41 -30 -70t-69 -29q-38 0 -68 30q-30 28 -30 69t30 70t68 29t69 -30q30 -28 30 -69z" />
    <glyph glyph-name="Ecedilla" unicode="&#x228;" horiz-adv-x="1212" 
d="M340 690v-559h776v-131h-389l-96 -154q25 8 82 8t107 -38q50 -39 50 -121t-72 -124t-172 -42q-101 0 -190 41l33 74q59 -29 125 -29t109 23q44 23 45 67q0 80 -111 80q-43 0 -88 -16l-37 30l127 201h-446v1450h899v-131h-752v-500h702v-129h-702z" />
    <glyph glyph-name="ecedilla" unicode="&#x229;" 
d="M1057 508q0 -41 -2 -66h-795q4 -145 104 -246t246 -102q102 0 182 47t126 119l104 -82q-147 -184 -367 -201l-92 -155q25 8 83 8t107 -39q50 -39 50 -121t-72 -124t-173 -42t-189 41l32 74q59 -29 125 -29t110 23t44 68q0 80 -111 79q-43 0 -88 -16l-37 31l123 202
q-199 17 -325 157t-127 350q0 210 139 354t350 145q211 0 332 -135t121 -340zM602 866q-140 0 -236 -93t-104 -220h653q-6 139 -89 226t-224 87z" />
    <glyph glyph-name="Odieresismacron" unicode="&#x22a;" horiz-adv-x="1740" 
d="M1626 725q0 -330 -215 -546t-541 -216t-540 216t-215 546q0 330 215 546q214 216 540 216t541 -216t215 -546zM1470 725q0 264 -164 449q-166 184 -436 184t-435 -184t-165 -448t165 -448t435 -184t435 184t165 447zM569 1745q0 43 29 74t76 31t76 -32q28 -30 28 -73
t-28 -74t-76 -31q-47 0 -76 31t-29 74zM963 1745q0 43 28 74q29 31 76 31t76 -32q29 -30 29 -73t-30 -74q-28 -31 -75 -31t-76 31q-28 31 -28 74zM1147 2114v-111h-553v111h553z" />
    <glyph glyph-name="odieresismacron" unicode="&#x22b;" horiz-adv-x="1251" 
d="M1137 479q1 -217 -143 -360t-367 -143t-367 142q-144 144 -145 361q0 217 144 361q143 144 367 143q224 1 368 -143t143 -361zM262 479q0 -165 100 -275t264 -110t263 110q100 110 100 274q0 165 -100 277q-100 111 -263 111t-264 -111q-100 -112 -100 -276zM324 1241
q0 43 28 74q29 31 76 31t76 -31q28 -31 28 -74t-28 -74t-76 -31q-47 0 -76 31q-28 31 -28 74zM717 1241q0 43 28 74q29 31 76 31t76 -31t29 -74t-29 -74t-76 -31t-76 31q-28 31 -28 74zM901 1610v-111h-553v111h553z" />
    <glyph glyph-name="Otildemacron" unicode="&#x22c;" horiz-adv-x="1740" 
d="M1626 725q0 -330 -215 -546t-541 -216t-540 216t-215 546q0 330 215 546q214 216 540 216t541 -216t215 -546zM1470 725q0 264 -164 449q-166 184 -436 184t-435 -184t-165 -448t165 -448t435 -184t435 184t165 447zM727 1853q55 0 153 -47t134 -47q72 0 100 103h88
q-33 -213 -188 -213q-60 0 -150 47t-137 47q-71 -1 -100 -103h-88q33 213 188 213zM1147 2126v-111h-553v111h553z" />
    <glyph glyph-name="otildemacron" unicode="&#x22d;" horiz-adv-x="1251" 
d="M1137 479q1 -217 -143 -360t-367 -143t-367 142q-144 144 -145 361q0 217 144 361q143 144 367 143q224 1 368 -143t143 -361zM262 479q0 -165 100 -275t264 -110t263 110q100 110 100 274q0 165 -100 277q-100 111 -263 111t-264 -111q-100 -112 -100 -276zM481 1350
q55 0 153 -47t134 -48q72 0 100 103h88q-33 -213 -188 -213q-60 0 -150 47t-137 47q-71 0 -100 -102h-88q33 213 188 213zM901 1622v-111h-553v111h553z" />
    <glyph glyph-name="Odotaccent" unicode="&#x22e;" horiz-adv-x="1740" 
d="M1626 725q0 -330 -215 -546t-541 -216t-540 216t-215 546q0 330 215 546q214 216 540 216t541 -216t215 -546zM1470 725q0 264 -164 449q-166 184 -436 184t-435 -184t-165 -448t165 -448t435 -184t435 184t165 447zM969 1739q0 -41 -30 -70t-69 -29q-38 0 -68 29t-30 70
t30 69t68 29q38 -1 69 -29q30 -28 30 -69z" />
    <glyph glyph-name="odotaccent" unicode="&#x22f;" horiz-adv-x="1251" 
d="M1137 479q1 -217 -143 -360t-367 -143t-367 142q-144 144 -145 361q0 217 144 361q143 144 367 143q224 1 368 -143t143 -361zM262 479q0 -165 100 -275t264 -110t263 110q100 110 100 274q0 165 -100 277q-100 111 -263 111t-264 -111q-100 -112 -100 -276zM723 1235
q0 -41 -30 -70q-31 -29 -69 -29t-68 30q-30 28 -30 69t30 70t69 29t69 -30q30 -28 29 -69z" />
    <glyph glyph-name="Odotaccentmacron" unicode="&#x230;" horiz-adv-x="1740" 
d="M1626 725q0 -330 -215 -546t-541 -216t-540 216t-215 546q0 330 215 546q214 216 540 216t541 -216t215 -546zM1470 725q0 264 -164 449q-166 184 -436 184t-435 -184t-165 -448t165 -448t435 -184t435 184t165 447zM969 1739q0 -41 -30 -70t-69 -29q-38 0 -68 29t-30 70
t30 69t68 29q38 -1 69 -29q30 -28 30 -69zM1147 2101v-110h-553v110h553z" />
    <glyph glyph-name="odotaccentmacron" unicode="&#x231;" horiz-adv-x="1251" 
d="M1137 479q1 -217 -143 -360t-367 -143t-367 142q-144 144 -145 361q0 217 144 361q143 144 367 143q224 1 368 -143t143 -361zM262 479q0 -165 100 -275t264 -110t263 110q100 110 100 274q0 165 -100 277q-100 111 -263 111t-264 -111q-100 -112 -100 -276zM723 1235
q0 -41 -30 -70q-31 -29 -69 -29t-68 30q-30 28 -30 69t30 70t69 29t69 -30q30 -28 29 -69zM901 1597v-110h-553v110h553z" />
    <glyph glyph-name="Ymacron" unicode="&#x232;" horiz-adv-x="1232" 
d="M690 0h-147v625l-543 825h184l437 -702l440 702h172l-543 -825v-625zM893 1714v-110h-553v110h553z" />
    <glyph glyph-name="ymacron" unicode="&#x233;" horiz-adv-x="999" 
d="M188 958l326 -808h4l297 808h152l-478 -1206q-47 -121 -115 -182t-186 -62q-63 0 -125 13l15 127q145 -44 213 24q41 41 74 129l77 201l-409 956h155zM770 1223v-111h-553v111h553z" />
    <glyph glyph-name="dotlessj" unicode="&#x237;" horiz-adv-x="514" 
d="M188 958h140v-1148q0 -301 -273 -302q-61 1 -110 15l20 117q41 -12 105 -12t91 50q28 51 27 154v1126z" />
    <glyph glyph-name="commaturnedmod" unicode="&#x2bb;" horiz-adv-x="454" 
d="M86 969l166 481h117l-138 -481h-145z" />
    <glyph glyph-name="afii57929" unicode="&#x2bc;" horiz-adv-x="454" 
d="M369 1450l-166 -481h-117l137 481h146z" />
    <glyph glyph-name="circumflex" unicode="&#x2c6;" horiz-adv-x="491" 
d="M328 1450l223 -295h-135l-170 221l-170 -221h-135l223 295h164z" />
    <glyph glyph-name="caron" unicode="&#x2c7;" horiz-adv-x="491" 
d="M551 1450l-223 -295h-164l-223 295h135l170 -221l170 221h135z" />
    <glyph glyph-name="uni02C9" unicode="&#x2c9;" horiz-adv-x="491" 
d="M522 1749v-111h-553v111h553z" />
    <glyph glyph-name="breve" unicode="&#x2d8;" horiz-adv-x="491" 
d="M246 1290q82 0 140 41t71 119h90q-8 -127 -90 -199q-82 -71 -211 -71t-211 72t-90 198h90q14 -78 71 -119q58 -41 140 -41z" />
    <glyph glyph-name="dotaccent" unicode="&#x2d9;" horiz-adv-x="491" 
d="M344 1327q0 -41 -30 -70t-68 -29t-69 30q-30 28 -30 69t30 70t69 29q38 0 68 -30q30 -28 30 -69z" />
    <glyph glyph-name="ring" unicode="&#x2da;" horiz-adv-x="491" 
d="M442 1330q0 -81 -58 -137t-138 -56t-138 56t-58 137t58 138q58 58 138 58t138 -58t58 -138zM369 1331q0 51 -36 86t-87 35t-87 -35t-36 -86t36 -86t87 -35t87 35t36 86z" />
    <glyph glyph-name="ogonek" unicode="&#x2db;" horiz-adv-x="491" 
d="M246 -457q-74 0 -129 49t-56 125q0 135 183 283h98q-84 -84 -121 -138t-37 -104t30 -76q30 -28 84 -28t93 45l39 -82q-74 -74 -184 -74z" />
    <glyph glyph-name="tilde" unicode="&#x2dc;" horiz-adv-x="491" 
d="M102 1393q56 0 154 -47t133 -48q72 0 100 103h89q-33 -213 -189 -213q-59 0 -149 47t-138 47q-71 0 -100 -102h-88q33 213 188 213z" />
    <glyph glyph-name="hungarumlaut" unicode="&#x2dd;" horiz-adv-x="491" 
d="M268 1450l-272 -295h-121l207 295h186zM616 1450l-270 -295h-121l205 295h186z" />
    <glyph glyph-name="uni02EE" unicode="&#x2ee;" horiz-adv-x="792" 
d="M707 1450l-166 -481h-117l137 481h146zM369 1450l-166 -481h-117l137 481h146z" />
    <glyph glyph-name="gravecmb" unicode="&#x300;" horiz-adv-x="0" 
d="M-221 1155l-271 295h187l205 -295h-121z" />
    <glyph glyph-name="acutecmb" unicode="&#x301;" horiz-adv-x="0" 
d="M-100 1450l-271 -295h-121l205 295h187z" />
    <glyph glyph-name="circumflexcmb" unicode="&#x302;" horiz-adv-x="0" 
d="M-104 1450l223 -295h-135l-170 221l-170 -221h-136l224 295h164z" />
    <glyph glyph-name="tildecmb" unicode="&#x303;" horiz-adv-x="0" 
d="M-303 1393q55 0 153 -47t134 -48q72 0 100 103h88q-33 -213 -188 -213q-60 0 -150 47t-137 47q-71 0 -100 -102h-89q33 213 189 213z" />
    <glyph glyph-name="macroncmb" unicode="&#x304;" horiz-adv-x="0" 
d="M61 1339v-110h-553v110h553z" />
    <glyph glyph-name="brevecmb" unicode="&#x306;" horiz-adv-x="0" 
d="M-190 1290q82 0 139 41t71 119h91q-9 -127 -91 -199q-82 -71 -210 -71t-211 72q-82 72 -91 198h91q14 -78 71 -119q58 -41 140 -41z" />
    <glyph glyph-name="dotaccentcmb" unicode="&#x307;" horiz-adv-x="0" 
d="M-295 1327q0 -41 -30 -70q-31 -29 -69 -29t-68 30q-30 28 -30 69t30 70t69 29t69 -30q30 -28 29 -69z" />
    <glyph glyph-name="dieresiscmb" unicode="&#x308;" horiz-adv-x="0" 
d="M-492 1325q0 43 29 74t76 31t76 -31t29 -74t-30 -74q-28 -31 -75 -31t-76 32q-29 30 -29 73zM-98 1325q0 43 28 74q29 31 76 31t76 -31t29 -74t-29 -74t-76 -31t-76 31q-28 31 -28 74z" />
    <glyph glyph-name="hookabovecomb" unicode="&#x309;" horiz-adv-x="491" 
d="M289 1137h-101q0 90 91 133q68 33 67 90q0 38 -24 60t-68 22q-92 0 -107 -107l-108 15q33 176 219 176q90 0 142 -45t53 -117q0 -106 -101 -152q-63 -28 -63 -75z" />
    <glyph glyph-name="ringcmb" unicode="&#x30a;" horiz-adv-x="0" 
d="M-98 1330q0 -81 -58 -137t-139 -56q-80 0 -138 56q-59 56 -59 137t58 138q58 58 139 58t139 -58t58 -138zM-172 1331q0 51 -36 86t-87 35t-87 -35t-36 -86t36 -86t87 -35t87 35t36 86z" />
    <glyph glyph-name="hungarumlautcmb" unicode="&#x30b;" horiz-adv-x="0" 
d="M-98 1450l-273 -295h-121l207 295h187zM250 1450l-270 -295h-121l204 295h187z" />
    <glyph glyph-name="caroncmb" unicode="&#x30c;" horiz-adv-x="0" 
d="M119 1450l-223 -295h-164l-224 295h136l170 -221l170 221h135z" />
    <glyph glyph-name="doublegravecmb" unicode="&#x30f;" horiz-adv-x="0" 
d="M-221 1155l-271 295h187l205 -295h-121zM-537 1155l-270 295h186l205 -295h-121z" />
    <glyph glyph-name="invertedbrevecmb" unicode="&#x311;" horiz-adv-x="0" 
d="M-301 1339q-82 0 -139 -41t-72 -118h-90q8 126 90 198t211 72t211 -72t90 -198h-90q-14 78 -72 118t-139 41z" />
    <glyph glyph-name="horncmb" unicode="&#x31b;" horiz-adv-x="0" 
d="M-346 958q154 0 153 144q0 59 -30 117l121 32q28 -63 28 -163t-68 -163t-176 -63q-109 0 -194 51l4 45h162z" />
    <glyph glyph-name="dotbelowcmb" unicode="&#x323;" horiz-adv-x="0" 
d="M-311 -254q0 -45 -32 -78t-79 -33t-79 33t-31 78q0 45 31 78q32 33 79 33t79 -33t32 -78z" />
    <glyph glyph-name="dieresisbelowcmb" unicode="&#x324;" horiz-adv-x="0" 
d="M-492 -248q0 43 29 74t76 31t76 -31t29 -74t-30 -74q-28 -30 -75 -30t-76 30t-29 74zM-98 -248q0 43 28 74q29 31 76 31t76 -31t29 -74t-29 -74q-29 -30 -76 -30t-76 30q-28 31 -28 74z" />
    <glyph glyph-name="ringbelowcmb" unicode="&#x325;" horiz-adv-x="0" 
d="M-98 -339q0 -81 -58 -137t-139 -56q-80 0 -138 56q-59 56 -59 137t58 138t139 57t139 -56q58 -58 58 -139zM-172 -338q0 51 -36 86t-87 35t-87 -35t-36 -86t36 -86t87 -35t87 35t36 86z" />
    <glyph glyph-name="commabelowcmb" unicode="&#x326;" horiz-adv-x="0" 
d="M-250 -143l-166 -482h-116l137 482h145z" />
    <glyph glyph-name="cedillacmb" unicode="&#x327;" horiz-adv-x="0" 
d="M-302 -471q-101 0 -190 41l33 74q59 -29 125 -29t110 23t44 67q0 80 -111 80q-43 0 -88 -16l-37 30l127 201h88l-96 -154q25 8 83 8t106 -38q50 -39 50 -121t-71 -124q-72 -42 -173 -42z" />
    <glyph glyph-name="ogonekcmb" unicode="&#x328;" horiz-adv-x="0" 
d="M-307 -457q-74 0 -129 49t-56 125q0 135 183 283h98q-84 -84 -121 -138t-37 -104t30 -76q30 -28 84 -28t93 45l39 -82q-74 -74 -184 -74z" />
    <glyph glyph-name="circumflexbelowcmb" unicode="&#x32d;" horiz-adv-x="0" 
d="M-104 -143l223 -295h-135l-170 221l-170 -221h-136l224 295h164z" />
    <glyph glyph-name="brevebelowcmb" unicode="&#x32e;" horiz-adv-x="0" 
d="M-190 -414q-128 0 -211 72q-82 72 -91 199h91q14 -78 71 -119q58 -41 140 -41t139 41t71 119h91q-9 -127 -91 -199t-210 -72z" />
    <glyph glyph-name="tildebelowcmb" unicode="&#x330;" horiz-adv-x="0" 
d="M-303 -152q55 0 153 -47t134 -47q72 0 100 103h88q-33 -213 -188 -213q-60 0 -150 47t-137 47q-71 -1 -100 -103h-89q33 213 189 213z" />
    <glyph glyph-name="macronbelowcmb" unicode="&#x331;" horiz-adv-x="0" 
d="M61 -143v-111h-553v111h553z" />
    <glyph glyph-name="gravetonecmb" unicode="&#x340;" horiz-adv-x="0" 
d="M-221 1155l-271 295h187l205 -295h-121z" />
    <glyph glyph-name="acutetonecmb" unicode="&#x341;" horiz-adv-x="0" 
d="M-100 1450l-271 -295h-121l205 295h187z" />
    <glyph glyph-name="dialytikatonoscmb" unicode="&#x344;" horiz-adv-x="0" 
d="M-492 1325q0 43 29 74t76 31t76 -31t29 -74t-30 -74q-28 -31 -75 -31t-76 32q-29 30 -29 73zM-98 1325q0 43 28 74q29 31 76 31t76 -31t29 -74t-29 -74t-76 -31t-76 31q-28 31 -28 74zM6 1878l-270 -295h-121l205 295h186z" />
    <glyph glyph-name="combininggraphemejoiner" unicode="&#x34f;" horiz-adv-x="1024" 
 />
    <glyph glyph-name="uni037E" unicode="&#x37e;" horiz-adv-x="614" 
d="M418 860q0 -45 -32 -78q-32 -32 -79 -32t-79 32t-31 78q0 45 31 78q32 33 79 33t79 -33t32 -78zM408 195l-166 -482h-123l137 482h152z" />
    <glyph glyph-name="u0384" unicode="&#x384;" horiz-adv-x="532" 
d="M219 1096l-22 354h137l-21 -354h-94z" />
    <glyph glyph-name="u0385" unicode="&#x385;" horiz-adv-x="491" 
d="M-98 1169q0 37 25 65q26 28 67 28q40 0 66 -28t26 -65t-26 -65t-66 -27q-40 -1 -66 27t-26 65zM436 1169q0 37 26 65t66 28t67 -28q26 -28 26 -65t-26 -65t-67 -27q-40 -1 -66 27t-26 65zM213 1090l-23 415h138l-21 -415h-94z" />
    <glyph glyph-name="u0386" unicode="&#x386;" horiz-adv-x="1433" 
d="M178 1178l-22 354h137l-21 -354h-94zM340 381l-158 -381h-162l627 1450h144l622 -1450h-164l-159 381h-750zM715 1286l-320 -770h639z" />
    <glyph glyph-name="anoteleia" unicode="&#x387;" horiz-adv-x="532" 
d="M377 643q0 -45 -32 -78t-79 -33t-79 33t-31 78q0 45 31 78q32 33 79 33t79 -33t32 -78z" />
    <glyph glyph-name="u0388" unicode="&#x388;" horiz-adv-x="1327" 
d="M23 1178l-23 354h137l-20 -354h-94zM455 690v-559h776v-131h-924v1450h899v-131h-751v-500h702v-129h-702z" />
    <glyph glyph-name="u0389" unicode="&#x389;" horiz-adv-x="1540" 
d="M23 1178l-23 354h137l-20 -354h-94zM262 0v1450h148v-629h790v629h148v-1450h-148v686h-790v-686h-148z" />
    <glyph glyph-name="u038A" unicode="&#x38a;" horiz-adv-x="622" 
d="M23 1178l-23 354h137l-20 -354h-94zM428 1450v-1450h-147v1450h147z" />
    <glyph glyph-name="u038C" unicode="&#x38c;" horiz-adv-x="1781" 
d="M23 1178l-23 354h137l-20 -354h-94zM1667 725q0 -330 -215 -546t-541 -216q-327 0 -541 216t-214 546t215 546t541 216t540 -216q215 -216 215 -546zM1511 725q0 264 -164 449q-165 184 -435 184t-436 -184q-165 -184 -165 -448t165 -448t435 -184t435 184t165 447z" />
    <glyph glyph-name="u038E" unicode="&#x38e;" horiz-adv-x="1468" 
d="M23 1178l-23 354h137l-20 -354h-94zM926 0h-148v625l-542 825h184l436 -702l440 702h172l-542 -825v-625z" />
    <glyph glyph-name="u038F" unicode="&#x38f;" horiz-adv-x="1656" 
d="M23 1178l-23 354h137l-20 -354h-94zM1536 0h-543v389q197 33 307 156t111 305q0 236 -147 364t-383 129q-236 0 -381 -129t-146 -364q0 -190 111 -311t309 -150v-389h-545v135h412v156q-207 45 -325 197t-117 364q0 285 198 453q199 168 488 168t485 -167t197 -452
q0 -200 -121 -360t-322 -203v-156h412v-135z" />
    <glyph glyph-name="u0390" unicode="&#x390;" horiz-adv-x="512" 
d="M-98 1169q0 37 25 65q26 28 67 28q40 0 66 -28t26 -65t-26 -65t-66 -27q-40 -1 -66 27t-26 65zM436 1169q0 37 26 65t66 28t67 -28q26 -28 26 -65t-26 -65t-67 -27q-40 -1 -66 27t-26 65zM213 1090l-23 415h138l-21 -415h-94zM326 958v-958h-140v958h140z" />
    <glyph glyph-name="u0391" unicode="&#x391;" horiz-adv-x="1433" 
d="M340 381l-158 -381h-162l627 1450h144l622 -1450h-164l-159 381h-750zM715 1286l-320 -770h639z" />
    <glyph glyph-name="u0392" unicode="&#x392;" horiz-adv-x="1302" 
d="M193 0v1450h432q185 0 315 -77q152 -87 152 -299q0 -110 -70 -194t-186 -112v-4q145 -18 236 -112t91 -264q0 -168 -145 -278t-395 -110h-430zM340 1323v-508h297q125 -1 216 61t91 193t-96 193t-252 61h-256zM340 694v-567h274q174 0 287 70t113 212t-96 214t-277 71
h-301z" />
    <glyph glyph-name="u0393" unicode="&#x393;" horiz-adv-x="1040" 
d="M340 1319v-1319h-147v1450h823v-131h-676z" />
    <glyph glyph-name="u0394" unicode="&#x394;" horiz-adv-x="1396" 
d="M1333 0h-1270v106l553 1344h152l565 -1344v-106zM1159 127l-469 1165l-463 -1165h932z" />
    <glyph glyph-name="u0395" unicode="&#x395;" horiz-adv-x="1212" 
d="M340 690v-559h776v-131h-923v1450h899v-131h-752v-500h702v-129h-702z" />
    <glyph glyph-name="u0396" unicode="&#x396;" 
d="M1096 1450v-123l-846 -1196h858v-131h-1045v123l848 1196h-825v131h1010z" />
    <glyph glyph-name="u0397" unicode="&#x397;" horiz-adv-x="1470" 
d="M193 0v1450h147v-629h790v629h148v-1450h-148v686h-790v-686h-147z" />
    <glyph glyph-name="u0398" unicode="&#x398;" horiz-adv-x="1740" 
d="M444 803h854v-135h-854v135zM1626 725q0 -330 -215 -546t-541 -216t-540 216t-215 546q0 330 215 546q214 216 540 216t541 -216t215 -546zM1470 725q0 264 -164 449q-166 184 -436 184t-435 -184t-165 -448t165 -448t435 -184t435 184t165 447z" />
    <glyph glyph-name="u0399" unicode="&#x399;" horiz-adv-x="532" 
d="M340 1450v-1450h-147v1450h147z" />
    <glyph glyph-name="u039A" unicode="&#x39a;" horiz-adv-x="1286" 
d="M340 1450v-651h2l690 651h211l-731 -657l772 -793h-217l-725 772h-2v-772h-147v1450h147z" />
    <glyph glyph-name="u039B" unicode="&#x39b;" horiz-adv-x="1433" 
d="M715 1266l-533 -1266h-162l627 1450h144l622 -1450h-164z" />
    <glyph glyph-name="u039C" unicode="&#x39c;" horiz-adv-x="1814" 
d="M1622 1450v-1450h-147v1260h-5l-524 -1260h-78l-524 1260h-4v-1260h-147v1450h225l491 -1200h2l486 1200h225z" />
    <glyph glyph-name="u039D" unicode="&#x39d;" horiz-adv-x="1564" 
d="M1225 215v1235h147v-1450h-184l-844 1247h-4v-1247h-147v1450h184l844 -1235h4z" />
    <glyph glyph-name="u039E" unicode="&#x39e;" horiz-adv-x="1204" 
d="M96 1450h987v-135h-987v135zM139 823h895v-135h-895v135zM96 135h1012v-135h-1012v135z" />
    <glyph glyph-name="u039F" unicode="&#x39f;" horiz-adv-x="1740" 
d="M1626 725q0 -330 -215 -546t-541 -216t-540 216t-215 546q0 330 215 546q214 216 540 216t541 -216t215 -546zM1470 725q0 264 -164 449q-166 184 -436 184t-435 -184t-165 -448t165 -448t435 -184t435 184t165 447z" />
    <glyph glyph-name="u03A0" unicode="&#x3a0;" horiz-adv-x="1429" 
d="M193 1450h1044v-1450h-147v1315h-750v-1315h-147v1450z" />
    <glyph glyph-name="u03A1" unicode="&#x3a1;" horiz-adv-x="1187" 
d="M193 0v1450h409q226 0 358 -98t132 -288t-134 -290t-360 -100h-258v-674h-147zM340 1323v-524h250q174 -1 264 67t90 197q0 260 -354 260h-250z" />
    <glyph glyph-name="u03A3" unicode="&#x3a3;" horiz-adv-x="1239" 
d="M1143 0h-1032v92l663 633v12l-663 619v94h1007v-131h-772l637 -586v-10l-623 -592h783v-131z" />
    <glyph glyph-name="u03A4" unicode="&#x3a4;" horiz-adv-x="1167" 
d="M657 1319v-1319h-147v1319h-485v131h1118v-131h-486z" />
    <glyph glyph-name="u03A5" unicode="&#x3a5;" horiz-adv-x="1232" 
d="M690 0h-147v625l-543 825h184l437 -702l440 702h172l-543 -825v-625z" />
    <glyph glyph-name="u03A6" unicode="&#x3a6;" horiz-adv-x="1716" 
d="M934 1540v-160q299 -20 489 -199q191 -179 191 -457t-190 -457t-490 -199v-172h-148v172q-301 20 -492 199t-192 458q0 279 192 457t492 198v160h148zM258 724q0 -214 142 -359t386 -166v1052q-244 -21 -386 -167t-142 -360zM1458 725q0 213 -140 357t-384 169v-1050
q242 19 383 165t141 359z" />
    <glyph glyph-name="u03A7" unicode="&#x3a7;" horiz-adv-x="1329" 
d="M270 1450l398 -586l395 586h176l-481 -690l532 -760h-184l-442 653l-441 -653h-184l532 762l-485 688h184z" />
    <glyph glyph-name="u03A8" unicode="&#x3a8;" horiz-adv-x="1734" 
d="M940 1450v-1004h51q182 0 303 102t121 304v598h148v-606q0 -252 -165 -388t-417 -137h-41v-319h-147v319h-62q-247 -1 -403 135t-156 390v606h147v-598q0 -205 120 -305t300 -101h54v1004h147z" />
    <glyph glyph-name="u03A9" unicode="&#x3a9;" horiz-adv-x="1548" 
d="M1427 0h-542v389q197 33 307 156t111 305q1 236 -147 364t-384 129q-236 0 -381 -129t-145 -364q0 -190 110 -311t310 -150v-389h-545v135h411v156q-206 45 -324 197t-118 364q0 285 199 453t487 168t486 -167q197 -167 196 -452q0 -200 -121 -360t-321 -203v-156h411
v-135z" />
    <glyph glyph-name="u03AA" unicode="&#x3aa;" horiz-adv-x="532" 
d="M340 1450v-1450h-147v1450h147zM-35 1735q0 43 29 73t76 31q48 0 76 -31q28 -32 28 -74t-29 -73t-75 -31t-76 31q-29 31 -29 74zM358 1735q0 43 29 73t76 31q47 0 76 -31q29 -32 29 -74t-30 -73q-28 -31 -75 -31t-76 31t-29 74z" />
    <glyph glyph-name="u03AB" unicode="&#x3ab;" horiz-adv-x="1232" 
d="M690 0h-147v625l-543 825h184l437 -702l440 702h172l-543 -825v-625zM319 1735q0 43 29 73t76 31q47 0 76 -31q28 -32 28 -74t-28 -73t-76 -31q-47 0 -76 31t-29 74zM713 1735q1 43 29 73t75 31q47 0 76 -31q29 -32 29 -74t-29 -73t-76 -31t-76 31q-28 31 -28 74z" />
    <glyph glyph-name="u03AC" unicode="&#x3ac;" horiz-adv-x="1290" 
d="M629 1151l-23 354h137l-20 -354h-94zM975 162h-4q-59 -90 -157 -138t-206 -49q-221 -1 -358 143t-137 361t137 361t358 143q109 0 206 -49t157 -141h4v165h139v-958h-139v162zM260 479q0 -165 97 -275t261 -110t269 110q104 110 104 276t-104 276t-267 110t-262 -110
q-98 -111 -98 -277z" />
    <glyph glyph-name="u03AD" unicode="&#x3ad;" horiz-adv-x="970" 
d="M252 706q0 -80 82 -123q82 -42 211 -42h211v-115h-260q-139 0 -208 -46t-69 -123t88 -120q87 -43 227 -43t250 70q51 31 80 69l86 -77q-39 -51 -102 -90q-136 -90 -332 -90t-321 76q-125 77 -125 195t81 174t179 66v5q-88 8 -157 66t-69 153q0 123 124 201t305 79
q181 0 301 -94q50 -39 79 -94l-108 -66q-82 138 -275 137q-110 0 -194 -44t-84 -124zM428 1505h137l-20 -354h-94z" />
    <glyph glyph-name="u03AE" unicode="&#x3ae;" horiz-adv-x="1222" 
d="M571 1151l-22 354h137l-20 -354h-95zM317 795h5q41 82 138 135t202 53q180 0 278 -106t98 -289v-1080h-139v1022q0 164 -60 250q-59 86 -203 86t-228 -95t-84 -279v-492h-140v748q0 122 -8 210h133q8 -68 8 -163z" />
    <glyph glyph-name="u03AF" unicode="&#x3af;" horiz-adv-x="489" 
d="M305 958v-958h-139v958h139zM190 1151l-22 354h137l-20 -354h-95z" />
    <glyph glyph-name="u03B0" unicode="&#x3b0;" horiz-adv-x="1187" 
d="M592 -23q-207 0 -311 125t-105 306v550h139v-540q0 -132 68 -226t210 -94t211 93t68 227v540h140v-550q0 -178 -106 -304t-314 -127zM233 1169q0 37 26 65t67 28q40 0 66 -28t26 -65t-26 -65t-66 -27q-40 -1 -67 27q-26 28 -26 65zM768 1169q0 37 26 65t66 28t67 -28
q25 -28 25 -65t-26 -65t-66 -27q-40 -1 -66 27t-26 65zM545 1090l-23 415h137l-20 -415h-94z" />
    <glyph glyph-name="u03B1" unicode="&#x3b1;" horiz-adv-x="1290" 
d="M975 162h-4q-59 -90 -157 -138t-206 -49q-221 -1 -358 143t-137 361t137 361t358 143q109 0 206 -49t157 -141h4v165h139v-958h-139v162zM260 479q0 -165 97 -275t261 -110t269 110q104 110 104 276t-104 276t-267 110t-262 -110q-98 -111 -98 -277z" />
    <glyph glyph-name="u03B2" unicode="&#x3b2;" horiz-adv-x="1288" 
d="M332 -492h-139v1590q0 215 114 336q115 120 288 120t296 -106t123 -281q0 -137 -75 -230t-169 -108v-6q109 0 244 -92q66 -45 108 -127t43 -182q0 -193 -139 -320q-140 -127 -320 -127t-294 99q-53 43 -80 100v-666zM332 1083v-651q0 -160 102 -249t248 -89t245 89
q97 89 97 245t-105 244t-282 88h-141v110h120q115 0 188 73t73 201t-79 211t-199 83q-119 0 -193 -90t-74 -265z" />
    <glyph glyph-name="u03B3" unicode="&#x3b3;" horiz-adv-x="1081" 
d="M621 -492h-140v588l-454 862h168l358 -731l344 731h158l-434 -862v-588z" />
    <glyph glyph-name="u03B4" unicode="&#x3b4;" horiz-adv-x="1247" 
d="M180 1280q0 123 134 196q134 72 326 72q271 -1 435 -78l-45 -127q-43 20 -146 48q-102 28 -238 28t-227 -33t-91 -104q0 -53 60 -93t230 -106q514 -193 515 -610q1 -219 -143 -358t-366 -139t-366 140t-143 357q0 217 143 356t354 125l33 -2l4 6l-33 13q-8 4 -62 22
q-54 17 -80 29t-59 24q-163 59 -199 122q-36 64 -36 112zM985 472q0 165 -98 270q-98 106 -266 106q-167 0 -263 -106t-96 -271q0 -166 95 -270q95 -105 263 -105t267 106q98 106 98 270z" />
    <glyph glyph-name="u03B5" unicode="&#x3b5;" horiz-adv-x="991" 
d="M252 706q0 -80 82 -123q82 -42 211 -42h211v-115h-260q-139 0 -208 -46t-69 -123t88 -120q87 -43 227 -43t250 70q51 31 80 69l86 -77q-39 -51 -102 -90q-136 -90 -332 -90t-321 76q-125 77 -125 195t81 174t179 66v5q-88 8 -157 66t-69 153q0 123 124 201t305 79
q181 0 301 -94q50 -39 79 -94l-108 -66q-82 138 -275 137q-110 0 -194 -44t-84 -124z" />
    <glyph glyph-name="u03B6" unicode="&#x3b6;" horiz-adv-x="1040" 
d="M113 525q0 128 42 248t104 210q152 220 509 449h-588v112h793v-110q-357 -238 -535 -447t-178 -461q0 -178 117 -277t346 -138q274 -47 274 -275q1 -92 -71 -171t-150 -117t-137 -48l-80 107q109 19 200 75t91 142t-66 126t-168 54t-184 46t-157 90t-119 158t-43 227z
" />
    <glyph glyph-name="u03B7" unicode="&#x3b7;" horiz-adv-x="1214" 
d="M317 795h5q41 82 138 135t202 53q180 0 278 -106t98 -289v-1080h-139v1022q0 164 -60 250q-59 86 -203 86t-228 -95t-84 -279v-492h-140v748q0 122 -8 210h133q8 -68 8 -163z" />
    <glyph glyph-name="u03B8" unicode="&#x3b8;" horiz-adv-x="1236" 
d="M135 759q0 366 119 584t376 218t377 -216q119 -216 119 -584t-120 -583t-376 -215q-257 0 -376 215t-119 581zM629 1448q-174 0 -261 -170t-92 -453h707q-4 179 -38 313q-35 134 -115 222t-201 88zM629 78q336 0 354 612l-707 2q4 -282 92 -448t261 -166z" />
    <glyph glyph-name="u03B9" unicode="&#x3b9;" horiz-adv-x="454" 
d="M297 958v-958h-139v958h139z" />
    <glyph glyph-name="u03BA" unicode="&#x3ba;" horiz-adv-x="1085" 
d="M315 958v-432h7l442 432h201l-484 -438l533 -520h-205l-487 504h-7v-504h-139v958h139z" />
    <glyph glyph-name="u03BB" unicode="&#x3bb;" horiz-adv-x="1056" 
d="M185 1407q-54 0 -122 -23l-30 115q102 27 176 27t126 -16t87 -57q35 -40 55 -81q19 -41 35 -81q15 -40 22 -53q6 -13 9 -24l481 -1214h-150l-323 860h-4l-328 -860h-149l405 1008l-59 157q-31 84 -43 112t-39 68t-61 51t-88 11z" />
    <glyph glyph-name="u03BC" unicode="&#x3bc;" horiz-adv-x="1191" 
d="M176 -492v1450h139v-530q-1 -180 57 -255t194 -75t218 98t82 271v491h140v-747q0 -92 10 -211h-150v156h-4q-47 -78 -125 -129t-166 -52q-197 0 -252 166h-4v-633h-139z" />
    <glyph glyph-name="u03BD" unicode="&#x3bd;" horiz-adv-x="999" 
d="M967 958l-389 -958h-154l-391 958h155l312 -811h4l313 811h150z" />
    <glyph glyph-name="u03BE" unicode="&#x3be;" horiz-adv-x="1032" 
d="M113 376q0 171 117 261q118 90 284 115q-373 57 -373 342q0 262 332 327v6h-334v117h772v-88q-294 -37 -460 -111t-166 -249q1 -137 115 -205t305 -68h182v-137h-248q-159 0 -269 -74t-110 -204t102 -192t353 -105q276 -45 276 -275q0 -70 -42 -133q-67 -101 -221 -171
q-56 -26 -95 -32l-80 107q109 19 200 75t91 141t-65 125t-177 56q-225 33 -357 117t-132 255z" />
    <glyph glyph-name="u03BF" unicode="&#x3bf;" horiz-adv-x="1251" 
d="M1137 479q1 -217 -143 -360t-367 -143t-367 142q-144 144 -145 361q0 217 144 361q143 144 367 143q224 1 368 -143t143 -361zM262 479q0 -165 100 -275t264 -110t263 110q100 110 100 274q0 165 -100 277q-100 111 -263 111t-264 -111q-100 -112 -100 -276z" />
    <glyph glyph-name="u03C0" unicode="&#x3c0;" horiz-adv-x="1161" 
d="M315 842v-842h-139v958h809v-958h-139v842h-531z" />
    <glyph glyph-name="u03C1" unicode="&#x3c1;" horiz-adv-x="1300" 
d="M324 162v-654h-140v971q0 238 148 371t360 133q214 0 354 -143q140 -142 140 -360t-140 -361t-362 -144q-106 1 -200 49t-154 138h-6zM1038 481q0 168 -97 277q-97 108 -261 108t-264 -110t-100 -280q0 -169 100 -275q102 -107 265 -107t260 110t97 277z" />
    <glyph glyph-name="u03C2" unicode="&#x3c2;" horiz-adv-x="1040" 
d="M628 983q230 0 355 -166l-109 -78q-80 127 -247 127t-266 -104t-99 -290t129 -264q107 -65 221 -86q113 -20 154 -36t86 -46q96 -64 94 -204q0 -70 -42 -133q-67 -101 -221 -171q-56 -26 -95 -32l-80 107q109 19 200 75t91 144t-70 123q-49 24 -173 51q-125 27 -180 56
q-55 30 -106 69q-91 70 -133 203q-23 70 -22 153q0 225 141 363q142 138 372 139z" />
    <glyph glyph-name="u03C3" unicode="&#x3c3;" horiz-adv-x="1300" 
d="M1280 842h-283v-6q139 -142 139 -358t-142 -359q-144 -143 -367 -143t-367 142q-144 144 -145 361q0 217 144 361t366 143q67 0 163 -12t183 -13h309v-116zM262 479q0 -165 100 -275t264 -110t263 110q100 110 100 274q0 165 -100 277q-100 111 -263 111t-264 -111
q-100 -112 -100 -276z" />
    <glyph glyph-name="u03C4" unicode="&#x3c4;" horiz-adv-x="985" 
d="M20 842v116h945v-116h-404v-842h-139v842h-402z" />
    <glyph glyph-name="u03C5" unicode="&#x3c5;" horiz-adv-x="1187" 
d="M592 -23q-207 0 -311 125t-105 306v550h139v-540q0 -132 68 -226t210 -94t211 93t68 227v540h140v-550q0 -178 -106 -304t-314 -127z" />
    <glyph glyph-name="u03C6" unicode="&#x3c6;" horiz-adv-x="1636" 
d="M115 500q0 190 121 310t280 165l49 -109q-121 -37 -212 -127t-91 -237q0 -203 133 -303t363 -105v877h225q227 0 383 -132t156 -337q0 -166 -94 -289t-234 -180q-139 -57 -297 -58v-467h-139v467q-283 5 -463 141t-180 384zM1374 508q0 102 -43 175t-109 108
q-120 63 -251 63h-74v-760q207 0 342 106t135 308z" />
    <glyph glyph-name="u03C7" unicode="&#x3c7;" horiz-adv-x="1112" 
d="M80 958h151l328 -583l326 583h145l-397 -688l438 -759h-151l-365 653l-362 -653h-152l438 761z" />
    <glyph glyph-name="u03C8" unicode="&#x3c8;" horiz-adv-x="1605" 
d="M872 958v-864q201 4 326 116t125 318v430h139v-438q0 -254 -163 -399t-427 -146v-467h-139v467q-264 -1 -427 145t-163 400v438h140v-430q0 -206 125 -318t325 -116v864h139z" />
    <glyph glyph-name="u03C9" unicode="&#x3c9;" horiz-adv-x="1650" 
d="M238 456q0 -160 66 -260t184 -100q120 0 194 92t74 254v174h139v-174q0 -162 74 -252q73 -90 193 -90t186 98t66 258t-87 260q-86 100 -268 150l55 105q175 -41 300 -156q144 -131 142 -377q0 -200 -108 -328t-291 -128q-143 0 -231 86t-97 233h-8q-10 -152 -97 -238
t-230 -86q-182 1 -291 133t-109 328q0 245 135 369t308 164l55 -105q-180 -51 -267 -151q-87 -99 -87 -259z" />
    <glyph glyph-name="u03CA" unicode="&#x3ca;" horiz-adv-x="512" 
d="M326 958v-958h-140v958h140zM-43 1325q0 43 29 74q30 31 76 31t75 -31t29 -74t-29 -74t-76 -31t-75 32q-28 30 -29 73zM350 1325q0 43 29 74t76 31t75 -31t29 -74q0 -43 -29 -74q-30 -31 -76 -31t-75 32q-29 30 -29 73z" />
    <glyph glyph-name="u03CB" unicode="&#x3cb;" horiz-adv-x="1187" 
d="M285 1325q0 43 28 74q29 31 76 31t76 -31t29 -74t-29 -74t-76 -31t-76 31q-28 31 -28 74zM678 1325q0 43 29 74t75 31t76 -31q29 -31 29 -74t-29 -74t-76 -31q-48 0 -76 32q-28 30 -28 73zM592 -23q-207 0 -311 125t-105 306v550h139v-540q0 -132 68 -226t210 -94t211 93
t68 227v540h140v-550q0 -178 -106 -304t-314 -127z" />
    <glyph glyph-name="u03CC" unicode="&#x3cc;" horiz-adv-x="1251" 
d="M1137 479q1 -217 -143 -360t-367 -143t-367 142q-144 144 -145 361q0 217 144 361q143 144 367 143q224 1 368 -143t143 -361zM262 479q0 -165 100 -275t264 -110t263 110q100 110 100 274q0 165 -100 277q-100 111 -263 111t-264 -111q-100 -112 -100 -276zM584 1116
l-23 354h137l-20 -354h-94z" />
    <glyph glyph-name="u03CD" unicode="&#x3cd;" horiz-adv-x="1187" 
d="M551 1096l-23 354h138l-21 -354h-94zM592 -23q-207 0 -311 125t-105 306v550h139v-540q0 -132 68 -226t210 -94t211 93t68 227v540h140v-550q0 -178 -106 -304t-314 -127z" />
    <glyph glyph-name="u03CE" unicode="&#x3ce;" horiz-adv-x="1650" 
d="M238 456q0 -160 66 -260t184 -100q120 0 194 92t74 254v174h139v-174q0 -162 74 -252q73 -90 193 -90t186 98t66 258t-87 260q-86 100 -268 150l55 105q175 -41 300 -156q144 -131 142 -377q0 -200 -108 -328t-291 -128q-143 0 -231 86t-97 233h-8q-10 -152 -97 -238
t-230 -86q-182 1 -291 133t-109 328q0 245 135 369t308 164l55 -105q-180 -51 -267 -151q-87 -99 -87 -259zM750 1450h137l-21 -354h-94z" />
    <glyph glyph-name="u0401" unicode="&#x401;" horiz-adv-x="1212" 
d="M340 690v-559h776v-131h-923v1450h899v-131h-752v-500h702v-129h-702zM346 1735q0 43 29 73t76 31q47 0 75 -31q28 -32 29 -74q0 -42 -29 -73q-30 -31 -76 -31t-75 31t-29 74zM739 1735q0 43 29 73t76 31q47 0 76 -31q28 -32 28 -74t-28 -73t-76 -31q-47 0 -76 31t-29 74
z" />
    <glyph glyph-name="u0402" unicode="&#x402;" horiz-adv-x="1497" 
d="M446 1315h-421v135h1095v-135h-526v-389h278q252 0 382 -129t130 -333t-132 -338t-373 -128l-76 2v139h121q123 0 216 84t93 238q0 155 -89 241t-257 86h-293v-788h-148v1315z" />
    <glyph glyph-name="u0403" unicode="&#x403;" horiz-adv-x="1056" 
d="M340 1319v-1319h-147v1450h823v-131h-676zM719 1860h186l-270 -295h-121z" />
    <glyph glyph-name="u0404" unicode="&#x404;" horiz-adv-x="1505" 
d="M870 -37q-328 0 -542 216t-213 546q0 330 215 546t540 216q162 -1 304 -63t212 -167l-122 -90q-50 79 -156 135t-236 56q-248 0 -410 -157t-188 -392h869v-129h-871q12 -248 178 -418t435 -170q270 0 413 215l115 -74q-80 -121 -218 -195t-325 -75z" />
    <glyph glyph-name="u0405" unicode="&#x405;" horiz-adv-x="1155" 
d="M596 1362q-121 0 -215 -72t-94 -186t61 -178q23 -25 75 -52q52 -26 82 -36q283 -90 366 -146t107 -103q54 -100 54 -208q0 -203 -141 -311t-332 -107q-137 0 -259 55t-198 160l127 94q111 -182 332 -182q123 0 222 75t99 204t-82 191q-34 26 -69 47t-162 62
q-127 39 -184 65q-162 72 -214 189q-32 71 -32 184t73 207q135 174 390 173q139 0 246 -49t164 -127l-117 -94q-104 145 -299 145z" />
    <glyph glyph-name="u0406" unicode="&#x406;" horiz-adv-x="532" 
d="M340 1450v-1450h-147v1450h147z" />
    <glyph glyph-name="u0407" unicode="&#x407;" horiz-adv-x="532" 
d="M340 1450v-1450h-147v1450h147zM-35 1735q0 43 29 73t76 31q48 0 76 -31q28 -32 28 -74t-29 -73t-75 -31t-76 31q-29 31 -29 74zM358 1735q0 43 29 73t76 31q47 0 76 -31q29 -32 29 -74t-30 -73q-28 -31 -75 -31t-76 31t-29 74z" />
    <glyph glyph-name="u0408" unicode="&#x408;" horiz-adv-x="1007" 
d="M424 92q256 0 256 336v1022h147v-1032q0 -169 -72 -297q-89 -158 -337 -158q-134 0 -237 81t-130 214l137 37q18 -91 80 -147t156 -56z" />
    <glyph glyph-name="u0409" unicode="&#x409;" horiz-adv-x="1925" 
d="M1315 817q260 -1 400 -111t140 -321q0 -165 -139 -275t-385 -110h-123l-503 1266l-502 -1266h-152l584 1450h145l258 -633h277zM1307 688h-217l229 -561q178 0 283 67q104 67 104 193q0 157 -112 229t-287 72z" />
    <glyph glyph-name="u040A" unicode="&#x40a;" horiz-adv-x="2025" 
d="M193 1450h147v-629h690v629h148v-629h256q225 -1 357 -111t132 -302t-135 -300t-358 -108h-400v686h-690v-686h-147v1450zM1421 692h-243v-561h243q176 0 266 75q89 75 89 209t-90 206q-91 71 -265 71z" />
    <glyph glyph-name="u040B" unicode="&#x40b;" horiz-adv-x="1497" 
d="M907 786h-313v-786h-148v1315h-421v135h1095v-135h-526v-393h334q216 0 326 -123t110 -334v-465h-147v391q0 199 -69 297t-241 98z" />
    <glyph glyph-name="u040C" unicode="&#x40c;" horiz-adv-x="1415" 
d="M340 0h-147v1450h147v-616q94 0 213 -15l551 631h162l-557 -666q252 -78 393 -272t190 -512h-162q-68 377 -250 542q-183 165 -540 156v-698zM987 1860l-270 -295h-121l205 295h186z" />
    <glyph glyph-name="u040E" unicode="&#x40e;" horiz-adv-x="1329" 
d="M319 1806l105 49q28 -77 96 -125t162 -48t163 48t95 125l104 -49q-37 -102 -130 -169t-232 -67q-138 0 -232 68q-94 66 -131 168zM358 -25q-126 0 -198 39l67 127q57 -35 135 -35t134 56q55 56 112 172l-553 1116h164l469 -952l453 952h170l-555 -1135
q-80 -164 -176 -252t-222 -88z" />
    <glyph glyph-name="u040F" unicode="&#x40f;" horiz-adv-x="1429" 
d="M340 135h750v1315h147v-1450h-432v-285h-148v285h-464v1450h147v-1315z" />
    <glyph glyph-name="u0410" unicode="&#x410;" horiz-adv-x="1433" 
d="M340 381l-158 -381h-162l627 1450h144l622 -1450h-164l-159 381h-750zM715 1286l-320 -770h639z" />
    <glyph glyph-name="u0411" unicode="&#x411;" horiz-adv-x="1247" 
d="M631 0h-438v1450h823v-135h-676v-494h295q223 -1 356 -109t133 -300t-134 -302t-359 -110zM340 135h283q172 0 266 74t94 206q0 131 -95 201t-265 70h-283v-551z" />
    <glyph glyph-name="u0412" unicode="&#x412;" horiz-adv-x="1302" 
d="M193 0v1450h432q185 0 315 -77q152 -87 152 -299q0 -110 -70 -194t-186 -112v-4q145 -18 236 -112t91 -264q0 -168 -145 -278t-395 -110h-430zM340 1323v-508h297q125 -1 216 61t91 193t-96 193t-252 61h-256zM340 694v-567h274q174 0 287 70t113 212t-96 214t-277 71
h-301z" />
    <glyph glyph-name="u0413" unicode="&#x413;" horiz-adv-x="1056" 
d="M340 1319v-1319h-147v1450h823v-131h-676z" />
    <glyph glyph-name="u0414" unicode="&#x414;" horiz-adv-x="1486" 
d="M1339 0h-1192v-285h-147v420h180l494 1315h143l490 -1315h180v-420h-148v285zM741 1286l-413 -1151h827z" />
    <glyph glyph-name="u0415" unicode="&#x415;" horiz-adv-x="1212" 
d="M340 690v-559h776v-131h-923v1450h899v-131h-752v-500h702v-129h-702z" />
    <glyph glyph-name="u0416" unicode="&#x416;" horiz-adv-x="2007" 
d="M930 0v698q-281 8 -442 -158t-203 -540h-162q66 610 467 774l-463 676h162l434 -637q90 20 207 21v616h147v-616q117 0 207 -21l434 637h162l-465 -676q397 -158 469 -774h-162q-43 375 -203 541q-161 166 -442 157v-698h-147z" />
    <glyph glyph-name="u0417" unicode="&#x417;" horiz-adv-x="1275" 
d="M467 696v127h63q156 0 266 66t110 200q0 133 -85 203q-84 70 -227 70q-207 0 -303 -191l-115 86q133 229 430 230q203 -1 326 -103t123 -286q0 -119 -88 -209t-205 -123v-4q142 -20 248 -91q59 -40 93 -110t34 -160q0 -197 -152 -317q-151 -120 -359 -121q-208 0 -325 78
t-188 225l127 76q53 -124 140 -188q86 -64 250 -64t262 84q97 84 97 227q0 295 -459 295h-63z" />
    <glyph glyph-name="u0418" unicode="&#x418;" horiz-adv-x="1564" 
d="M340 215h4l844 1235h184v-1450h-147v1247h-4l-844 -1247h-184v1450h147v-1235z" />
    <glyph glyph-name="u0419" unicode="&#x419;" horiz-adv-x="1564" 
d="M1372 1450v-1450h-147v1247h-4l-844 -1247h-184v1450h147v-1235h4l844 1235h184zM420 1806l104 49q27 -77 96 -125q68 -48 162 -48t163 48t95 125l105 -49q-37 -102 -130 -169t-233 -67t-232 68q-93 66 -130 168z" />
    <glyph glyph-name="u041A" unicode="&#x41a;" horiz-adv-x="1415" 
d="M340 0h-147v1450h147v-616q94 0 213 -15l551 631h162l-557 -666q252 -78 393 -272t190 -512h-162q-68 377 -250 542q-183 165 -540 156v-698z" />
    <glyph glyph-name="u041B" unicode="&#x41b;" horiz-adv-x="1392" 
d="M715 1266l-533 -1266h-162l627 1450h144l622 -1450h-164z" />
    <glyph glyph-name="u041C" unicode="&#x41c;" horiz-adv-x="1814" 
d="M1622 1450v-1450h-147v1260h-5l-524 -1260h-78l-524 1260h-4v-1260h-147v1450h225l491 -1200h2l486 1200h225z" />
    <glyph glyph-name="u041D" unicode="&#x41d;" horiz-adv-x="1470" 
d="M193 0v1450h147v-629h790v629h148v-1450h-148v686h-790v-686h-147z" />
    <glyph glyph-name="u041E" unicode="&#x41e;" horiz-adv-x="1740" 
d="M1626 725q0 -330 -215 -546t-541 -216t-540 216t-215 546q0 330 215 546q214 216 540 216t541 -216t215 -546zM1470 725q0 264 -164 449q-166 184 -436 184t-435 -184t-165 -448t165 -448t435 -184t435 184t165 447z" />
    <glyph glyph-name="u041F" unicode="&#x41f;" horiz-adv-x="1429" 
d="M193 1450h1044v-1450h-147v1315h-750v-1315h-147v1450z" />
    <glyph glyph-name="u0420" unicode="&#x420;" horiz-adv-x="1187" 
d="M193 0v1450h409q226 0 358 -98t132 -288t-134 -290t-360 -100h-258v-674h-147zM340 1323v-524h250q174 -1 264 67t90 197q0 260 -354 260h-250z" />
    <glyph glyph-name="u0421" unicode="&#x421;" horiz-adv-x="1474" 
d="M870 -37q-328 0 -542 216t-213 546q0 330 215 546t540 216q162 -1 304 -63t212 -167l-122 -90q-50 79 -156 135t-236 56q-272 0 -437 -184t-165 -448t166 -448q166 -186 442 -186t420 215l115 -74q-80 -121 -218 -195t-325 -75z" />
    <glyph glyph-name="u0422" unicode="&#x422;" horiz-adv-x="1167" 
d="M657 1319v-1319h-147v1319h-485v131h1118v-131h-486z" />
    <glyph glyph-name="u0423" unicode="&#x423;" horiz-adv-x="1329" 
d="M358 -25q-126 0 -198 39l67 127q57 -35 135 -35t134 56q55 56 112 172l-553 1116h164l469 -952l453 952h170l-555 -1135q-80 -164 -176 -252t-222 -88z" />
    <glyph glyph-name="u0424" unicode="&#x424;" horiz-adv-x="1716" 
d="M934 1540v-160q299 -20 489 -199q191 -179 191 -457t-190 -457t-490 -199v-172h-148v172q-301 20 -492 199t-192 458q0 279 192 457t492 198v160h148zM258 724q0 -214 142 -359t386 -166v1052q-244 -21 -386 -167t-142 -360zM1458 725q0 213 -140 357t-384 169v-1050
q242 19 383 165t141 359z" />
    <glyph glyph-name="u0425" unicode="&#x425;" horiz-adv-x="1329" 
d="M270 1450l398 -586l395 586h176l-481 -690l532 -760h-184l-442 653l-441 -653h-184l532 762l-485 688h184z" />
    <glyph glyph-name="u0426" unicode="&#x426;" horiz-adv-x="1476" 
d="M1268 0h-1075v1450h147v-1315h750v1315h147v-1315h178v-420h-147v285z" />
    <glyph glyph-name="u0427" unicode="&#x427;" horiz-adv-x="1275" 
d="M936 791v659h147v-1450h-145v655h-358q-215 0 -326 123t-111 334v338h148v-264q1 -199 69 -297t240 -98h336z" />
    <glyph glyph-name="u0428" unicode="&#x428;" horiz-adv-x="2025" 
d="M340 135h606v1315h148v-1315h592v1315h147v-1450h-1640v1450h147v-1315z" />
    <glyph glyph-name="u0429" unicode="&#x429;" horiz-adv-x="2064" 
d="M1855 0h-1662v1450h147v-1315h606v1315h148v-1315h583v1315h148v-1315h178v-420h-148v285z" />
    <glyph glyph-name="u042A" unicode="&#x42a;" horiz-adv-x="1415" 
d="M25 1450h542v-592h256q221 0 355 -117t135 -311q0 -194 -162 -312t-418 -118h-313v1315h-395v135zM567 729v-598h244q168 0 261 84t93 219t-94 215t-260 80h-244z" />
    <glyph glyph-name="u042B" unicode="&#x42b;" horiz-adv-x="1572" 
d="M193 1450h147v-592h254q219 0 354 -124t135 -320t-134 -304q-134 -110 -359 -110h-397v1450zM582 131q354 0 354 291q0 147 -94 227t-260 80h-242v-598h242zM1233 1450h147v-1450h-147v1450z" />
    <glyph glyph-name="u042C" unicode="&#x42c;" horiz-adv-x="1187" 
d="M584 729h-244v-598h244q168 0 261 84t93 219t-94 215t-260 80zM193 0v1450h147v-592h256q221 0 355 -117t134 -311t-136 -312t-357 -118h-399z" />
    <glyph glyph-name="u042D" unicode="&#x42d;" horiz-adv-x="1505" 
d="M657 92q256 0 410 168t166 420h-871v129h869q-25 245 -179 397t-411 152q-163 0 -275 -68t-159 -151l-103 88q78 113 224 187t327 73q340 0 538 -212t198 -548t-203 -550t-529 -214q-189 1 -339 77t-228 193l115 74q73 -107 195 -161t255 -54z" />
    <glyph glyph-name="u042E" unicode="&#x42e;" horiz-adv-x="2226" 
d="M193 1450h147v-655h262q20 301 232 497t530 195q318 0 532 -216t215 -546q0 -330 -215 -546t-532 -216t-531 198t-231 498h-262v-659h-147v1450zM756 725q0 -264 165 -447q165 -184 435 -184t435 184t165 447q0 265 -165 449t-435 184t-435 -184t-165 -449z" />
    <glyph glyph-name="u042F" unicode="&#x42f;" horiz-adv-x="1310" 
d="M688 1450h430v-1450h-147v676h-166q-254 0 -392 -155t-167 -521h-162q16 260 122 458t269 267v4q-151 25 -237 110t-86 226q-2 189 141 287t395 98zM971 811v504h-269q-198 1 -296 -59t-98 -187t102 -193q104 -66 290 -65h271z" />
    <glyph glyph-name="u0430" unicode="&#x430;" horiz-adv-x="1093" 
d="M788 588v30q0 248 -256 248q-172 0 -284 -112l-78 92q137 137 377 137q164 0 268 -89t105 -259v-420q0 -127 16 -215h-125q-14 82 -14 156h-4q-66 -96 -148 -138t-206 -43q-124 0 -225 73t-101 218t99 216t242 88q142 18 334 18zM788 479h-40q-492 0 -492 -207
q0 -94 66 -138t159 -44q141 0 225 92q83 92 82 226v71z" />
    <glyph glyph-name="u0431" unicode="&#x431;" horiz-adv-x="1226" 
d="M965 461q1 158 -93 260t-244 102t-250 -90q-102 -90 -102 -258t98 -274q98 -107 255 -107q158 0 247 104t89 263zM637 942q211 0 343 -134t132 -350t-140 -349t-355 -133t-349 142t-133 384q0 542 204 768q161 178 478 178h277v-119h-281q-289 0 -407 -160
q-58 -80 -90 -177t-50 -238q54 88 152 138t219 50z" />
    <glyph glyph-name="u0432" unicode="&#x432;" horiz-adv-x="1107" 
d="M614 0h-438v958h414q178 0 268 -68t90 -178t-53 -152t-160 -73q117 -8 189 -64t72 -171q0 -116 -100 -184q-98 -68 -282 -68zM315 434v-321h179q227 0 288 37q60 37 61 126q1 90 -66 124t-202 34h-260zM315 535h267q110 1 164 35t54 126t-73 121q-74 29 -238 29h-174
v-311z" />
    <glyph glyph-name="u0433" unicode="&#x433;" horiz-adv-x="794" 
d="M315 842v-842h-139v958h594v-116h-455z" />
    <glyph glyph-name="u0434" unicode="&#x434;" horiz-adv-x="1114" 
d="M137 0v-285h-137v406h154l352 837h123l325 -837h160v-406h-135v285h-842zM563 791l-268 -670h520z" />
    <glyph glyph-name="u0435" unicode="&#x435;" 
d="M602 866q-140 0 -236 -93t-104 -220h653q-6 139 -89 226t-224 87zM1057 508q0 -41 -2 -66h-795q4 -145 104 -246t246 -102q102 0 182 47t126 119l104 -82q-160 -203 -412 -203q-213 -1 -354 143t-141 360t139 360t350 145q211 0 332 -135t121 -340z" />
    <glyph glyph-name="u0436" unicode="&#x436;" horiz-adv-x="1671" 
d="M766 0v446q-213 -4 -335 -103t-173 -343h-156q54 223 148 348t254 178l-350 432h155l322 -403q68 10 135 10v393h139v-393q63 0 135 -10l322 403h156l-353 -432q158 -53 253 -178t151 -348h-156q-55 244 -176 343t-332 103v-446h-139z" />
    <glyph glyph-name="u0437" unicode="&#x437;" horiz-adv-x="948" 
d="M457 991q170 0 257 -82t87 -182t-70 -166t-174 -69v-7q121 0 200 -54t79 -174t-106 -201t-286 -81t-290 95q-49 41 -72 96l113 70q14 -41 53 -76q74 -74 199 -74t188 49t63 127t-56 123t-173 45h-123v107h103q96 0 157 44q62 44 62 123t-54 131t-170 52t-184 -76
q-31 -31 -47 -74l-109 66q25 53 72 94q111 94 281 94z" />
    <glyph glyph-name="u0438" unicode="&#x438;" horiz-adv-x="1226" 
d="M907 0v780l-588 -780h-143v958h143v-751l588 751h144v-958h-144z" />
    <glyph glyph-name="u0439" unicode="&#x439;" horiz-adv-x="1226" 
d="M176 0v958h143v-751l588 751h144v-958h-144v780l-588 -780h-143zM623 1260q84 0 132 46t81 134l100 -45q-86 -246 -312 -246t-315 246l101 45q61 -180 213 -180z" />
    <glyph glyph-name="u043A" unicode="&#x43a;" horiz-adv-x="1112" 
d="M315 958v-393q82 0 154 -12l344 405h156l-373 -434q166 -53 261 -178t153 -346h-156q-55 248 -179 345t-360 101v-446h-139v958h139z" />
    <glyph glyph-name="u043B" unicode="&#x43b;" horiz-adv-x="1017" 
d="M977 0h-141l-318 791l-332 -791h-145l420 958h123z" />
    <glyph glyph-name="u043C" unicode="&#x43c;" horiz-adv-x="1423" 
d="M176 958h119l420 -493l413 493h119v-958h-139v756l-367 -459h-57l-369 448v-745h-139v958z" />
    <glyph glyph-name="u043D" unicode="&#x43d;" horiz-adv-x="1177" 
d="M315 455v-455h-139v958h139v-387h547v387h139v-958h-139v455h-547z" />
    <glyph glyph-name="u043E" unicode="&#x43e;" horiz-adv-x="1251" 
d="M1137 479q1 -217 -143 -360t-367 -143t-367 142q-144 144 -145 361q0 217 144 361q143 144 367 143q224 1 368 -143t143 -361zM262 479q0 -165 100 -275t264 -110t263 110q100 110 100 274q0 165 -100 277q-100 111 -263 111t-264 -111q-100 -112 -100 -276z" />
    <glyph glyph-name="u043F" unicode="&#x43f;" horiz-adv-x="1161" 
d="M315 842v-842h-139v958h809v-958h-139v842h-531z" />
    <glyph glyph-name="u0440" unicode="&#x440;" horiz-adv-x="1300" 
d="M324 162v-654h-140v1450h140v-165h6q57 90 155 140t205 50q220 0 358 -143q138 -142 138 -360t-137 -361t-359 -144q-106 -1 -204 49t-156 138h-6zM1038 479q0 166 -98 277q-98 110 -261 110t-267 -110t-104 -277q0 -165 104 -275t268 -110t261 110t97 275z" />
    <glyph glyph-name="u0441" unicode="&#x441;" horiz-adv-x="1024" 
d="M629 866q-164 0 -265 -110q-102 -110 -102 -276t100 -276t266 -110t259 125l104 -78q-135 -166 -364 -166q-229 1 -371 143t-141 361q0 219 141 361t371 143q101 0 199 -44t157 -122l-109 -78q-38 57 -104 92t-141 35z" />
    <glyph glyph-name="u0442" unicode="&#x442;" horiz-adv-x="882" 
d="M20 842v116h842v-116h-362v-842h-140v842h-340z" />
    <glyph glyph-name="u0443" unicode="&#x443;" horiz-adv-x="999" 
d="M188 958l326 -808h4l297 808h152l-478 -1206q-47 -121 -115 -182t-186 -62q-63 0 -125 13l15 127q145 -44 213 24q41 41 74 129l77 201l-409 956h155z" />
    <glyph glyph-name="u0444" unicode="&#x444;" horiz-adv-x="1366" 
d="M745 1548v-565q219 0 363 -144q144 -145 143 -361q0 -216 -142 -359t-364 -144v-477h-127v477q-215 1 -359 145t-144 360t141 358t362 145v565h127zM1104 479q0 164 -98 274t-261 113v-772q163 0 261 110t98 275zM262 479q0 -165 99 -275t257 -110v772q-162 -4 -259 -114
t-97 -273z" />
    <glyph glyph-name="u0445" unicode="&#x445;" horiz-adv-x="991" 
d="M33 0l377 496l-355 462h178l263 -364l262 364h168l-348 -456l380 -502h-180l-284 399l-293 -399h-168z" />
    <glyph glyph-name="u0446" unicode="&#x446;" horiz-adv-x="1169" 
d="M989 0h-813v958h139v-833h514v833h140v-833h159v-410h-139v285z" />
    <glyph glyph-name="u0447" unicode="&#x447;" horiz-adv-x="1056" 
d="M102 743v215h140v-139q0 -111 6 -163t34 -101t87 -65t163 -17h209v485h140v-958h-140v356h-211q-254 0 -341 91t-87 296z" />
    <glyph glyph-name="u0448" unicode="&#x448;" horiz-adv-x="1632" 
d="M1456 0h-1280v958h139v-841h430v841h140v-841h432v841h139v-958z" />
    <glyph glyph-name="u0449" unicode="&#x449;" horiz-adv-x="1656" 
d="M1477 0h-1301v958h139v-841h430v841h140v-841h432v841h139v-841h160v-402h-139v285z" />
    <glyph glyph-name="u044A" unicode="&#x44a;" horiz-adv-x="1130" 
d="M20 958h426v-331h197q203 0 294 -84q91 -85 91 -225t-97 -229t-280 -89h-344v842h-287v116zM446 516v-403h172q127 0 195 45t68 157q0 201 -269 201h-166z" />
    <glyph glyph-name="u044B" unicode="&#x44b;" horiz-adv-x="1337" 
d="M176 958h139v-331h197q203 0 294 -84q91 -85 91 -225t-97 -229t-280 -89h-344v958zM315 516v-403h172q127 0 195 45t68 157q0 201 -269 201h-166zM1022 958h139v-958h-139v958z" />
    <glyph glyph-name="u044C" unicode="&#x44c;" horiz-adv-x="1044" 
d="M176 958h139v-331h238q203 0 296 -84q93 -85 93 -225t-100 -229t-281 -89h-385v958zM315 516v-403h213q266 0 267 202q0 201 -273 201h-207z" />
    <glyph glyph-name="u044D" unicode="&#x44d;" horiz-adv-x="1107" 
d="M510 983q223 0 353 -141q130 -140 130 -360t-141 -363t-354 -144q-252 0 -412 203l104 82q45 -72 125 -119t183 -47q146 0 250 102t108 246h-543v111h541q-8 129 -103 221t-243 92q-215 0 -311 -168l-101 86q139 199 414 199z" />
    <glyph glyph-name="u044E" unicode="&#x44e;" horiz-adv-x="1652" 
d="M1538 479q0 -217 -143 -360t-365 -143t-363 134q-142 136 -151 345h-201v-455h-139v958h139v-387h209q29 182 167 297t349 115t355 -143q143 -144 143 -361zM664 479q0 -165 100 -275t263 -110t263 110t101 274q-1 165 -101 277q-100 111 -263 111t-263 -112t-100 -275z
" />
    <glyph glyph-name="u044F" unicode="&#x44f;" horiz-adv-x="1103" 
d="M788 412h-165q-307 0 -344 -412h-156q12 168 85 292t200 167v6q-240 25 -240 219q0 131 101 203t296 71h363v-958h-140v412zM315 687q0 -93 72 -124t199 -31h202v306h-204q-133 0 -201 -29t-68 -122z" />
    <glyph glyph-name="u0451" unicode="&#x451;" 
d="M602 866q-140 0 -236 -93t-104 -220h653q-6 139 -89 226t-224 87zM1057 508q0 -41 -2 -66h-795q4 -145 104 -246t246 -102q102 0 182 47t126 119l104 -82q-160 -203 -412 -203q-213 -1 -354 143t-141 360t139 360t350 145q211 0 332 -135t121 -340zM311 1325q0 43 29 74
t76 31t76 -31q28 -31 28 -74t-28 -74t-76 -31q-47 0 -76 32q-29 30 -29 73zM705 1325q0 43 28 74q29 31 76 31t76 -31t29 -74t-30 -74q-28 -31 -75 -31t-76 31q-28 31 -28 74z" />
    <glyph glyph-name="u0452" unicode="&#x452;" horiz-adv-x="1200" 
d="M647 -303q127 0 182 85t56 263v485q-1 164 -59 250t-190 86t-217 -97t-85 -277v-492h-139v1178h-215v104h215v266h139v-266h385v-104h-385v-377h4q37 84 127 133t194 49q177 0 271 -106t94 -289v-600q0 -184 -98 -301t-273 -117q-108 0 -184 49l74 109q41 -31 104 -31z
" />
    <glyph glyph-name="u0453" unicode="&#x453;" horiz-adv-x="794" 
d="M315 842v-842h-139v958h594v-116h-455zM766 1389l-270 -295h-121l205 295h186z" />
    <glyph glyph-name="u0454" unicode="&#x454;" horiz-adv-x="1155" 
d="M616 866q-147 0 -242 -92t-104 -221h541v-111h-543q4 -143 108 -245t251 -103q203 0 307 166l104 -82q-160 -203 -426 -203q-203 1 -342 145t-139 362t130 360t353 141q275 0 414 -199l-100 -86q-96 168 -312 168z" />
    <glyph glyph-name="u0455" unicode="&#x455;" horiz-adv-x="909" 
d="M456 866q-80 0 -140 -38t-60 -108t53 -106t201 -66q308 -62 307 -276q0 -152 -105 -224t-255 -73q-252 0 -379 187l110 82q39 -66 111 -108t164 -42t154 40q63 40 63 120t-67 119t-168 62t-140 37t-86 44q-98 60 -97 193t100 203t222 71q122 0 216 -46t141 -126l-107 -80
q-31 61 -94 98t-144 37z" />
    <glyph glyph-name="u0456" unicode="&#x456;" horiz-adv-x="512" 
d="M326 958v-958h-140v958h140zM354 1327q0 -41 -30 -70t-68 -29q-39 0 -69 30q-30 28 -29 69q0 41 29 70q30 29 69 29t69 -29q29 -29 29 -70z" />
    <glyph glyph-name="u0457" unicode="&#x457;" horiz-adv-x="512" 
d="M326 958v-958h-140v958h140zM-43 1325q0 43 29 74q30 31 76 31t75 -31t29 -74t-29 -74t-76 -31t-75 32q-28 30 -29 73zM350 1325q0 43 29 74t76 31t75 -31t29 -74q0 -43 -29 -74q-30 -31 -76 -31t-75 32q-29 30 -29 73z" />
    <glyph glyph-name="u0458" unicode="&#x458;" horiz-adv-x="514" 
d="M188 958h140v-1148q0 -301 -273 -302q-61 1 -110 15l20 117q41 -12 105 -12t91 50q28 51 27 154v1126zM356 1327q0 -41 -30 -70t-68 -29q-39 0 -69 30q-30 28 -29 69q0 41 29 70q30 29 69 29t69 -29q29 -29 29 -70z" />
    <glyph glyph-name="u0459" unicode="&#x459;" horiz-adv-x="1447" 
d="M1006 0h-211l-297 791l-312 -791h-145l399 958h123l129 -331h305q203 0 296 -84q93 -85 93 -225t-100 -229t-280 -89zM967 516h-232l156 -403h82q127 0 195 45q68 46 67 158q1 112 -65 156t-203 44z" />
    <glyph glyph-name="u045A" unicode="&#x45a;" horiz-adv-x="1689" 
d="M176 958h139v-387h547v387h139v-387h197q203 1 296 -79t93 -206t-100 -206t-281 -80h-344v455h-547v-455h-139v958zM1001 461v-348h173q130 0 198 37t68 133q0 178 -273 178h-166z" />
    <glyph glyph-name="u045B" unicode="&#x45b;" horiz-adv-x="1200" 
d="M334 801h4q37 84 127 133t194 49q177 0 271 -106t94 -289v-588h-139v530q-1 164 -59 250t-190 86t-217 -97t-85 -277v-492h-139v1178h-215v104h215v266h139v-266h385v-104h-385v-377z" />
    <glyph glyph-name="u045C" unicode="&#x45c;" horiz-adv-x="1112" 
d="M315 958v-393q82 0 154 -12l344 405h156l-373 -434q166 -53 261 -178t153 -346h-156q-55 248 -179 345t-360 101v-446h-139v958h139zM840 1389l-271 -295h-120l204 295h187z" />
    <glyph glyph-name="u045E" unicode="&#x45e;" horiz-adv-x="999" 
d="M500 1280q86 0 146 43t85 113l94 -45q-35 -92 -117 -152q-83 -59 -208 -59t-211 60t-115 151l94 45q25 -70 85 -113q61 -43 147 -43zM514 150h4l297 808h152l-478 -1206q-47 -121 -115 -182t-186 -62q-63 0 -125 13l15 127q145 -44 213 24q41 41 74 129l77 201l-409 956
h155z" />
    <glyph glyph-name="u045F" unicode="&#x45f;" horiz-adv-x="1144" 
d="M969 0h-314v-285h-135v285h-344v958h139v-837h514v837h140v-958z" />
    <glyph glyph-name="u0490" unicode="&#x490;" horiz-adv-x="1081" 
d="M340 1319v-1319h-147v1450h692v326h135v-457h-680z" />
    <glyph glyph-name="u0491" unicode="&#x491;" horiz-adv-x="831" 
d="M315 842v-842h-139v958h479v340h136v-456h-476z" />
    <glyph glyph-name="palochkacyrillic" unicode="&#x4c0;" horiz-adv-x="532" 
d="M340 1450v-1450h-147v1450h147z" />
    <glyph glyph-name="Aiecyrillic" unicode="&#x4d4;" horiz-adv-x="2027" 
d="M1210 690v-559h707v-131h-854v406h-610l-263 -406h-167l944 1450h925v-131h-682v-500h633v-129h-633zM1063 535v784h-29l-506 -784h535z" />
    <glyph glyph-name="aiecyrillic" unicode="&#x4d5;" horiz-adv-x="1781" 
d="M1667 508q0 -47 -2 -66h-758q3 -147 99 -248t235 -102q98 0 175 47t118 119l100 -80q-152 -203 -393 -203q-133 -1 -233 59t-148 165q-96 -223 -399 -224q-141 0 -244 70q-102 70 -102 211q0 78 39 135t97 88q138 74 527 74v31q0 129 -62 206t-184 76q-172 0 -294 -112
l-80 90q64 61 170 100t223 39t200 -52t117 -149q56 94 152 148t211 53q207 0 321 -135t115 -340zM1526 553q0 139 -79 226t-210 87t-225 -94t-99 -219h613zM778 442h-41q-289 0 -384 -45t-95 -139q0 -170 227 -170q143 0 218 76t75 209v69z" />
    <glyph glyph-name="Aringbelow" unicode="&#x1e00;" horiz-adv-x="1433" 
d="M340 381l-158 -381h-162l627 1450h144l622 -1450h-164l-159 381h-750zM715 1286l-320 -770h639zM913 -349q0 -81 -58 -137t-138 -56t-138 56q-59 56 -59 137t58 138t139 57q80 0 138 -57t58 -138zM840 -348q0 51 -36 86t-87 35t-87 -35t-36 -86t36 -86t87 -35t87 35
t36 86z" />
    <glyph glyph-name="aringbelow" unicode="&#x1e01;" horiz-adv-x="1093" 
d="M788 588v30q0 248 -256 248q-172 0 -284 -112l-78 92q137 137 377 137q164 0 268 -89t105 -259v-420q0 -127 16 -215h-125q-14 82 -14 156h-4q-66 -96 -148 -138t-206 -43q-124 0 -225 73t-101 218t99 216t242 88q142 18 334 18zM788 479h-40q-492 0 -492 -207
q0 -94 66 -138t159 -44q141 0 225 92q83 92 82 226v71zM721 -374q0 -81 -58 -137q-59 -56 -139 -56t-138 56t-58 137t58 138q58 58 138 58t138 -58t59 -138zM647 -373q0 51 -36 86t-87 35t-87 -35t-36 -86t36 -86t87 -35t87 35t36 86z" />
    <glyph glyph-name="uni1E02" unicode="&#x1e02;" horiz-adv-x="1302" 
d="M193 0v1450h432q185 0 315 -77q152 -87 152 -299q0 -110 -70 -194t-186 -112v-4q145 -18 236 -112t91 -264q0 -168 -145 -278t-395 -110h-430zM340 1323v-508h297q125 -1 216 61t91 193t-96 193t-252 61h-256zM340 694v-567h274q174 0 287 70t113 212t-96 214t-277 71
h-301zM713 1737q0 -41 -30 -70t-69 -29q-38 0 -68 29t-30 70t30 69t68 29q38 -1 69 -29q30 -28 30 -69z" />
    <glyph glyph-name="uni1E03" unicode="&#x1e03;" horiz-adv-x="1304" 
d="M328 162v-162h-140v1548h140v-755h4q59 92 156 141t206 49q220 0 358 -143q138 -142 138 -360t-137 -361t-359 -144q-109 1 -206 49t-156 138h-4zM1042 479q0 166 -98 277q-98 110 -261 110t-267 -110t-104 -277q0 -165 104 -275t268 -110t261 110t97 275zM356 1737
q0 -41 -30 -70t-68 -29q-39 0 -69 29t-29 70q0 41 30 69t68 29q38 -1 68 -29t30 -69z" />
    <glyph glyph-name="Bdotbelow" unicode="&#x1e04;" horiz-adv-x="1302" 
d="M193 0v1450h432q185 0 315 -77q152 -87 152 -299q0 -110 -70 -194t-186 -112v-4q145 -18 236 -112t91 -264q0 -168 -145 -278t-395 -110h-430zM340 1323v-508h297q125 -1 216 61t91 193t-96 193t-252 61h-256zM340 694v-567h274q174 0 287 70t113 212t-96 214t-277 71
h-301zM694 -252q0 -41 -30 -70q-30 -28 -68 -28q-39 0 -69 28t-29 70q0 41 29 70q30 28 69 28t69 -28q29 -29 29 -70z" />
    <glyph glyph-name="bdotbelow" unicode="&#x1e05;" horiz-adv-x="1304" 
d="M328 162v-162h-140v1548h140v-755h4q59 92 156 141t206 49q220 0 358 -143q138 -142 138 -360t-137 -361t-359 -144q-109 1 -206 49t-156 138h-4zM1042 479q0 166 -98 277q-98 110 -261 110t-267 -110t-104 -277q0 -165 104 -275t268 -110t261 110t97 275zM786 -276
q0 -41 -30 -70t-68 -29t-68 29t-30 70q0 42 30 70t68 28t68 -28t30 -70z" />
    <glyph glyph-name="Blinebelow" unicode="&#x1e06;" horiz-adv-x="1302" 
d="M193 0v1450h432q185 0 315 -77q152 -87 152 -299q0 -110 -70 -194t-186 -112v-4q145 -18 236 -112t91 -264q0 -168 -145 -278t-395 -110h-430zM340 1323v-508h297q125 -1 216 61t91 193t-96 193t-252 61h-256zM340 694v-567h274q174 0 287 70t113 212t-96 214t-277 71
h-301zM852 -154v-110h-553v110h553z" />
    <glyph glyph-name="blinebelow" unicode="&#x1e07;" horiz-adv-x="1304" 
d="M328 162v-162h-140v1548h140v-755h4q59 92 156 141t206 49q220 0 358 -143q138 -142 138 -360t-137 -361t-359 -144q-109 1 -206 49t-156 138h-4zM1042 479q0 166 -98 277q-98 110 -261 110t-267 -110t-104 -277q0 -165 104 -275t268 -110t261 110t97 275zM965 -178v-111
h-553v111h553z" />
    <glyph glyph-name="Ccedillaacute" unicode="&#x1e08;" horiz-adv-x="1474" 
d="M1038 -305q0 -82 -72 -124t-172 -42q-101 0 -190 41l33 74q59 -29 125 -29t109 23q44 23 44 67q0 80 -110 80q-43 0 -88 -16l-37 30l106 168q-297 29 -484 240t-187 529t215 535q215 216 540 216q162 -1 304 -63t212 -167l-122 -90q-50 79 -156 135t-236 56
q-272 0 -437 -184t-165 -448t166 -448q166 -186 442 -186t420 215l115 -74q-80 -121 -218 -195t-325 -75l-71 -117q25 8 82 8t107 -38q50 -39 50 -121zM1124 1935l-270 -295h-121l205 295h186z" />
    <glyph glyph-name="ccedillaacute" unicode="&#x1e09;" horiz-adv-x="1024" 
d="M629 866q-164 0 -265 -110q-102 -110 -102 -276t100 -276t266 -110t259 125l104 -78q-127 -158 -352 -166l-80 -129q25 8 83 8t107 -38q50 -39 50 -121t-72 -124t-173 -42t-189 41l32 74q59 -29 125 -29t110 23t44 67q0 80 -111 80q-43 0 -88 -16l-37 30l113 181
q-201 24 -320 160t-119 347t142 353q141 142 371 143q101 0 199 -44t157 -122l-109 -78q-38 57 -104 92t-141 35zM872 1432l-270 -295h-121l205 295h186z" />
    <glyph glyph-name="uni1E0A" unicode="&#x1e0a;" horiz-adv-x="1550" 
d="M193 0v1450h481q288 0 516 -179q110 -87 178 -229t68 -317q0 -174 -68 -316q-125 -260 -422 -363q-133 -46 -272 -46h-481zM340 1319v-1188h293q157 0 283 50q232 92 323 325q41 104 41 219q0 233 -160 409q-78 85 -204 135t-283 50h-293zM809 1737q0 -41 -30 -70
q-31 -29 -69 -29t-68 29t-30 70t30 69t69 29q39 -1 69 -29t29 -69z" />
    <glyph glyph-name="uni1E0B" unicode="&#x1e0b;" horiz-adv-x="1304" 
d="M977 162h-4q-59 -90 -157 -138t-206 -49q-221 -1 -358 143t-137 361t137 361t358 143q109 0 206 -49t157 -141h4v755h139v-1548h-139v162zM262 479q0 -165 97 -275t261 -110t269 110q104 110 104 276t-104 276t-267 110t-262 -110q-98 -111 -98 -277zM1147 1737
q0 -41 -30 -70q-31 -29 -69 -29t-68 29t-30 70t30 69t69 29q39 -1 69 -29t29 -69z" />
    <glyph glyph-name="Ddotbelow" unicode="&#x1e0c;" horiz-adv-x="1550" 
d="M193 0v1450h481q288 0 516 -179q110 -87 178 -229t68 -317q0 -174 -68 -316q-125 -260 -422 -363q-133 -46 -272 -46h-481zM340 1319v-1188h293q157 0 283 50q232 92 323 325q41 104 41 219q0 233 -160 409q-78 85 -204 135t-283 50h-293zM686 -252q0 -41 -30 -70
q-30 -28 -68 -28t-69 28q-30 28 -30 70q0 41 30 70q30 28 69 28q38 0 68 -28t30 -70z" />
    <glyph glyph-name="ddotbelow" unicode="&#x1e0d;" horiz-adv-x="1304" 
d="M977 162h-4q-59 -90 -157 -138t-206 -49q-221 -1 -358 143t-137 361t137 361t358 143q109 0 206 -49t157 -141h4v755h139v-1548h-139v162zM262 479q0 -165 97 -275t261 -110t269 110q104 110 104 276t-104 276t-267 110t-262 -110q-98 -111 -98 -277zM754 -276
q0 -41 -30 -70t-69 -29t-69 29t-29 70q0 42 30 70q31 28 69 28t68 -28t30 -70z" />
    <glyph glyph-name="Dlinebelow" unicode="&#x1e0e;" horiz-adv-x="1550" 
d="M193 0v1450h481q288 0 516 -179q110 -87 178 -229t68 -317q0 -174 -68 -316q-125 -260 -422 -363q-133 -46 -272 -46h-481zM340 1319v-1188h293q157 0 283 50q232 92 323 325q41 104 41 219q0 233 -160 409q-78 85 -204 135t-283 50h-293zM782 -154v-110h-553v110h553z
" />
    <glyph glyph-name="dlinebelow" unicode="&#x1e0f;" horiz-adv-x="1304" 
d="M977 162h-4q-59 -90 -157 -138t-206 -49q-221 -1 -358 143t-137 361t137 361t358 143q109 0 206 -49t157 -141h4v755h139v-1548h-139v162zM262 479q0 -165 97 -275t261 -110t269 110q104 110 104 276t-104 276t-267 110t-262 -110q-98 -111 -98 -277zM870 -178v-111h-553
v111h553z" />
    <glyph glyph-name="Dcommaaccent" unicode="&#x1e10;" horiz-adv-x="1550" 
d="M193 0v1450h481q288 0 516 -179q110 -87 178 -229t68 -317q0 -174 -68 -316q-125 -260 -422 -363q-133 -46 -272 -46h-481zM340 1319v-1188h293q157 0 283 50q232 92 323 325q41 104 41 219q0 233 -160 409q-78 85 -204 135t-283 50h-293zM668 -154l-166 -481h-117
l137 481h146z" />
    <glyph glyph-name="dcommaaccent" unicode="&#x1e11;" horiz-adv-x="1304" 
d="M977 162h-4q-59 -90 -157 -138t-206 -49q-221 -1 -358 143t-137 361t137 361t358 143q109 0 206 -49t157 -141h4v755h139v-1548h-139v162zM262 479q0 -165 97 -275t261 -110t269 110q104 110 104 276t-104 276t-267 110t-262 -110q-98 -111 -98 -277zM797 -178l-166 -481
h-117l137 481h146z" />
    <glyph glyph-name="Dcircumflexbelow" unicode="&#x1e12;" horiz-adv-x="1550" 
d="M193 0v1450h481q288 0 516 -179q110 -87 178 -229t68 -317q0 -174 -68 -316q-125 -260 -422 -363q-133 -46 -272 -46h-481zM340 1319v-1188h293q157 0 283 50q232 92 323 325q41 104 41 219q0 233 -160 409q-78 85 -204 135t-283 50h-293zM690 -154l223 -295h-135
l-170 222l-170 -222h-135l223 295h164z" />
    <glyph glyph-name="dcircumflexbelow" unicode="&#x1e13;" horiz-adv-x="1304" 
d="M977 162h-4q-59 -90 -157 -138t-206 -49q-221 -1 -358 143t-137 361t137 361t358 143q109 0 206 -49t157 -141h4v755h139v-1548h-139v162zM262 479q0 -165 97 -275t261 -110t269 110q104 110 104 276t-104 276t-267 110t-262 -110q-98 -111 -98 -277zM758 -178l223 -295
h-135l-170 221l-170 -221h-135l223 295h164z" />
    <glyph glyph-name="Emacrongrave" unicode="&#x1e14;" horiz-adv-x="1212" 
d="M340 690v-559h776v-131h-923v1450h899v-131h-752v-500h702v-129h-702zM930 1714v-110h-553v110h553zM649 1868l-270 295h186l205 -295h-121z" />
    <glyph glyph-name="emacrongrave" unicode="&#x1e15;" 
d="M602 866q-140 0 -236 -93t-104 -220h653q-6 139 -89 226t-224 87zM1057 508q0 -41 -2 -66h-795q4 -145 104 -246t246 -102q102 0 182 47t126 119l104 -82q-160 -203 -412 -203q-213 -1 -354 143t-141 360t139 360t350 145q211 0 332 -135t121 -340zM862 1247v-110h-553
v110h553zM580 1401l-271 295h187l204 -295h-120z" />
    <glyph glyph-name="Emacronacute" unicode="&#x1e16;" horiz-adv-x="1212" 
d="M340 690v-559h776v-131h-923v1450h899v-131h-752v-500h702v-129h-702zM930 1714v-110h-553v110h553zM920 2163l-271 -295h-121l205 295h187z" />
    <glyph glyph-name="emacronacute" unicode="&#x1e17;" 
d="M602 866q-140 0 -236 -93t-104 -220h653q-6 139 -89 226t-224 87zM1057 508q0 -41 -2 -66h-795q4 -145 104 -246t246 -102q102 0 182 47t126 119l104 -82q-160 -203 -412 -203q-213 -1 -354 143t-141 360t139 360t350 145q211 0 332 -135t121 -340zM862 1247v-110h-553
v110h553zM858 1696l-270 -295h-121l205 295h186z" />
    <glyph glyph-name="Ecircumflexbelow" unicode="&#x1e18;" horiz-adv-x="1212" 
d="M340 690v-559h776v-131h-923v1450h899v-131h-752v-500h702v-129h-702zM735 -154l223 -295h-135l-170 222l-170 -222h-135l223 295h164z" />
    <glyph glyph-name="ecircumflexbelow" unicode="&#x1e19;" 
d="M602 866q-140 0 -236 -93t-104 -220h653q-6 139 -89 226t-224 87zM1057 508q0 -41 -2 -66h-795q4 -145 104 -246t246 -102q102 0 182 47t126 119l104 -82q-160 -203 -412 -203q-213 -1 -354 143t-141 360t139 360t350 145q211 0 332 -135t121 -340zM668 -178l223 -295
h-135l-170 221l-170 -221h-135l223 295h164z" />
    <glyph glyph-name="Etildebelow" unicode="&#x1e1a;" horiz-adv-x="1212" 
d="M340 690v-559h776v-131h-923v1450h899v-131h-752v-500h702v-129h-702zM510 -162q55 0 153 -47t134 -47q72 0 100 102h88q-33 -213 -188 -213q-59 -1 -149 47t-138 48q-71 -1 -100 -103h-88q33 213 188 213z" />
    <glyph glyph-name="etildebelow" unicode="&#x1e1b;" 
d="M602 866q-140 0 -236 -93t-104 -220h653q-6 139 -89 226t-224 87zM1057 508q0 -41 -2 -66h-795q4 -145 104 -246t246 -102q102 0 182 47t126 119l104 -82q-160 -203 -412 -203q-213 -1 -354 143t-141 360t139 360t350 145q211 0 332 -135t121 -340zM442 -186
q56 0 154 -47t133 -48q72 0 100 103h89q-33 -213 -189 -213q-59 0 -149 47t-138 47q-71 0 -100 -102h-88q33 213 188 213z" />
    <glyph glyph-name="Ecedillabreve" unicode="&#x1e1c;" horiz-adv-x="1212" 
d="M340 690v-559h776v-131h-389l-96 -154q25 8 82 8t107 -38q50 -39 50 -121t-72 -124t-172 -42q-101 0 -190 41l33 74q59 -29 125 -29t109 23q44 23 45 67q0 80 -111 80q-43 0 -88 -16l-37 30l127 201h-446v1450h899v-131h-752v-500h702v-129h-702zM653 1714q82 0 140 41
q57 41 71 119h90q-8 -127 -90 -199q-82 -71 -211 -71t-211 72t-90 198h90q14 -78 72 -119t139 -41z" />
    <glyph glyph-name="ecedillabreve" unicode="&#x1e1d;" 
d="M1057 508q0 -41 -2 -66h-795q4 -145 104 -246t246 -102q102 0 182 47t126 119l104 -82q-141 -178 -365 -201l-94 -155q25 8 83 8t107 -39q50 -39 50 -121t-72 -124t-173 -42t-189 41l32 74q59 -29 125 -29t110 23t44 68q0 80 -111 79q-43 0 -88 -16l-37 31l123 202
q-199 17 -325 157t-127 350q0 210 139 354t350 145q211 0 332 -135t121 -340zM602 866q-140 0 -236 -93t-104 -220h653q-6 139 -89 226t-224 87zM586 1247q82 0 140 41t71 119h90q-8 -127 -90 -199t-211 -72t-211 72t-90 199h90q14 -78 71 -119q58 -41 140 -41z" />
    <glyph glyph-name="uni1E1E" unicode="&#x1e1e;" horiz-adv-x="1150" 
d="M340 686v-686h-147v1450h874v-131h-727v-504h676v-129h-676zM727 1737q0 -41 -30 -70q-31 -29 -69 -29t-68 29t-30 70t30 69t69 29q39 -1 69 -29t29 -69z" />
    <glyph glyph-name="uni1E1F" unicode="&#x1e1f;" horiz-adv-x="604" 
d="M590 958v-116h-225v-842h-140v842h-200v116h200v263q0 168 82 260t244 92q66 0 115 -14l-25 -123q-53 14 -96 14q-105 0 -143 -64t-37 -182v-246h225zM483 1802q1 -42 -29 -70t-69 -28t-69 29t-30 69t30 70q30 29 69 29t69 -29t29 -70z" />
    <glyph glyph-name="Gmacron" unicode="&#x1e20;" horiz-adv-x="1595" 
d="M868 1358q-266 0 -432 -186t-166 -447q0 -262 166 -446q166 -185 425 -185t403 94v441h-338v129h485v-654q-231 -141 -550 -141t-533 216t-213 546q0 330 215 546q214 216 542 216t523 -195l-103 -102q-158 168 -424 168zM1141 1751v-111h-553v111h553z" />
    <glyph glyph-name="gmacron" unicode="&#x1e21;" horiz-adv-x="1294" 
d="M977 8v180h-4q-53 -88 -153 -138t-210 -50q-221 0 -358 137t-137 348t138 355t357 143q109 0 208 -50t155 -140h4v165h139v-950q0 -148 -62 -265q-36 -69 -91 -119t-151 -83t-216 -33q-279 0 -461 193l101 106q59 -75 159 -125t207 -51q193 1 284 105t91 272zM262 492
q0 -158 98 -266t262 -108t268 104q103 104 103 264t-105 270t-267 110q-163 0 -261 -108t-98 -266zM870 1247v-110h-553v110h553z" />
    <glyph glyph-name="uni1E22" unicode="&#x1e22;" horiz-adv-x="1470" 
d="M193 0v1450h147v-629h790v629h148v-1450h-148v686h-790v-686h-147zM831 1737q1 -41 -29 -70t-69 -29t-69 29t-29 70q0 41 30 69q31 28 69 29q38 -1 68 -29t29 -69z" />
    <glyph glyph-name="uni1E23" unicode="&#x1e23;" horiz-adv-x="1193" 
d="M328 801h4q37 84 127 133t194 49q177 0 271 -106t94 -289v-588h-139v530q-1 164 -59 250t-190 86t-218 -97q-84 -97 -84 -277v-492h-140v1548h140v-747zM360 1737q0 -41 -30 -70t-68 -29t-68 29t-30 70t30 69t68 29q38 -1 68 -29t30 -69z" />
    <glyph glyph-name="Hdotbelow" unicode="&#x1e24;" horiz-adv-x="1470" 
d="M193 0v1450h147v-629h790v629h148v-1450h-148v686h-790v-686h-147zM834 -252q0 -41 -30 -70q-30 -28 -69 -28t-69 28t-29 70q0 41 30 70q31 28 69 28t68 -28t30 -70z" />
    <glyph glyph-name="hdotbelow" unicode="&#x1e25;" horiz-adv-x="1193" 
d="M328 801h4q37 84 127 133t194 49q177 0 271 -106t94 -289v-588h-139v530q-1 164 -59 250t-190 86t-218 -97q-84 -97 -84 -277v-492h-140v1548h140v-747zM700 -252q0 -41 -30 -70q-30 -28 -68 -28t-68 28t-30 70q0 41 30 70q30 28 68 28t69 -28q29 -29 29 -70z" />
    <glyph glyph-name="Hdieresis" unicode="&#x1e26;" horiz-adv-x="1470" 
d="M193 0v1450h147v-629h790v629h148v-1450h-148v686h-790v-686h-147zM434 1708q0 43 29 74q29 30 76 30t75 -30t29 -74q0 -43 -29 -74q-30 -30 -76 -30t-75 30t-29 74zM827 1708q0 43 29 74q29 30 76 30t76 -30q28 -30 28 -74q0 -43 -28 -74q-28 -30 -76 -30q-47 0 -76 30
t-29 74z" />
    <glyph glyph-name="hdieresis" unicode="&#x1e27;" horiz-adv-x="1193" 
d="M328 801h4q37 84 127 133t194 49q177 0 271 -106t94 -289v-588h-139v530q-1 164 -59 250t-190 86t-218 -97q-84 -97 -84 -277v-492h-140v1548h140v-747zM-49 1806q0 43 29 74q30 31 76 31t75 -31t29 -74q0 -44 -29 -74t-76 -30t-75 30t-29 74zM344 1806q0 43 29 74t76 31
t75 -31t29 -74q0 -44 -29 -74q-30 -30 -76 -30t-75 30t-29 74z" />
    <glyph glyph-name="Hcedilla" unicode="&#x1e28;" horiz-adv-x="1470" 
d="M193 0v1450h147v-629h790v629h148v-1450h-148v686h-790v-686l-96 -154q25 8 82 8t107 -38q50 -39 50 -121q1 -82 -71 -124t-173 -42t-190 41l33 74q58 -29 124 -29t110 23t44 67q0 80 -110 80q-43 0 -88 -16l-37 30l127 201h-59z" />
    <glyph glyph-name="hcedilla" unicode="&#x1e29;" horiz-adv-x="1193" 
d="M328 801h4q37 84 127 133t194 49q177 0 271 -106t94 -289v-588h-139v530q-1 164 -59 250t-190 86t-218 -97q-84 -97 -84 -277v-492l-97 -154q25 8 83 8t107 -38q50 -39 50 -121t-72 -124t-173 -42t-189 41l33 74q58 -29 124 -29t110 23t44 67q0 80 -110 80q-43 0 -88 -16
l-37 30l127 201h-52v1548h140v-747z" />
    <glyph glyph-name="Hbrevebelow" unicode="&#x1e2a;" horiz-adv-x="1470" 
d="M193 0v1450h147v-629h790v629h148v-1450h-148v686h-790v-686h-147zM735 -424q-129 0 -211 72t-90 198h90q14 -78 72 -118t139 -41q81 1 139 41t72 118h90q-8 -126 -90 -198t-211 -72z" />
    <glyph glyph-name="hbrevebelow" unicode="&#x1e2b;" horiz-adv-x="1193" 
d="M328 801h4q37 84 127 133t194 49q177 0 271 -106t94 -289v-588h-139v530q-1 164 -59 250t-190 86t-218 -97q-84 -97 -84 -277v-492h-140v1548h140v-747zM602 -424q-129 0 -211 72t-90 198h90q13 -78 71 -118t140 -41q82 1 140 41t71 118h90q-8 -126 -90 -198t-211 -72z
" />
    <glyph glyph-name="Itildebelow" unicode="&#x1e2c;" horiz-adv-x="532" 
d="M340 1450v-1450h-147v1450h147zM123 -162q55 0 153 -47t134 -47q72 0 100 102h88q-33 -213 -188 -213q-60 -1 -150 47t-137 48q-71 -1 -100 -103h-89q33 213 189 213z" />
    <glyph glyph-name="itildebelow" unicode="&#x1e2d;" horiz-adv-x="512" 
d="M326 958v-958h-140v958h140zM354 1327q0 -41 -30 -70t-68 -29q-39 0 -69 30q-30 28 -29 69q0 41 29 70q30 29 69 29t69 -29q29 -29 29 -70zM113 -162q55 0 153 -47t133 -47q72 0 101 102h88q-33 -213 -189 -213q-59 -1 -149 47t-137 48q-72 -1 -101 -103h-88
q33 213 189 213z" />
    <glyph glyph-name="Idieresisacute" unicode="&#x1e2e;" horiz-adv-x="532" 
d="M340 1450v-1450h-147v1450h147zM-35 1708q0 43 29 74q29 30 76 30q48 0 76 -30t28 -74q0 -43 -29 -74q-29 -30 -75 -30t-76 30q-29 30 -29 74zM358 1708q0 43 29 74q29 30 76 30t76 -30t29 -74q0 -43 -30 -74q-28 -30 -75 -30t-76 30t-29 74zM592 2261l-270 -295h-121
l205 295h186z" />
    <glyph glyph-name="idieresisacute" unicode="&#x1e2f;" horiz-adv-x="512" 
d="M326 958v-958h-140v958h140zM-45 1217q0 43 29 73q30 30 76 31q46 0 75 -31q29 -32 29 -74t-29 -73t-76 -31t-75 31t-29 74zM348 1217q0 43 29 73t76 31q47 0 75 -31q28 -32 29 -74q0 -42 -29 -73q-30 -31 -76 -31t-75 31t-29 74zM575 1769l-270 -294h-121l205 294h186z
" />
    <glyph glyph-name="Kacute" unicode="&#x1e30;" horiz-adv-x="1286" 
d="M340 1450v-651h2l690 651h211l-731 -657l772 -793h-217l-725 772h-2v-772h-147v1450h147zM934 1898l-270 -294h-121l205 294h186z" />
    <glyph glyph-name="kacute" unicode="&#x1e31;" horiz-adv-x="1044" 
d="M328 1548v-1022h6l442 432h201l-483 -438l532 -520h-205l-487 504h-6v-504h-140v1548h140zM803 1997l-271 -295h-120l204 295h187z" />
    <glyph glyph-name="Kdotbelow" unicode="&#x1e32;" horiz-adv-x="1286" 
d="M340 1450v-651h2l690 651h211l-731 -657l772 -793h-217l-725 772h-2v-772h-147v1450h147zM774 -252q0 -41 -30 -70q-30 -28 -68 -28t-69 28q-30 28 -29 70q0 41 29 70q30 28 69 28q38 0 68 -28t30 -70z" />
    <glyph glyph-name="kdotbelow" unicode="&#x1e33;" horiz-adv-x="1044" 
d="M328 1548v-1022h6l442 432h201l-483 -438l532 -520h-205l-487 504h-6v-504h-140v1548h140zM664 -252q0 -41 -30 -70q-30 -28 -69 -28t-69 28t-29 70q0 41 30 70q31 28 69 28t68 -28t30 -70z" />
    <glyph glyph-name="Klinebelow" unicode="&#x1e34;" horiz-adv-x="1286" 
d="M340 1450v-651h2l690 651h211l-731 -657l772 -793h-217l-725 772h-2v-772h-147v1450h147zM952 -154v-110h-553v110h553z" />
    <glyph glyph-name="klinebelow" unicode="&#x1e35;" horiz-adv-x="1044" 
d="M328 1548v-1022h6l442 432h201l-483 -438l532 -520h-205l-487 504h-6v-504h-140v1548h140zM883 -154v-110h-553v110h553z" />
    <glyph glyph-name="Ldotbelow" unicode="&#x1e36;" horiz-adv-x="1044" 
d="M340 1450v-1319h676v-131h-823v1450h147zM702 -252q0 -41 -30 -70q-30 -28 -68 -28t-68 28t-30 70q0 41 30 70q30 28 68 28t69 -28q29 -29 29 -70z" />
    <glyph glyph-name="ldotbelow" unicode="&#x1e37;" horiz-adv-x="516" 
d="M328 1548v-1548h-140v1548h140zM356 -252q0 -41 -30 -70q-30 -28 -68 -28q-39 0 -69 28t-29 70q0 41 29 70q30 28 69 28t69 -28q29 -29 29 -70z" />
    <glyph glyph-name="Ldotbelowmacron" unicode="&#x1e38;" horiz-adv-x="1044" 
d="M340 1450v-1319h676v-131h-823v1450h147zM702 -252q0 -41 -30 -70q-30 -28 -68 -28t-68 28t-30 70q0 41 30 70q30 28 68 28t69 -28q29 -29 29 -70zM543 1714v-110h-553v110h553z" />
    <glyph glyph-name="ldotbelowmacron" unicode="&#x1e39;" horiz-adv-x="516" 
d="M328 1548v-1548h-140v1548h140zM356 -252q0 -41 -30 -70q-30 -28 -68 -28q-39 0 -69 28t-29 70q0 41 29 70q30 28 69 28t69 -28q29 -29 29 -70zM535 1812v-110h-553v110h553z" />
    <glyph glyph-name="Llinebelow" unicode="&#x1e3a;" horiz-adv-x="1044" 
d="M340 1450v-1319h676v-131h-823v1450h147zM881 -154v-110h-553v110h553z" />
    <glyph glyph-name="llinebelow" unicode="&#x1e3b;" horiz-adv-x="516" 
d="M328 1548v-1548h-140v1548h140zM535 -154v-110h-553v110h553z" />
    <glyph glyph-name="Lcircumflexbelow" unicode="&#x1e3c;" horiz-adv-x="1044" 
d="M340 1450v-1319h676v-131h-823v1450h147zM686 -154l223 -295h-135l-170 222l-170 -222h-135l223 295h164z" />
    <glyph glyph-name="lcircumflexbelow" unicode="&#x1e3d;" horiz-adv-x="516" 
d="M328 1548v-1548h-140v1548h140zM340 -154l223 -295h-135l-170 222l-170 -222h-135l223 295h164z" />
    <glyph glyph-name="Macute" unicode="&#x1e3e;" horiz-adv-x="1814" 
d="M1622 1450v-1450h-147v1260h-5l-524 -1260h-78l-524 1260h-4v-1260h-147v1450h225l491 -1200h2l486 1200h225zM1186 1898l-271 -294h-120l204 294h187z" />
    <glyph glyph-name="macute" unicode="&#x1e3f;" horiz-adv-x="1808" 
d="M317 795h5q41 86 127 137t188 51q213 0 295 -203q100 203 336 203q178 0 271 -106t93 -289v-588h-139v530q0 336 -248 336q-141 0 -207 -102t-65 -254v-510h-139v559q0 154 -50 231q-50 76 -172 76q-120 0 -204 -97t-84 -277v-492h-140v748q0 123 -8 210h133
q8 -67 8 -163zM1161 1432l-270 -295h-121l205 295h186z" />
    <glyph glyph-name="Mdotaccent" unicode="&#x1e40;" horiz-adv-x="1814" 
d="M1622 1450v-1450h-147v1260h-5l-524 -1260h-78l-524 1260h-4v-1260h-147v1450h225l491 -1200h2l486 1200h225zM1006 1702q0 -41 -30 -70q-30 -28 -69 -28t-69 28t-29 70q0 41 30 70q31 28 69 28t68 -28t30 -70z" />
    <glyph glyph-name="mdotaccent" unicode="&#x1e41;" horiz-adv-x="1808" 
d="M317 795h5q41 86 127 137t188 51q213 0 295 -203q100 203 336 203q178 0 271 -106t93 -289v-588h-139v530q0 336 -248 336q-141 0 -207 -102t-65 -254v-510h-139v559q0 154 -50 231q-50 76 -172 76q-120 0 -204 -97t-84 -277v-492h-140v748q0 123 -8 210h133
q8 -67 8 -163zM1001 1235q1 -41 -29 -70t-69 -29t-69 30q-30 28 -29 69q0 41 30 70q31 29 69 29t68 -29q29 -29 29 -70z" />
    <glyph glyph-name="Mdotbelow" unicode="&#x1e42;" horiz-adv-x="1814" 
d="M1622 1450v-1450h-147v1260h-5l-524 -1260h-78l-524 1260h-4v-1260h-147v1450h225l491 -1200h2l486 1200h225zM1006 -252q0 -41 -30 -70q-30 -28 -69 -28t-69 28t-29 70q0 41 30 70q31 28 69 28t68 -28t30 -70z" />
    <glyph glyph-name="mdotbelow" unicode="&#x1e43;" horiz-adv-x="1808" 
d="M317 795h5q41 86 127 137t188 51q213 0 295 -203q100 203 336 203q178 0 271 -106t93 -289v-588h-139v530q0 336 -248 336q-141 0 -207 -102t-65 -254v-510h-139v559q0 154 -50 231q-50 76 -172 76q-120 0 -204 -97t-84 -277v-492h-140v748q0 123 -8 210h133
q8 -67 8 -163zM1001 -252q1 -41 -29 -70q-30 -28 -69 -28t-69 28t-29 70q0 41 30 70q31 28 69 28t68 -28q29 -29 29 -70z" />
    <glyph glyph-name="Ndotaccent" unicode="&#x1e44;" horiz-adv-x="1564" 
d="M1225 215v1235h147v-1450h-184l-844 1247h-4v-1247h-147v1450h184l844 -1235h4zM901 1702q0 -41 -30 -70q-31 -28 -69 -28t-68 28t-29 70q0 41 29 70q30 28 69 28t69 -28t29 -70z" />
    <glyph glyph-name="ndotaccent" unicode="&#x1e45;" horiz-adv-x="1189" 
d="M317 795h5q41 84 132 136t195 52q177 0 271 -106t94 -289v-588h-140v530q0 164 -58 250t-190 86t-218 -97q-84 -97 -84 -277v-492h-140v748q0 122 -8 210h133q8 -68 8 -163zM692 1235q0 -41 -30 -70t-68 -29q-39 0 -69 30q-30 28 -29 69q0 41 29 70q30 29 69 29t69 -29
q29 -29 29 -70z" />
    <glyph glyph-name="Ndotbelow" unicode="&#x1e46;" horiz-adv-x="1564" 
d="M1225 215v1235h147v-1450h-184l-844 1247h-4v-1247h-147v1450h184l844 -1235h4zM881 -252q0 -41 -30 -70q-30 -28 -69 -28q-38 0 -68 28t-30 70q0 41 30 70q30 28 68 28t69 -28q30 -28 30 -70z" />
    <glyph glyph-name="ndotbelow" unicode="&#x1e47;" horiz-adv-x="1189" 
d="M317 795h5q41 84 132 136t195 52q177 0 271 -106t94 -289v-588h-140v530q0 164 -58 250t-190 86t-218 -97q-84 -97 -84 -277v-492h-140v748q0 122 -8 210h133q8 -68 8 -163zM692 -252q0 -41 -30 -70q-30 -28 -68 -28q-39 0 -69 28t-29 70q0 41 29 70q30 28 69 28t69 -28
q29 -29 29 -70z" />
    <glyph glyph-name="Nlinebelow" unicode="&#x1e48;" horiz-adv-x="1564" 
d="M1225 215v1235h147v-1450h-184l-844 1247h-4v-1247h-147v1450h184l844 -1235h4zM1038 -154v-110h-553v110h553z" />
    <glyph glyph-name="nlinebelow" unicode="&#x1e49;" horiz-adv-x="1189" 
d="M317 795h5q41 84 132 136t195 52q177 0 271 -106t94 -289v-588h-140v530q0 164 -58 250t-190 86t-218 -97q-84 -97 -84 -277v-492h-140v748q0 122 -8 210h133q8 -68 8 -163zM870 -154v-110h-553v110h553z" />
    <glyph glyph-name="Ncircumflexbelow" unicode="&#x1e4a;" horiz-adv-x="1564" 
d="M1225 215v1235h147v-1450h-184l-844 1247h-4v-1247h-147v1450h184l844 -1235h4zM844 -154l223 -295h-135l-170 222l-170 -222h-135l223 295h164z" />
    <glyph glyph-name="ncircumflexbelow" unicode="&#x1e4b;" horiz-adv-x="1189" 
d="M317 795h5q41 84 132 136t195 52q177 0 271 -106t94 -289v-588h-140v530q0 164 -58 250t-190 86t-218 -97q-84 -97 -84 -277v-492h-140v748q0 122 -8 210h133q8 -68 8 -163zM676 -154l223 -295h-135l-170 222l-170 -222h-135l223 295h164z" />
    <glyph glyph-name="Otildeacute" unicode="&#x1e4c;" horiz-adv-x="1740" 
d="M1626 725q0 -330 -215 -546t-541 -216t-540 216t-215 546q0 330 215 546q214 216 540 216t541 -216t215 -546zM1470 725q0 264 -164 449q-166 184 -436 184t-435 -184t-165 -448t165 -448t435 -184t435 184t165 447zM727 1853q55 0 153 -47t134 -47q72 0 100 103h88
q-33 -213 -188 -213q-60 0 -150 47t-137 47q-71 -1 -100 -103h-88q33 213 188 213zM1210 2310l-270 -295h-121l205 295h186z" />
    <glyph glyph-name="otildeacute" unicode="&#x1e4d;" horiz-adv-x="1251" 
d="M1137 479q1 -217 -143 -360t-367 -143t-367 142q-144 144 -145 361q0 217 144 361q143 144 367 143q224 1 368 -143t143 -361zM262 479q0 -165 100 -275t264 -110t263 110q100 110 100 274q0 165 -100 277q-100 111 -263 111t-264 -111q-100 -112 -100 -276zM481 1350
q55 0 153 -47t134 -48q72 0 100 103h88q-33 -213 -188 -213q-60 0 -150 47t-137 47q-71 0 -100 -102h-88q33 213 188 213zM946 1806l-270 -295h-121l205 295h186z" />
    <glyph glyph-name="Otildedieresis" unicode="&#x1e4e;" horiz-adv-x="1740" 
d="M1626 725q0 -330 -215 -546t-541 -216t-540 216t-215 546q0 330 215 546q214 216 540 216t541 -216t215 -546zM1470 725q0 264 -164 449q-166 184 -436 184t-435 -184t-165 -448t165 -448t435 -184t435 184t165 447zM727 1853q55 0 153 -47t134 -47q72 0 100 103h88
q-33 -213 -188 -213q-60 0 -150 47t-137 47q-71 -1 -100 -103h-88q33 213 188 213zM569 2120q0 44 29 74t76 30t76 -31q28 -31 28 -73t-28 -74q-28 -31 -76 -31q-47 0 -76 31t-29 74zM963 2120q1 44 29 74t75 30t76 -31t29 -73t-30 -74q-28 -31 -75 -31t-76 31
q-28 31 -28 74z" />
    <glyph glyph-name="otildedieresis" unicode="&#x1e4f;" horiz-adv-x="1251" 
d="M1137 479q1 -217 -143 -360t-367 -143t-367 142q-144 144 -145 361q0 217 144 361q143 144 367 143q224 1 368 -143t143 -361zM262 479q0 -165 100 -275t264 -110t263 110q100 110 100 274q0 165 -100 277q-100 111 -263 111t-264 -111q-100 -112 -100 -276zM481 1350
q55 0 153 -47t134 -48q72 0 100 103h88q-33 -213 -188 -213q-60 0 -150 47t-137 47q-71 0 -100 -102h-88q33 213 188 213zM324 1616q0 43 28 74q29 30 76 30t76 -30q28 -30 28 -74q0 -43 -28 -74t-76 -31q-47 0 -76 31q-28 31 -28 74zM717 1616q0 43 28 74q29 30 76 30
t76 -30t29 -74q0 -43 -29 -74t-76 -31t-76 31q-28 31 -28 74z" />
    </font>
</defs>
</svg>
