<?xml version="1.0" standalone="no"?>
<!DOCTYPE svg PUBLIC "-//W3C//DTD SVG 20010904//EN"
 "http://www.w3.org/TR/2001/REC-SVG-20010904/DTD/svg10.dtd">
<svg version="1.0" xmlns="http://www.w3.org/2000/svg"
 width="94.000000pt" height="94.000000pt" viewBox="0 0 94.000000 94.000000"
 preserveAspectRatio="xMidYMid meet">
<metadata>
Created by potrace 1.11, written by Peter Selinger 2001-2013
</metadata>
<g transform="translate(0.000000,94.000000) scale(0.100000,-0.100000)"
fill="#000000" stroke="none">
<path d="M22 860 c-22 -20 -22 -26 -22 -290 0 -257 1 -271 20 -290 28 -28 74
-26 97 4 17 21 19 45 18 291 -1 267 -1 267 -24 286 -30 25 -62 24 -89 -1z"/>
<path d="M826 859 l-26 -20 0 -265 0 -265 24 -24 c18 -18 31 -23 53 -19 58 10
58 11 59 301 l2 266 -24 24 c-29 28 -53 29 -88 2z"/>
<path d="M420 640 c-19 -19 -20 -33 -20 -283 0 -296 2 -307 65 -307 33 0 64
20 66 43 1 7 2 126 3 266 1 233 0 256 -17 278 -23 29 -70 30 -97 3z"/>
</g>
</svg>
