<?xml version="1.0" encoding="utf-8"?>
<!-- Generated by IcoMoon.io -->
<!DOCTYPE svg PUBLIC "-//W3C//DTD SVG 1.1//EN" "http://www.w3.org/Graphics/SVG/1.1/DTD/svg11.dtd">
<svg version="1.1" xmlns="http://www.w3.org/2000/svg" xmlns:xlink="http://www.w3.org/1999/xlink" width="32" height="32" viewBox="0 0 32 32">
<path fill="#56bacc" d="M8.421 3.368h15.158c2.791 0 5.053 2.262 5.053 5.053v15.158c0 2.791-2.262 5.053-5.053 5.053h-15.158c-2.79 0-5.053-2.262-5.053-5.053v-15.158c0-2.79 2.262-5.053 5.053-5.053z"></path>
<path fill="#56bacc" d="M23.579 29.053h-15.158c-3.021-0.004-5.47-2.452-5.474-5.473v-15.158c0.004-3.021 2.452-5.47 5.473-5.474h15.158c3.021 0.004 5.47 2.452 5.474 5.473v15.158c-0.004 3.021-2.452 5.47-5.473 5.474zM8.421 3.789c-2.557 0.002-4.63 2.074-4.632 4.631v15.158c0.002 2.557 2.074 4.63 4.631 4.632h15.158c2.557-0.002 4.63-2.074 4.632-4.631v-15.158c-0.002-2.557-2.074-4.63-4.631-4.632h-15.158z"></path>
<path fill="#fff" d="M14.434 23.158c-0.382-0.001-0.724-0.171-0.955-0.44l-4.33-5.054c-0.19-0.22-0.305-0.508-0.305-0.824 0-0.698 0.566-1.264 1.264-1.264 0.382 0 0.725 0.17 0.957 0.438l3.275 3.825 7.367-10.462c0.232-0.326 0.608-0.537 1.033-0.537 0.698 0 1.263 0.566 1.263 1.263 0 0.272-0.086 0.524-0.233 0.731l-8.301 11.786c-0.219 0.312-0.569 0.518-0.969 0.539l-0.067 0z"></path>
</svg>
