<?xml version="1.0" encoding="utf-8"?>
<!-- Generated by IcoMoon.io -->
<!DOCTYPE svg PUBLIC "-//W3C//DTD SVG 1.1//EN" "http://www.w3.org/Graphics/SVG/1.1/DTD/svg11.dtd">
<svg version="1.1" xmlns="http://www.w3.org/2000/svg" xmlns:xlink="http://www.w3.org/1999/xlink" width="32" height="32" viewBox="0 0 32 32">
<path fill="#fff" d="M8.421 3.368h15.158c2.791 0 5.053 2.262 5.053 5.053v15.158c0 2.791-2.262 5.053-5.053 5.053h-15.158c-2.79 0-5.053-2.262-5.053-5.053v-15.158c0-2.79 2.262-5.053 5.053-5.053z"></path>
<path fill="#989797" d="M23.579 29.053h-15.158c-3.021-0.004-5.47-2.452-5.474-5.473v-15.158c0.004-3.021 2.452-5.47 5.473-5.474h15.158c3.021 0.004 5.47 2.452 5.474 5.473v15.158c-0.004 3.021-2.452 5.47-5.473 5.474zM8.421 3.789c-2.557 0.002-4.63 2.074-4.632 4.631v15.158c0.002 2.557 2.074 4.63 4.631 4.632h15.158c2.557-0.002 4.63-2.074 4.632-4.631v-15.158c-0.002-2.557-2.074-4.63-4.631-4.632h-15.158z"></path>
</svg>
