<?xml version="1.0" encoding="utf-8"?>
<!-- Generated by IcoMoon.io -->
<!DOCTYPE svg PUBLIC "-//W3C//DTD SVG 1.1//EN" "http://www.w3.org/Graphics/SVG/1.1/DTD/svg11.dtd">
<svg version="1.1" xmlns="http://www.w3.org/2000/svg" xmlns:xlink="http://www.w3.org/1999/xlink" width="32" height="32" viewBox="0 0 32 32">
<path fill="#fff" d="M4.081 4.081h23.84v23.84h-23.84z"></path>
<path fill="#26a5bc" d="M32 16c0 8.837-7.163 16-16 16s-16-7.163-16-16c0-8.837 7.163-16 16-16s16 7.163 16 16z"></path>
<path fill="#fff" d="M24.964 9.509c-0.347-0.347-0.827-0.562-1.357-0.562s-1.010 0.215-1.357 0.562l-8.908 8.908-3.59-3.592c-0.344-0.327-0.81-0.527-1.322-0.527-1.061 0-1.921 0.86-1.921 1.921 0 0.513 0.201 0.979 0.528 1.323l4.946 4.946c0.375 0.376 0.867 0.562 1.358 0.562s0.983-0.187 1.358-0.562l10.267-10.267c0.347-0.347 0.561-0.826 0.561-1.356s-0.215-1.010-0.563-1.357z"></path>
</svg>
